<?xml version="1.0" encoding="utf-8" standalone="no"?>
<!DOCTYPE svg PUBLIC "-//W3C//DTD SVG 1.1//EN"
  "http://www.w3.org/Graphics/SVG/1.1/DTD/svg11.dtd">
<svg xmlns:xlink="http://www.w3.org/1999/xlink" width="288pt" height="432pt" viewBox="0 0 288 432" xmlns="http://www.w3.org/2000/svg" version="1.1">
 <metadata>
  <rdf:RDF xmlns:dc="http://purl.org/dc/elements/1.1/" xmlns:cc="http://creativecommons.org/ns#" xmlns:rdf="http://www.w3.org/1999/02/22-rdf-syntax-ns#">
   <cc:Work>
    <dc:type rdf:resource="http://purl.org/dc/dcmitype/StillImage"/>
    <dc:date>2025-07-22T09:46:31.004156</dc:date>
    <dc:format>image/svg+xml</dc:format>
    <dc:creator>
     <cc:Agent>
      <dc:title>Matplotlib v3.10.3, https://matplotlib.org/</dc:title>
     </cc:Agent>
    </dc:creator>
   </cc:Work>
  </rdf:RDF>
 </metadata>
 <defs>
  <style type="text/css">*{stroke-linejoin: round; stroke-linecap: butt}</style>
 </defs>
 <g id="figure_1">
  <g id="patch_1">
   <path d="M 0 432 
L 288 432 
L 288 0 
L 0 0 
z
" style="fill: #ffffff"/>
  </g>
  <g id="axes_1">
   <g id="patch_2">
    <path d="M 3.00024 133.107052 
L 284.99976 133.107052 
L 284.99976 3.00024 
L 3.00024 3.00024 
z
" style="fill: #ffffff"/>
   </g>
   <g id="FillBetweenPolyCollection_1">
    <defs>
     <path id="m7a80f680ed" d="M 15.8184 -304.806894 
L 15.8184 -304.806894 
L 18.407927 -304.806894 
L 20.997455 -304.806894 
L 23.586982 -304.806894 
L 26.176509 -304.806894 
L 28.766036 -304.806894 
L 31.355564 -304.806894 
L 33.945091 -304.806894 
L 36.534618 -304.806894 
L 39.124145 -304.806894 
L 41.713673 -304.806894 
L 44.3032 -304.806894 
L 46.892727 -304.806894 
L 49.482255 -304.806894 
L 52.071782 -304.806894 
L 54.661309 -304.806894 
L 57.250836 -304.806894 
L 59.840364 -304.806894 
L 62.429891 -304.806894 
L 65.019418 -304.806894 
L 67.608945 -304.806894 
L 70.198473 -304.806894 
L 72.788 -304.806894 
L 75.377527 -304.806894 
L 77.967055 -304.806894 
L 80.556582 -304.806894 
L 83.146109 -304.806894 
L 85.735636 -304.806894 
L 88.325164 -304.806894 
L 90.914691 -304.806894 
L 93.504218 -304.806894 
L 96.093745 -304.806894 
L 98.683273 -304.806894 
L 101.2728 -304.806894 
L 103.862327 -304.806894 
L 106.451855 -304.806894 
L 109.041382 -304.806894 
L 111.630909 -304.806894 
L 114.220436 -304.806894 
L 116.809964 -304.806894 
L 119.399491 -304.806894 
L 121.989018 -304.806894 
L 124.578545 -304.806894 
L 127.168073 -304.806894 
L 129.7576 -304.806894 
L 132.347127 -304.806894 
L 134.936655 -304.806894 
L 137.526182 -304.806894 
L 140.115709 -304.806894 
L 142.705236 -304.806894 
L 145.294764 -304.806894 
L 147.884291 -304.806894 
L 150.473818 -304.806894 
L 153.063345 -304.806894 
L 155.652873 -304.806894 
L 158.2424 -304.806894 
L 160.831927 -304.806894 
L 163.421455 -304.806894 
L 166.010982 -304.806895 
L 168.600509 -304.806895 
L 171.190036 -304.806898 
L 173.779564 -304.806906 
L 176.369091 -304.806931 
L 178.958618 -304.807003 
L 181.548145 -304.807203 
L 184.137673 -304.807737 
L 186.7272 -304.809102 
L 189.316727 -304.812448 
L 191.906255 -304.820304 
L 194.495782 -304.83798 
L 197.085309 -304.876071 
L 199.674836 -304.954681 
L 202.264364 -305.109994 
L 204.853891 -305.403672 
L 207.443418 -305.934909 
L 210.032945 -306.853774 
L 212.622473 -308.3726 
L 215.212 -310.770023 
L 217.801527 -314.380562 
L 220.391055 -319.562533 
L 222.980582 -326.639883 
L 225.570109 -335.8199 
L 228.159636 -347.098097 
L 230.749164 -360.171436 
L 233.338691 -374.38761 
L 235.928218 -388.757064 
L 238.517745 -402.043494 
L 241.107273 -412.928741 
L 243.6968 -420.224657 
L 246.286327 -423.085814 
L 248.875855 -421.170602 
L 251.465382 -414.708302 
L 254.054909 -404.453948 
L 256.644436 -391.543251 
L 259.233964 -377.286094 
L 261.823491 -362.950386 
L 264.413018 -349.584857 
L 267.002545 -337.912615 
L 269.592073 -328.304157 
L 272.1816 -320.817472 
L 272.1816 -304.806894 
L 272.1816 -304.806894 
L 269.592073 -304.806894 
L 267.002545 -304.806894 
L 264.413018 -304.806894 
L 261.823491 -304.806894 
L 259.233964 -304.806894 
L 256.644436 -304.806894 
L 254.054909 -304.806894 
L 251.465382 -304.806894 
L 248.875855 -304.806894 
L 246.286327 -304.806894 
L 243.6968 -304.806894 
L 241.107273 -304.806894 
L 238.517745 -304.806894 
L 235.928218 -304.806894 
L 233.338691 -304.806894 
L 230.749164 -304.806894 
L 228.159636 -304.806894 
L 225.570109 -304.806894 
L 222.980582 -304.806894 
L 220.391055 -304.806894 
L 217.801527 -304.806894 
L 215.212 -304.806894 
L 212.622473 -304.806894 
L 210.032945 -304.806894 
L 207.443418 -304.806894 
L 204.853891 -304.806894 
L 202.264364 -304.806894 
L 199.674836 -304.806894 
L 197.085309 -304.806894 
L 194.495782 -304.806894 
L 191.906255 -304.806894 
L 189.316727 -304.806894 
L 186.7272 -304.806894 
L 184.137673 -304.806894 
L 181.548145 -304.806894 
L 178.958618 -304.806894 
L 176.369091 -304.806894 
L 173.779564 -304.806894 
L 171.190036 -304.806894 
L 168.600509 -304.806894 
L 166.010982 -304.806894 
L 163.421455 -304.806894 
L 160.831927 -304.806894 
L 158.2424 -304.806894 
L 155.652873 -304.806894 
L 153.063345 -304.806894 
L 150.473818 -304.806894 
L 147.884291 -304.806894 
L 145.294764 -304.806894 
L 142.705236 -304.806894 
L 140.115709 -304.806894 
L 137.526182 -304.806894 
L 134.936655 -304.806894 
L 132.347127 -304.806894 
L 129.7576 -304.806894 
L 127.168073 -304.806894 
L 124.578545 -304.806894 
L 121.989018 -304.806894 
L 119.399491 -304.806894 
L 116.809964 -304.806894 
L 114.220436 -304.806894 
L 111.630909 -304.806894 
L 109.041382 -304.806894 
L 106.451855 -304.806894 
L 103.862327 -304.806894 
L 101.2728 -304.806894 
L 98.683273 -304.806894 
L 96.093745 -304.806894 
L 93.504218 -304.806894 
L 90.914691 -304.806894 
L 88.325164 -304.806894 
L 85.735636 -304.806894 
L 83.146109 -304.806894 
L 80.556582 -304.806894 
L 77.967055 -304.806894 
L 75.377527 -304.806894 
L 72.788 -304.806894 
L 70.198473 -304.806894 
L 67.608945 -304.806894 
L 65.019418 -304.806894 
L 62.429891 -304.806894 
L 59.840364 -304.806894 
L 57.250836 -304.806894 
L 54.661309 -304.806894 
L 52.071782 -304.806894 
L 49.482255 -304.806894 
L 46.892727 -304.806894 
L 44.3032 -304.806894 
L 41.713673 -304.806894 
L 39.124145 -304.806894 
L 36.534618 -304.806894 
L 33.945091 -304.806894 
L 31.355564 -304.806894 
L 28.766036 -304.806894 
L 26.176509 -304.806894 
L 23.586982 -304.806894 
L 20.997455 -304.806894 
L 18.407927 -304.806894 
L 15.8184 -304.806894 
z
"/>
    </defs>
    <g clip-path="url(#pa48882b734)">
     <use xlink:href="#m7a80f680ed" x="0" y="432" style="fill: #761e58; fill-opacity: 0.4"/>
    </g>
   </g>
   <g id="FillBetweenPolyCollection_2">
    <defs>
     <path id="me96dd67bd9" d="M 15.8184 -304.806894 
L 15.8184 -304.806894 
L 18.407927 -304.806894 
L 20.997455 -304.806894 
L 23.586982 -304.806894 
L 26.176509 -304.806894 
L 28.766036 -304.806894 
L 31.355564 -304.806894 
L 33.945091 -304.806894 
L 36.534618 -304.806894 
L 39.124145 -304.806894 
L 41.713673 -304.806894 
L 44.3032 -304.806894 
L 46.892727 -304.806894 
L 49.482255 -304.806894 
L 52.071782 -304.806894 
L 54.661309 -304.806894 
L 57.250836 -304.806894 
L 59.840364 -304.806894 
L 62.429891 -304.806895 
L 65.019418 -304.806895 
L 67.608945 -304.806895 
L 70.198473 -304.806896 
L 72.788 -304.806898 
L 75.377527 -304.8069 
L 77.967055 -304.806905 
L 80.556582 -304.806913 
L 83.146109 -304.806926 
L 85.735636 -304.806949 
L 88.325164 -304.806986 
L 90.914691 -304.807049 
L 93.504218 -304.807151 
L 96.093745 -304.807316 
L 98.683273 -304.80758 
L 101.2728 -304.807998 
L 103.862327 -304.808654 
L 106.451855 -304.809671 
L 109.041382 -304.811231 
L 111.630909 -304.813599 
L 114.220436 -304.817155 
L 116.809964 -304.822437 
L 119.399491 -304.830199 
L 121.989018 -304.841483 
L 124.578545 -304.857708 
L 127.168073 -304.880788 
L 129.7576 -304.913259 
L 132.347127 -304.958444 
L 134.936655 -305.020634 
L 137.526182 -305.105283 
L 140.115709 -305.219228 
L 142.705236 -305.370902 
L 145.294764 -305.570535 
L 147.884291 -305.830334 
L 150.473818 -306.164596 
L 153.063345 -306.589747 
L 155.652873 -307.124265 
L 158.2424 -307.788459 
L 160.831927 -308.60408 
L 163.421455 -309.593728 
L 166.010982 -310.780049 
L 168.600509 -312.184714 
L 171.190036 -313.827198 
L 173.779564 -315.723388 
L 176.369091 -317.884074 
L 178.958618 -320.313397 
L 181.548145 -323.00736 
L 184.137673 -325.952495 
L 186.7272 -329.124815 
L 189.316727 -332.489165 
L 191.906255 -335.999084 
L 194.495782 -339.597252 
L 197.085309 -343.216584 
L 199.674836 -346.781979 
L 202.264364 -350.212684 
L 204.853891 -353.425194 
L 207.443418 -356.336542 
L 210.032945 -358.867818 
L 212.622473 -360.947697 
L 215.212 -362.515776 
L 217.801527 -363.525477 
L 220.391055 -363.946354 
L 222.980582 -363.76561 
L 225.570109 -362.988748 
L 228.159636 -361.639291 
L 230.749164 -359.757598 
L 233.338691 -357.398863 
L 235.928218 -354.630421 
L 238.517745 -351.528567 
L 241.107273 -348.175072 
L 243.6968 -344.653639 
L 246.286327 -341.046494 
L 248.875855 -337.431315 
L 251.465382 -333.87864 
L 254.054909 -330.449862 
L 256.644436 -327.195875 
L 259.233964 -324.156372 
L 261.823491 -321.359755 
L 264.413018 -318.823593 
L 267.002545 -316.555526 
L 269.592073 -314.554495 
L 272.1816 -312.812183 
L 272.1816 -304.806894 
L 272.1816 -304.806894 
L 269.592073 -304.806894 
L 267.002545 -304.806894 
L 264.413018 -304.806894 
L 261.823491 -304.806894 
L 259.233964 -304.806894 
L 256.644436 -304.806894 
L 254.054909 -304.806894 
L 251.465382 -304.806894 
L 248.875855 -304.806894 
L 246.286327 -304.806894 
L 243.6968 -304.806894 
L 241.107273 -304.806894 
L 238.517745 -304.806894 
L 235.928218 -304.806894 
L 233.338691 -304.806894 
L 230.749164 -304.806894 
L 228.159636 -304.806894 
L 225.570109 -304.806894 
L 222.980582 -304.806894 
L 220.391055 -304.806894 
L 217.801527 -304.806894 
L 215.212 -304.806894 
L 212.622473 -304.806894 
L 210.032945 -304.806894 
L 207.443418 -304.806894 
L 204.853891 -304.806894 
L 202.264364 -304.806894 
L 199.674836 -304.806894 
L 197.085309 -304.806894 
L 194.495782 -304.806894 
L 191.906255 -304.806894 
L 189.316727 -304.806894 
L 186.7272 -304.806894 
L 184.137673 -304.806894 
L 181.548145 -304.806894 
L 178.958618 -304.806894 
L 176.369091 -304.806894 
L 173.779564 -304.806894 
L 171.190036 -304.806894 
L 168.600509 -304.806894 
L 166.010982 -304.806894 
L 163.421455 -304.806894 
L 160.831927 -304.806894 
L 158.2424 -304.806894 
L 155.652873 -304.806894 
L 153.063345 -304.806894 
L 150.473818 -304.806894 
L 147.884291 -304.806894 
L 145.294764 -304.806894 
L 142.705236 -304.806894 
L 140.115709 -304.806894 
L 137.526182 -304.806894 
L 134.936655 -304.806894 
L 132.347127 -304.806894 
L 129.7576 -304.806894 
L 127.168073 -304.806894 
L 124.578545 -304.806894 
L 121.989018 -304.806894 
L 119.399491 -304.806894 
L 116.809964 -304.806894 
L 114.220436 -304.806894 
L 111.630909 -304.806894 
L 109.041382 -304.806894 
L 106.451855 -304.806894 
L 103.862327 -304.806894 
L 101.2728 -304.806894 
L 98.683273 -304.806894 
L 96.093745 -304.806894 
L 93.504218 -304.806894 
L 90.914691 -304.806894 
L 88.325164 -304.806894 
L 85.735636 -304.806894 
L 83.146109 -304.806894 
L 80.556582 -304.806894 
L 77.967055 -304.806894 
L 75.377527 -304.806894 
L 72.788 -304.806894 
L 70.198473 -304.806894 
L 67.608945 -304.806894 
L 65.019418 -304.806894 
L 62.429891 -304.806894 
L 59.840364 -304.806894 
L 57.250836 -304.806894 
L 54.661309 -304.806894 
L 52.071782 -304.806894 
L 49.482255 -304.806894 
L 46.892727 -304.806894 
L 44.3032 -304.806894 
L 41.713673 -304.806894 
L 39.124145 -304.806894 
L 36.534618 -304.806894 
L 33.945091 -304.806894 
L 31.355564 -304.806894 
L 28.766036 -304.806894 
L 26.176509 -304.806894 
L 23.586982 -304.806894 
L 20.997455 -304.806894 
L 18.407927 -304.806894 
L 15.8184 -304.806894 
z
" style="stroke: #234c80; stroke-opacity: 0.4; stroke-width: 0.3"/>
    </defs>
    <g clip-path="url(#pa48882b734)">
     <use xlink:href="#me96dd67bd9" x="0" y="432" style="fill: #234c80; fill-opacity: 0.4; stroke: #234c80; stroke-opacity: 0.4; stroke-width: 0.3"/>
    </g>
   </g>
   <g id="matplotlib.axis_1">
    <g id="xtick_1">
     <g id="line2d_1">
      <defs>
       <path id="m4bef00bb4c" d="M 0 0 
L 0 3.5 
" style="stroke: #000000; stroke-width: 0.8"/>
      </defs>
      <g>
       <use xlink:href="#m4bef00bb4c" x="41.45472" y="133.107052" style="stroke: #000000; stroke-width: 0.8"/>
      </g>
     </g>
    </g>
    <g id="xtick_2">
     <g id="line2d_2">
      <g>
       <use xlink:href="#m4bef00bb4c" x="92.72736" y="133.107052" style="stroke: #000000; stroke-width: 0.8"/>
      </g>
     </g>
    </g>
    <g id="xtick_3">
     <g id="line2d_3">
      <g>
       <use xlink:href="#m4bef00bb4c" x="144" y="133.107052" style="stroke: #000000; stroke-width: 0.8"/>
      </g>
     </g>
    </g>
    <g id="xtick_4">
     <g id="line2d_4">
      <g>
       <use xlink:href="#m4bef00bb4c" x="195.27264" y="133.107052" style="stroke: #000000; stroke-width: 0.8"/>
      </g>
     </g>
    </g>
    <g id="xtick_5">
     <g id="line2d_5">
      <g>
       <use xlink:href="#m4bef00bb4c" x="246.54528" y="133.107052" style="stroke: #000000; stroke-width: 0.8"/>
      </g>
     </g>
    </g>
   </g>
   <g id="line2d_6">
    <path d="M 15.8184 127.193106 
L 18.407927 127.193106 
L 20.997455 127.193106 
L 23.586982 127.193106 
L 26.176509 127.193106 
L 28.766036 127.193106 
L 31.355564 127.193106 
L 33.945091 127.193106 
L 36.534618 127.193106 
L 39.124145 127.193106 
L 41.713673 127.193106 
L 44.3032 127.193106 
L 46.892727 127.193106 
L 49.482255 127.193106 
L 52.071782 127.193106 
L 54.661309 127.193106 
L 57.250836 127.193106 
L 59.840364 127.193106 
L 62.429891 127.193106 
L 65.019418 127.193106 
L 67.608945 127.193106 
L 70.198473 127.193106 
L 72.788 127.193106 
L 75.377527 127.193106 
L 77.967055 127.193106 
L 80.556582 127.193106 
L 83.146109 127.193106 
L 85.735636 127.193106 
L 88.325164 127.193106 
L 90.914691 127.193106 
L 93.504218 127.193106 
L 96.093745 127.193106 
L 98.683273 127.193106 
L 101.2728 127.193106 
L 103.862327 127.193106 
L 106.451855 127.193106 
L 109.041382 127.193106 
L 111.630909 127.193106 
L 114.220436 127.193106 
L 116.809964 127.193106 
L 119.399491 127.193106 
L 121.989018 127.193106 
L 124.578545 127.193106 
L 127.168073 127.193106 
L 129.7576 127.193106 
L 132.347127 127.193106 
L 134.936655 127.193106 
L 137.526182 127.193106 
L 140.115709 127.193106 
L 142.705236 127.193106 
L 145.294764 127.193106 
L 147.884291 127.193106 
L 150.473818 127.193106 
L 153.063345 127.193106 
L 155.652873 127.193106 
L 158.2424 127.193106 
L 160.831927 127.193106 
L 163.421455 127.193106 
L 166.010982 127.193105 
L 168.600509 127.193105 
L 171.190036 127.193102 
L 173.779564 127.193094 
L 176.369091 127.193069 
L 178.958618 127.192997 
L 181.548145 127.192797 
L 184.137673 127.192263 
L 186.7272 127.190898 
L 189.316727 127.187552 
L 191.906255 127.179696 
L 194.495782 127.16202 
L 197.085309 127.123929 
L 199.674836 127.045319 
L 202.264364 126.890006 
L 204.853891 126.596328 
L 207.443418 126.065091 
L 210.032945 125.146226 
L 212.622473 123.6274 
L 215.212 121.229977 
L 217.801527 117.619438 
L 220.391055 112.437467 
L 222.980582 105.360117 
L 225.570109 96.1801 
L 228.159636 84.901903 
L 230.749164 71.828564 
L 233.338691 57.61239 
L 235.928218 43.242936 
L 238.517745 29.956506 
L 241.107273 19.071259 
L 243.6968 11.775343 
L 246.286327 8.914186 
L 248.875855 10.829398 
L 251.465382 17.291698 
L 254.054909 27.546052 
L 256.644436 40.456749 
L 259.233964 54.713906 
L 261.823491 69.049614 
L 264.413018 82.415143 
L 267.002545 94.087385 
L 269.592073 103.695843 
L 272.1816 111.182528 
" clip-path="url(#pa48882b734)" style="fill: none; stroke: #000000; stroke-width: 0.6; stroke-linecap: square"/>
   </g>
   <g id="line2d_7">
    <path d="M 15.8184 127.193106 
L 18.407927 127.193106 
L 20.997455 127.193106 
L 23.586982 127.193106 
L 26.176509 127.193106 
L 28.766036 127.193106 
L 31.355564 127.193106 
L 33.945091 127.193106 
L 36.534618 127.193106 
L 39.124145 127.193106 
L 41.713673 127.193106 
L 44.3032 127.193106 
L 46.892727 127.193106 
L 49.482255 127.193106 
L 52.071782 127.193106 
L 54.661309 127.193106 
L 57.250836 127.193106 
L 59.840364 127.193106 
L 62.429891 127.193105 
L 65.019418 127.193105 
L 67.608945 127.193105 
L 70.198473 127.193104 
L 72.788 127.193102 
L 75.377527 127.1931 
L 77.967055 127.193095 
L 80.556582 127.193087 
L 83.146109 127.193074 
L 85.735636 127.193051 
L 88.325164 127.193014 
L 90.914691 127.192951 
L 93.504218 127.192849 
L 96.093745 127.192684 
L 98.683273 127.19242 
L 101.2728 127.192002 
L 103.862327 127.191346 
L 106.451855 127.190329 
L 109.041382 127.188769 
L 111.630909 127.186401 
L 114.220436 127.182845 
L 116.809964 127.177563 
L 119.399491 127.169801 
L 121.989018 127.158517 
L 124.578545 127.142292 
L 127.168073 127.119212 
L 129.7576 127.086741 
L 132.347127 127.041556 
L 134.936655 126.979366 
L 137.526182 126.894717 
L 140.115709 126.780772 
L 142.705236 126.629098 
L 145.294764 126.429465 
L 147.884291 126.169666 
L 150.473818 125.835404 
L 153.063345 125.410253 
L 155.652873 124.875735 
L 158.2424 124.211541 
L 160.831927 123.39592 
L 163.421455 122.406272 
L 166.010982 121.219951 
L 168.600509 119.815286 
L 171.190036 118.172802 
L 173.779564 116.276612 
L 176.369091 114.115926 
L 178.958618 111.686603 
L 181.548145 108.99264 
L 184.137673 106.047505 
L 186.7272 102.875185 
L 189.316727 99.510835 
L 191.906255 96.000916 
L 194.495782 92.402748 
L 197.085309 88.783416 
L 199.674836 85.218021 
L 202.264364 81.787316 
L 204.853891 78.574806 
L 207.443418 75.663458 
L 210.032945 73.132182 
L 212.622473 71.052303 
L 215.212 69.484224 
L 217.801527 68.474523 
L 220.391055 68.053646 
L 222.980582 68.23439 
L 225.570109 69.011252 
L 228.159636 70.360709 
L 230.749164 72.242402 
L 233.338691 74.601137 
L 235.928218 77.369579 
L 238.517745 80.471433 
L 241.107273 83.824928 
L 243.6968 87.346361 
L 246.286327 90.953506 
L 248.875855 94.568685 
L 251.465382 98.12136 
L 254.054909 101.550138 
L 256.644436 104.804125 
L 259.233964 107.843628 
L 261.823491 110.640245 
L 264.413018 113.176407 
L 267.002545 115.444474 
L 269.592073 117.445505 
L 272.1816 119.187817 
" clip-path="url(#pa48882b734)" style="fill: none; stroke: #000000; stroke-width: 0.6; stroke-linecap: square"/>
   </g>
   <g id="patch_3">
    <path d="M 3.00024 133.107052 
L 284.99976 133.107052 
" style="fill: none; stroke: #000000; stroke-width: 0.8; stroke-linejoin: miter; stroke-linecap: square"/>
   </g>
  </g>
  <g id="axes_2">
   <g id="patch_4">
    <path d="M 3.00024 272.714343 
L 284.99976 272.714343 
L 284.99976 142.607532 
L 3.00024 142.607532 
z
" style="fill: #ffffff"/>
   </g>
   <g id="FillBetweenPolyCollection_3">
    <defs>
     <path id="mdd44bd5ec2" d="M 15.8184 -165.199603 
L 15.8184 -166.499071 
L 18.407927 -166.672074 
L 20.997455 -166.86386 
L 23.586982 -167.075833 
L 26.176509 -167.309416 
L 28.766036 -167.566036 
L 31.355564 -167.847107 
L 33.945091 -168.154016 
L 36.534618 -168.488104 
L 39.124145 -168.850646 
L 41.713673 -169.242831 
L 44.3032 -169.665737 
L 46.892727 -170.120309 
L 49.482255 -170.607337 
L 52.071782 -171.127429 
L 54.661309 -171.680987 
L 57.250836 -172.268185 
L 59.840364 -172.888944 
L 62.429891 -173.542907 
L 65.019418 -174.229427 
L 67.608945 -174.947541 
L 70.198473 -175.695955 
L 72.788 -176.473038 
L 75.377527 -177.276805 
L 77.967055 -178.104919 
L 80.556582 -178.954685 
L 83.146109 -179.823056 
L 85.735636 -180.706642 
L 88.325164 -181.601726 
L 90.914691 -182.504279 
L 93.504218 -183.409987 
L 96.093745 -184.314279 
L 98.683273 -185.212364 
L 101.2728 -186.099266 
L 103.862327 -186.969871 
L 106.451855 -187.818972 
L 109.041382 -188.64132 
L 111.630909 -189.431677 
L 114.220436 -190.184868 
L 116.809964 -190.895841 
L 119.399491 -191.559721 
L 121.989018 -192.171866 
L 124.578545 -192.727918 
L 127.168073 -193.22386 
L 129.7576 -193.656057 
L 132.347127 -194.02131 
L 134.936655 -194.316884 
L 137.526182 -194.540552 
L 140.115709 -194.690618 
L 142.705236 -194.765939 
L 145.294764 -194.765939 
L 147.884291 -194.690618 
L 150.473818 -194.540552 
L 153.063345 -194.316884 
L 155.652873 -194.02131 
L 158.2424 -193.656057 
L 160.831927 -193.22386 
L 163.421455 -192.727918 
L 166.010982 -192.171866 
L 168.600509 -191.559721 
L 171.190036 -190.895841 
L 173.779564 -190.184868 
L 176.369091 -189.431677 
L 178.958618 -188.64132 
L 181.548145 -187.818972 
L 184.137673 -186.969871 
L 186.7272 -186.099266 
L 189.316727 -185.212364 
L 191.906255 -184.314279 
L 194.495782 -183.409987 
L 197.085309 -182.504279 
L 199.674836 -181.601726 
L 202.264364 -180.706642 
L 204.853891 -179.823056 
L 207.443418 -178.954685 
L 210.032945 -178.104919 
L 212.622473 -177.276805 
L 215.212 -176.473038 
L 217.801527 -175.695955 
L 220.391055 -174.947541 
L 222.980582 -174.229427 
L 225.570109 -173.542907 
L 228.159636 -172.888944 
L 230.749164 -172.268185 
L 233.338691 -171.680987 
L 235.928218 -171.127429 
L 238.517745 -170.607337 
L 241.107273 -170.120309 
L 243.6968 -169.665737 
L 246.286327 -169.242831 
L 248.875855 -168.850646 
L 251.465382 -168.488104 
L 254.054909 -168.154016 
L 256.644436 -167.847107 
L 259.233964 -167.566036 
L 261.823491 -167.309416 
L 264.413018 -167.075833 
L 267.002545 -166.86386 
L 269.592073 -166.672074 
L 272.1816 -166.499071 
L 272.1816 -165.199603 
L 272.1816 -165.199603 
L 269.592073 -165.199603 
L 267.002545 -165.199603 
L 264.413018 -165.199603 
L 261.823491 -165.199603 
L 259.233964 -165.199603 
L 256.644436 -165.199603 
L 254.054909 -165.199603 
L 251.465382 -165.199603 
L 248.875855 -165.199603 
L 246.286327 -165.199603 
L 243.6968 -165.199603 
L 241.107273 -165.199603 
L 238.517745 -165.199603 
L 235.928218 -165.199603 
L 233.338691 -165.199603 
L 230.749164 -165.199603 
L 228.159636 -165.199603 
L 225.570109 -165.199603 
L 222.980582 -165.199603 
L 220.391055 -165.199603 
L 217.801527 -165.199603 
L 215.212 -165.199603 
L 212.622473 -165.199603 
L 210.032945 -165.199603 
L 207.443418 -165.199603 
L 204.853891 -165.199603 
L 202.264364 -165.199603 
L 199.674836 -165.199603 
L 197.085309 -165.199603 
L 194.495782 -165.199603 
L 191.906255 -165.199603 
L 189.316727 -165.199603 
L 186.7272 -165.199603 
L 184.137673 -165.199603 
L 181.548145 -165.199603 
L 178.958618 -165.199603 
L 176.369091 -165.199603 
L 173.779564 -165.199603 
L 171.190036 -165.199603 
L 168.600509 -165.199603 
L 166.010982 -165.199603 
L 163.421455 -165.199603 
L 160.831927 -165.199603 
L 158.2424 -165.199603 
L 155.652873 -165.199603 
L 153.063345 -165.199603 
L 150.473818 -165.199603 
L 147.884291 -165.199603 
L 145.294764 -165.199603 
L 142.705236 -165.199603 
L 140.115709 -165.199603 
L 137.526182 -165.199603 
L 134.936655 -165.199603 
L 132.347127 -165.199603 
L 129.7576 -165.199603 
L 127.168073 -165.199603 
L 124.578545 -165.199603 
L 121.989018 -165.199603 
L 119.399491 -165.199603 
L 116.809964 -165.199603 
L 114.220436 -165.199603 
L 111.630909 -165.199603 
L 109.041382 -165.199603 
L 106.451855 -165.199603 
L 103.862327 -165.199603 
L 101.2728 -165.199603 
L 98.683273 -165.199603 
L 96.093745 -165.199603 
L 93.504218 -165.199603 
L 90.914691 -165.199603 
L 88.325164 -165.199603 
L 85.735636 -165.199603 
L 83.146109 -165.199603 
L 80.556582 -165.199603 
L 77.967055 -165.199603 
L 75.377527 -165.199603 
L 72.788 -165.199603 
L 70.198473 -165.199603 
L 67.608945 -165.199603 
L 65.019418 -165.199603 
L 62.429891 -165.199603 
L 59.840364 -165.199603 
L 57.250836 -165.199603 
L 54.661309 -165.199603 
L 52.071782 -165.199603 
L 49.482255 -165.199603 
L 46.892727 -165.199603 
L 44.3032 -165.199603 
L 41.713673 -165.199603 
L 39.124145 -165.199603 
L 36.534618 -165.199603 
L 33.945091 -165.199603 
L 31.355564 -165.199603 
L 28.766036 -165.199603 
L 26.176509 -165.199603 
L 23.586982 -165.199603 
L 20.997455 -165.199603 
L 18.407927 -165.199603 
L 15.8184 -165.199603 
z
"/>
    </defs>
    <g clip-path="url(#p0a76b60efc)">
     <use xlink:href="#mdd44bd5ec2" x="0" y="432" style="fill: #761e58; fill-opacity: 0.4"/>
    </g>
   </g>
   <g id="FillBetweenPolyCollection_4">
    <defs>
     <path id="m07e38fad7c" d="M 15.8184 -165.199603 
L 15.8184 -165.199619 
L 18.407927 -165.19963 
L 20.997455 -165.19965 
L 23.586982 -165.199683 
L 26.176509 -165.199738 
L 28.766036 -165.199829 
L 31.355564 -165.199975 
L 33.945091 -165.20021 
L 36.534618 -165.200584 
L 39.124145 -165.20117 
L 41.713673 -165.202083 
L 44.3032 -165.203486 
L 46.892727 -165.205622 
L 49.482255 -165.208837 
L 52.071782 -165.213626 
L 54.661309 -165.220683 
L 57.250836 -165.23097 
L 59.840364 -165.245802 
L 62.429891 -165.266957 
L 65.019418 -165.296802 
L 67.608945 -165.338448 
L 70.198473 -165.395924 
L 72.788 -165.474375 
L 75.377527 -165.580272 
L 77.967055 -165.721628 
L 80.556582 -165.908206 
L 83.146109 -166.151707 
L 85.735636 -166.465896 
L 88.325164 -166.86667 
L 90.914691 -167.372008 
L 93.504218 -168.001792 
L 96.093745 -168.777459 
L 98.683273 -169.721463 
L 101.2728 -170.856526 
L 103.862327 -172.204671 
L 106.451855 -173.786046 
L 109.041382 -175.617573 
L 111.630909 -177.71146 
L 114.220436 -180.073656 
L 116.809964 -182.702332 
L 119.399491 -185.586497 
L 121.989018 -188.704873 
L 124.578545 -192.025133 
L 127.168073 -195.503623 
L 129.7576 -199.085661 
L 132.347127 -202.706466 
L 134.936655 -206.29274 
L 137.526182 -209.764893 
L 140.115709 -213.03981 
L 142.705236 -216.034066 
L 145.294764 -218.667402 
L 147.884291 -220.866273 
L 150.473818 -222.567253 
L 153.063345 -223.720066 
L 155.652873 -224.290056 
L 158.2424 -224.259919 
L 160.831927 -223.630572 
L 163.421455 -222.421109 
L 166.010982 -220.667839 
L 168.600509 -218.422474 
L 171.190036 -215.749599 
L 173.779564 -212.723585 
L 176.369091 -209.425168 
L 178.958618 -205.937898 
L 181.548145 -202.344672 
L 184.137673 -198.724571 
L 186.7272 -195.150129 
L 189.316727 -191.685178 
L 191.906255 -188.383329 
L 194.495782 -185.287105 
L 197.085309 -182.427708 
L 199.674836 -179.825347 
L 202.264364 -177.490039 
L 204.853891 -175.422771 
L 207.443418 -173.616899 
L 210.032945 -172.059673 
L 212.622473 -170.733784 
L 215.212 -169.618838 
L 217.801527 -168.692692 
L 220.391055 -167.932612 
L 222.980582 -167.316216 
L 225.570109 -166.8222 
L 228.159636 -166.43086 
L 230.749164 -166.12442 
L 233.338691 -165.887196 
L 235.928218 -165.705633 
L 238.517745 -165.568232 
L 241.107273 -165.465413 
L 243.6968 -165.389327 
L 246.286327 -165.333646 
L 248.875855 -165.293344 
L 251.465382 -165.264495 
L 254.054909 -165.244068 
L 256.644436 -165.229761 
L 259.233964 -165.21985 
L 261.823491 -165.213059 
L 264.413018 -165.208454 
L 267.002545 -165.205366 
L 269.592073 -165.203317 
L 272.1816 -165.201973 
L 272.1816 -165.199603 
L 272.1816 -165.199603 
L 269.592073 -165.199603 
L 267.002545 -165.199603 
L 264.413018 -165.199603 
L 261.823491 -165.199603 
L 259.233964 -165.199603 
L 256.644436 -165.199603 
L 254.054909 -165.199603 
L 251.465382 -165.199603 
L 248.875855 -165.199603 
L 246.286327 -165.199603 
L 243.6968 -165.199603 
L 241.107273 -165.199603 
L 238.517745 -165.199603 
L 235.928218 -165.199603 
L 233.338691 -165.199603 
L 230.749164 -165.199603 
L 228.159636 -165.199603 
L 225.570109 -165.199603 
L 222.980582 -165.199603 
L 220.391055 -165.199603 
L 217.801527 -165.199603 
L 215.212 -165.199603 
L 212.622473 -165.199603 
L 210.032945 -165.199603 
L 207.443418 -165.199603 
L 204.853891 -165.199603 
L 202.264364 -165.199603 
L 199.674836 -165.199603 
L 197.085309 -165.199603 
L 194.495782 -165.199603 
L 191.906255 -165.199603 
L 189.316727 -165.199603 
L 186.7272 -165.199603 
L 184.137673 -165.199603 
L 181.548145 -165.199603 
L 178.958618 -165.199603 
L 176.369091 -165.199603 
L 173.779564 -165.199603 
L 171.190036 -165.199603 
L 168.600509 -165.199603 
L 166.010982 -165.199603 
L 163.421455 -165.199603 
L 160.831927 -165.199603 
L 158.2424 -165.199603 
L 155.652873 -165.199603 
L 153.063345 -165.199603 
L 150.473818 -165.199603 
L 147.884291 -165.199603 
L 145.294764 -165.199603 
L 142.705236 -165.199603 
L 140.115709 -165.199603 
L 137.526182 -165.199603 
L 134.936655 -165.199603 
L 132.347127 -165.199603 
L 129.7576 -165.199603 
L 127.168073 -165.199603 
L 124.578545 -165.199603 
L 121.989018 -165.199603 
L 119.399491 -165.199603 
L 116.809964 -165.199603 
L 114.220436 -165.199603 
L 111.630909 -165.199603 
L 109.041382 -165.199603 
L 106.451855 -165.199603 
L 103.862327 -165.199603 
L 101.2728 -165.199603 
L 98.683273 -165.199603 
L 96.093745 -165.199603 
L 93.504218 -165.199603 
L 90.914691 -165.199603 
L 88.325164 -165.199603 
L 85.735636 -165.199603 
L 83.146109 -165.199603 
L 80.556582 -165.199603 
L 77.967055 -165.199603 
L 75.377527 -165.199603 
L 72.788 -165.199603 
L 70.198473 -165.199603 
L 67.608945 -165.199603 
L 65.019418 -165.199603 
L 62.429891 -165.199603 
L 59.840364 -165.199603 
L 57.250836 -165.199603 
L 54.661309 -165.199603 
L 52.071782 -165.199603 
L 49.482255 -165.199603 
L 46.892727 -165.199603 
L 44.3032 -165.199603 
L 41.713673 -165.199603 
L 39.124145 -165.199603 
L 36.534618 -165.199603 
L 33.945091 -165.199603 
L 31.355564 -165.199603 
L 28.766036 -165.199603 
L 26.176509 -165.199603 
L 23.586982 -165.199603 
L 20.997455 -165.199603 
L 18.407927 -165.199603 
L 15.8184 -165.199603 
z
" style="stroke: #234c80; stroke-opacity: 0.4; stroke-width: 0.3"/>
    </defs>
    <g clip-path="url(#p0a76b60efc)">
     <use xlink:href="#m07e38fad7c" x="0" y="432" style="fill: #234c80; fill-opacity: 0.4; stroke: #234c80; stroke-opacity: 0.4; stroke-width: 0.3"/>
    </g>
   </g>
   <g id="matplotlib.axis_2">
    <g id="xtick_6">
     <g id="line2d_8">
      <g>
       <use xlink:href="#m4bef00bb4c" x="41.45472" y="272.714343" style="stroke: #000000; stroke-width: 0.8"/>
      </g>
     </g>
    </g>
    <g id="xtick_7">
     <g id="line2d_9">
      <g>
       <use xlink:href="#m4bef00bb4c" x="92.72736" y="272.714343" style="stroke: #000000; stroke-width: 0.8"/>
      </g>
     </g>
    </g>
    <g id="xtick_8">
     <g id="line2d_10">
      <g>
       <use xlink:href="#m4bef00bb4c" x="144" y="272.714343" style="stroke: #000000; stroke-width: 0.8"/>
      </g>
     </g>
    </g>
    <g id="xtick_9">
     <g id="line2d_11">
      <g>
       <use xlink:href="#m4bef00bb4c" x="195.27264" y="272.714343" style="stroke: #000000; stroke-width: 0.8"/>
      </g>
     </g>
    </g>
    <g id="xtick_10">
     <g id="line2d_12">
      <g>
       <use xlink:href="#m4bef00bb4c" x="246.54528" y="272.714343" style="stroke: #000000; stroke-width: 0.8"/>
      </g>
     </g>
    </g>
   </g>
   <g id="line2d_13">
    <path d="M 15.8184 265.500929 
L 18.407927 265.327926 
L 20.997455 265.13614 
L 23.586982 264.924167 
L 26.176509 264.690584 
L 28.766036 264.433964 
L 31.355564 264.152893 
L 33.945091 263.845984 
L 36.534618 263.511896 
L 39.124145 263.149354 
L 41.713673 262.757169 
L 44.3032 262.334263 
L 46.892727 261.879691 
L 49.482255 261.392663 
L 52.071782 260.872571 
L 54.661309 260.319013 
L 57.250836 259.731815 
L 59.840364 259.111056 
L 62.429891 258.457093 
L 65.019418 257.770573 
L 67.608945 257.052459 
L 70.198473 256.304045 
L 72.788 255.526962 
L 75.377527 254.723195 
L 77.967055 253.895081 
L 80.556582 253.045315 
L 83.146109 252.176944 
L 85.735636 251.293358 
L 88.325164 250.398274 
L 90.914691 249.495721 
L 93.504218 248.590013 
L 96.093745 247.685721 
L 98.683273 246.787636 
L 101.2728 245.900734 
L 103.862327 245.030129 
L 106.451855 244.181028 
L 109.041382 243.35868 
L 111.630909 242.568323 
L 114.220436 241.815132 
L 116.809964 241.104159 
L 119.399491 240.440279 
L 121.989018 239.828134 
L 124.578545 239.272082 
L 127.168073 238.77614 
L 129.7576 238.343943 
L 132.347127 237.97869 
L 134.936655 237.683116 
L 137.526182 237.459448 
L 140.115709 237.309382 
L 142.705236 237.234061 
L 145.294764 237.234061 
L 147.884291 237.309382 
L 150.473818 237.459448 
L 153.063345 237.683116 
L 155.652873 237.97869 
L 158.2424 238.343943 
L 160.831927 238.77614 
L 163.421455 239.272082 
L 166.010982 239.828134 
L 168.600509 240.440279 
L 171.190036 241.104159 
L 173.779564 241.815132 
L 176.369091 242.568323 
L 178.958618 243.35868 
L 181.548145 244.181028 
L 184.137673 245.030129 
L 186.7272 245.900734 
L 189.316727 246.787636 
L 191.906255 247.685721 
L 194.495782 248.590013 
L 197.085309 249.495721 
L 199.674836 250.398274 
L 202.264364 251.293358 
L 204.853891 252.176944 
L 207.443418 253.045315 
L 210.032945 253.895081 
L 212.622473 254.723195 
L 215.212 255.526962 
L 217.801527 256.304045 
L 220.391055 257.052459 
L 222.980582 257.770573 
L 225.570109 258.457093 
L 228.159636 259.111056 
L 230.749164 259.731815 
L 233.338691 260.319013 
L 235.928218 260.872571 
L 238.517745 261.392663 
L 241.107273 261.879691 
L 243.6968 262.334263 
L 246.286327 262.757169 
L 248.875855 263.149354 
L 251.465382 263.511896 
L 254.054909 263.845984 
L 256.644436 264.152893 
L 259.233964 264.433964 
L 261.823491 264.690584 
L 264.413018 264.924167 
L 267.002545 265.13614 
L 269.592073 265.327926 
L 272.1816 265.500929 
" clip-path="url(#p0a76b60efc)" style="fill: none; stroke: #000000; stroke-width: 0.6; stroke-linecap: square"/>
   </g>
   <g id="line2d_14">
    <path d="M 15.8184 266.800381 
L 18.407927 266.80037 
L 20.997455 266.80035 
L 23.586982 266.800317 
L 26.176509 266.800262 
L 28.766036 266.800171 
L 31.355564 266.800025 
L 33.945091 266.79979 
L 36.534618 266.799416 
L 39.124145 266.79883 
L 41.713673 266.797917 
L 44.3032 266.796514 
L 46.892727 266.794378 
L 49.482255 266.791163 
L 52.071782 266.786374 
L 54.661309 266.779317 
L 57.250836 266.76903 
L 59.840364 266.754198 
L 62.429891 266.733043 
L 65.019418 266.703198 
L 67.608945 266.661552 
L 70.198473 266.604076 
L 72.788 266.525625 
L 75.377527 266.419728 
L 77.967055 266.278372 
L 80.556582 266.091794 
L 83.146109 265.848293 
L 85.735636 265.534104 
L 88.325164 265.13333 
L 90.914691 264.627992 
L 93.504218 263.998208 
L 96.093745 263.222541 
L 98.683273 262.278537 
L 101.2728 261.143474 
L 103.862327 259.795329 
L 106.451855 258.213954 
L 109.041382 256.382427 
L 111.630909 254.28854 
L 114.220436 251.926344 
L 116.809964 249.297668 
L 119.399491 246.413503 
L 121.989018 243.295127 
L 124.578545 239.974867 
L 127.168073 236.496377 
L 129.7576 232.914339 
L 132.347127 229.293534 
L 134.936655 225.70726 
L 137.526182 222.235107 
L 140.115709 218.96019 
L 142.705236 215.965934 
L 145.294764 213.332598 
L 147.884291 211.133727 
L 150.473818 209.432747 
L 153.063345 208.279934 
L 155.652873 207.709944 
L 158.2424 207.740081 
L 160.831927 208.369428 
L 163.421455 209.578891 
L 166.010982 211.332161 
L 168.600509 213.577526 
L 171.190036 216.250401 
L 173.779564 219.276415 
L 176.369091 222.574832 
L 178.958618 226.062102 
L 181.548145 229.655328 
L 184.137673 233.275429 
L 186.7272 236.849871 
L 189.316727 240.314822 
L 191.906255 243.616671 
L 194.495782 246.712895 
L 197.085309 249.572292 
L 199.674836 252.174653 
L 202.264364 254.509961 
L 204.853891 256.577229 
L 207.443418 258.383101 
L 210.032945 259.940327 
L 212.622473 261.266216 
L 215.212 262.381162 
L 217.801527 263.307308 
L 220.391055 264.067388 
L 222.980582 264.683784 
L 225.570109 265.1778 
L 228.159636 265.56914 
L 230.749164 265.87558 
L 233.338691 266.112804 
L 235.928218 266.294367 
L 238.517745 266.431768 
L 241.107273 266.534587 
L 243.6968 266.610673 
L 246.286327 266.666354 
L 248.875855 266.706656 
L 251.465382 266.735505 
L 254.054909 266.755932 
L 256.644436 266.770239 
L 259.233964 266.78015 
L 261.823491 266.786941 
L 264.413018 266.791546 
L 267.002545 266.794634 
L 269.592073 266.796683 
L 272.1816 266.798027 
" clip-path="url(#p0a76b60efc)" style="fill: none; stroke: #000000; stroke-width: 0.6; stroke-linecap: square"/>
   </g>
   <g id="patch_5">
    <path d="M 3.00024 272.714343 
L 284.99976 272.714343 
" style="fill: none; stroke: #000000; stroke-width: 0.8; stroke-linejoin: miter; stroke-linecap: square"/>
   </g>
  </g>
  <g id="axes_3">
   <g id="patch_6">
    <path d="M 3.00024 412.321635 
L 284.99976 412.321635 
L 284.99976 282.214823 
L 3.00024 282.214823 
z
" style="fill: #ffffff"/>
   </g>
   <g id="FillBetweenPolyCollection_5">
    <defs>
     <path id="m6974bf9fc4" d="M 15.8184 -25.592311 
L 15.8184 -25.592311 
L 18.407927 -25.592311 
L 20.997455 -25.592311 
L 23.586982 -25.592311 
L 26.176509 -25.592311 
L 28.766036 -25.592311 
L 31.355564 -25.592311 
L 33.945091 -25.592311 
L 36.534618 -25.592311 
L 39.124145 -25.592311 
L 41.713673 -25.592311 
L 44.3032 -25.592311 
L 46.892727 -25.592311 
L 49.482255 -25.592311 
L 52.071782 -25.592311 
L 54.661309 -25.592311 
L 57.250836 -25.592311 
L 59.840364 -25.592311 
L 62.429891 -25.592311 
L 65.019418 -25.592311 
L 67.608945 -25.592311 
L 70.198473 -25.592311 
L 72.788 -25.592311 
L 75.377527 -25.592311 
L 77.967055 -25.592311 
L 80.556582 -25.592311 
L 83.146109 -25.592311 
L 85.735636 -25.592311 
L 88.325164 -25.592311 
L 90.914691 -25.592311 
L 93.504218 -25.592311 
L 96.093745 -25.592311 
L 98.683273 -25.592311 
L 101.2728 -25.592311 
L 103.862327 -25.592311 
L 106.451855 -25.592311 
L 109.041382 -25.592311 
L 111.630909 -25.592311 
L 114.220436 -25.592311 
L 116.809964 -25.592311 
L 119.399491 -25.592311 
L 121.989018 -25.592311 
L 124.578545 -25.592311 
L 127.168073 -25.592311 
L 129.7576 -25.592312 
L 132.347127 -25.592313 
L 134.936655 -25.592315 
L 137.526182 -25.592319 
L 140.115709 -25.592329 
L 142.705236 -25.592348 
L 145.294764 -25.592386 
L 147.884291 -25.592462 
L 150.473818 -25.59261 
L 153.063345 -25.592892 
L 155.652873 -25.593418 
L 158.2424 -25.594385 
L 160.831927 -25.596126 
L 163.421455 -25.599203 
L 166.010982 -25.604537 
L 168.600509 -25.613609 
L 171.190036 -25.628745 
L 173.779564 -25.653519 
L 176.369091 -25.693289 
L 178.958618 -25.755906 
L 181.548145 -25.852588 
L 184.137673 -25.998964 
L 186.7272 -26.216238 
L 189.316727 -26.532395 
L 191.906255 -26.983294 
L 194.495782 -27.613465 
L 197.085309 -28.476339 
L 199.674836 -29.633619 
L 202.264364 -31.15349 
L 204.853891 -33.107403 
L 207.443418 -35.565273 
L 210.032945 -38.589111 
L 212.622473 -42.225334 
L 215.212 -46.496261 
L 217.801527 -51.391615 
L 220.391055 -56.861028 
L 222.980582 -62.80873 
L 225.570109 -69.091539 
L 228.159636 -75.521092 
L 230.749164 -81.87085 
L 233.338691 -87.887875 
L 235.928218 -93.308712 
L 238.517745 -97.878123 
L 241.107273 -101.36884 
L 243.6968 -103.600248 
L 246.286327 -104.453864 
L 248.875855 -103.883755 
L 251.465382 -101.920635 
L 254.054909 -98.669124 
L 256.644436 -94.298509 
L 259.233964 -89.028148 
L 261.823491 -83.109266 
L 264.413018 -76.805231 
L 267.002545 -70.372471 
L 269.592073 -64.04389 
L 272.1816 -58.016205 
L 272.1816 -25.592311 
L 272.1816 -25.592311 
L 269.592073 -25.592311 
L 267.002545 -25.592311 
L 264.413018 -25.592311 
L 261.823491 -25.592311 
L 259.233964 -25.592311 
L 256.644436 -25.592311 
L 254.054909 -25.592311 
L 251.465382 -25.592311 
L 248.875855 -25.592311 
L 246.286327 -25.592311 
L 243.6968 -25.592311 
L 241.107273 -25.592311 
L 238.517745 -25.592311 
L 235.928218 -25.592311 
L 233.338691 -25.592311 
L 230.749164 -25.592311 
L 228.159636 -25.592311 
L 225.570109 -25.592311 
L 222.980582 -25.592311 
L 220.391055 -25.592311 
L 217.801527 -25.592311 
L 215.212 -25.592311 
L 212.622473 -25.592311 
L 210.032945 -25.592311 
L 207.443418 -25.592311 
L 204.853891 -25.592311 
L 202.264364 -25.592311 
L 199.674836 -25.592311 
L 197.085309 -25.592311 
L 194.495782 -25.592311 
L 191.906255 -25.592311 
L 189.316727 -25.592311 
L 186.7272 -25.592311 
L 184.137673 -25.592311 
L 181.548145 -25.592311 
L 178.958618 -25.592311 
L 176.369091 -25.592311 
L 173.779564 -25.592311 
L 171.190036 -25.592311 
L 168.600509 -25.592311 
L 166.010982 -25.592311 
L 163.421455 -25.592311 
L 160.831927 -25.592311 
L 158.2424 -25.592311 
L 155.652873 -25.592311 
L 153.063345 -25.592311 
L 150.473818 -25.592311 
L 147.884291 -25.592311 
L 145.294764 -25.592311 
L 142.705236 -25.592311 
L 140.115709 -25.592311 
L 137.526182 -25.592311 
L 134.936655 -25.592311 
L 132.347127 -25.592311 
L 129.7576 -25.592311 
L 127.168073 -25.592311 
L 124.578545 -25.592311 
L 121.989018 -25.592311 
L 119.399491 -25.592311 
L 116.809964 -25.592311 
L 114.220436 -25.592311 
L 111.630909 -25.592311 
L 109.041382 -25.592311 
L 106.451855 -25.592311 
L 103.862327 -25.592311 
L 101.2728 -25.592311 
L 98.683273 -25.592311 
L 96.093745 -25.592311 
L 93.504218 -25.592311 
L 90.914691 -25.592311 
L 88.325164 -25.592311 
L 85.735636 -25.592311 
L 83.146109 -25.592311 
L 80.556582 -25.592311 
L 77.967055 -25.592311 
L 75.377527 -25.592311 
L 72.788 -25.592311 
L 70.198473 -25.592311 
L 67.608945 -25.592311 
L 65.019418 -25.592311 
L 62.429891 -25.592311 
L 59.840364 -25.592311 
L 57.250836 -25.592311 
L 54.661309 -25.592311 
L 52.071782 -25.592311 
L 49.482255 -25.592311 
L 46.892727 -25.592311 
L 44.3032 -25.592311 
L 41.713673 -25.592311 
L 39.124145 -25.592311 
L 36.534618 -25.592311 
L 33.945091 -25.592311 
L 31.355564 -25.592311 
L 28.766036 -25.592311 
L 26.176509 -25.592311 
L 23.586982 -25.592311 
L 20.997455 -25.592311 
L 18.407927 -25.592311 
L 15.8184 -25.592311 
z
"/>
    </defs>
    <g clip-path="url(#p8e37a6fff7)">
     <use xlink:href="#m6974bf9fc4" x="0" y="432" style="fill: #761e58; fill-opacity: 0.4"/>
    </g>
   </g>
   <g id="FillBetweenPolyCollection_6">
    <defs>
     <path id="m4396a3b85f" d="M 15.8184 -25.592311 
L 15.8184 -25.721704 
L 18.407927 -25.775642 
L 20.997455 -25.849426 
L 23.586982 -25.949245 
L 26.176509 -26.082786 
L 28.766036 -26.259449 
L 31.355564 -26.490531 
L 33.945091 -26.789379 
L 36.534618 -27.171463 
L 39.124145 -27.654354 
L 41.713673 -28.257577 
L 44.3032 -29.002294 
L 46.892727 -29.910809 
L 49.482255 -31.005861 
L 52.071782 -32.309699 
L 54.661309 -33.84295 
L 57.250836 -35.623297 
L 59.840364 -37.664014 
L 62.429891 -39.972424 
L 65.019418 -42.548372 
L 67.608945 -45.382799 
L 70.198473 -48.456558 
L 72.788 -51.739571 
L 75.377527 -55.190446 
L 77.967055 -58.756653 
L 80.556582 -62.375323 
L 83.146109 -65.974707 
L 85.735636 -69.476264 
L 88.325164 -72.797341 
L 90.914691 -75.854303 
L 93.504218 -78.565972 
L 96.093745 -80.857181 
L 98.683273 -82.662221 
L 101.2728 -83.92797 
L 103.862327 -84.616483 
L 106.451855 -84.706886 
L 109.041382 -84.196426 
L 111.630909 -83.100612 
L 114.220436 -81.452427 
L 116.809964 -79.300685 
L 119.399491 -76.707627 
L 121.989018 -73.745935 
L 124.578545 -70.495354 
L 127.168073 -67.039153 
L 129.7576 -63.460628 
L 132.347127 -59.839854 
L 134.936655 -56.250869 
L 137.526182 -52.759388 
L 140.115709 -49.421154 
L 142.705236 -46.280949 
L 145.294764 -43.372227 
L 147.884291 -40.717346 
L 150.473818 -38.328278 
L 153.063345 -36.207711 
L 155.652873 -34.350407 
L 158.2424 -32.744712 
L 160.831927 -31.374109 
L 163.421455 -30.218708 
L 166.010982 -29.256616 
L 168.600509 -28.465137 
L 171.190036 -27.821752 
L 173.779564 -27.304893 
L 176.369091 -26.894505 
L 178.958618 -26.572408 
L 181.548145 -26.322493 
L 184.137673 -26.130781 
L 186.7272 -25.985374 
L 189.316727 -25.876319 
L 191.906255 -25.795438 
L 194.495782 -25.736116 
L 197.085309 -25.693085 
L 199.674836 -25.662214 
L 202.264364 -25.640307 
L 204.853891 -25.624931 
L 207.443418 -25.614256 
L 210.032945 -25.606925 
L 212.622473 -25.601944 
L 215.212 -25.598596 
L 217.801527 -25.59637 
L 220.391055 -25.594906 
L 222.980582 -25.593953 
L 225.570109 -25.59334 
L 228.159636 -25.592949 
L 230.749164 -25.592702 
L 233.338691 -25.592549 
L 235.928218 -25.592454 
L 238.517745 -25.592396 
L 241.107273 -25.592361 
L 243.6968 -25.59234 
L 246.286327 -25.592328 
L 248.875855 -25.592321 
L 251.465382 -25.592316 
L 254.054909 -25.592314 
L 256.644436 -25.592313 
L 259.233964 -25.592312 
L 261.823491 -25.592311 
L 264.413018 -25.592311 
L 267.002545 -25.592311 
L 269.592073 -25.592311 
L 272.1816 -25.592311 
L 272.1816 -25.592311 
L 272.1816 -25.592311 
L 269.592073 -25.592311 
L 267.002545 -25.592311 
L 264.413018 -25.592311 
L 261.823491 -25.592311 
L 259.233964 -25.592311 
L 256.644436 -25.592311 
L 254.054909 -25.592311 
L 251.465382 -25.592311 
L 248.875855 -25.592311 
L 246.286327 -25.592311 
L 243.6968 -25.592311 
L 241.107273 -25.592311 
L 238.517745 -25.592311 
L 235.928218 -25.592311 
L 233.338691 -25.592311 
L 230.749164 -25.592311 
L 228.159636 -25.592311 
L 225.570109 -25.592311 
L 222.980582 -25.592311 
L 220.391055 -25.592311 
L 217.801527 -25.592311 
L 215.212 -25.592311 
L 212.622473 -25.592311 
L 210.032945 -25.592311 
L 207.443418 -25.592311 
L 204.853891 -25.592311 
L 202.264364 -25.592311 
L 199.674836 -25.592311 
L 197.085309 -25.592311 
L 194.495782 -25.592311 
L 191.906255 -25.592311 
L 189.316727 -25.592311 
L 186.7272 -25.592311 
L 184.137673 -25.592311 
L 181.548145 -25.592311 
L 178.958618 -25.592311 
L 176.369091 -25.592311 
L 173.779564 -25.592311 
L 171.190036 -25.592311 
L 168.600509 -25.592311 
L 166.010982 -25.592311 
L 163.421455 -25.592311 
L 160.831927 -25.592311 
L 158.2424 -25.592311 
L 155.652873 -25.592311 
L 153.063345 -25.592311 
L 150.473818 -25.592311 
L 147.884291 -25.592311 
L 145.294764 -25.592311 
L 142.705236 -25.592311 
L 140.115709 -25.592311 
L 137.526182 -25.592311 
L 134.936655 -25.592311 
L 132.347127 -25.592311 
L 129.7576 -25.592311 
L 127.168073 -25.592311 
L 124.578545 -25.592311 
L 121.989018 -25.592311 
L 119.399491 -25.592311 
L 116.809964 -25.592311 
L 114.220436 -25.592311 
L 111.630909 -25.592311 
L 109.041382 -25.592311 
L 106.451855 -25.592311 
L 103.862327 -25.592311 
L 101.2728 -25.592311 
L 98.683273 -25.592311 
L 96.093745 -25.592311 
L 93.504218 -25.592311 
L 90.914691 -25.592311 
L 88.325164 -25.592311 
L 85.735636 -25.592311 
L 83.146109 -25.592311 
L 80.556582 -25.592311 
L 77.967055 -25.592311 
L 75.377527 -25.592311 
L 72.788 -25.592311 
L 70.198473 -25.592311 
L 67.608945 -25.592311 
L 65.019418 -25.592311 
L 62.429891 -25.592311 
L 59.840364 -25.592311 
L 57.250836 -25.592311 
L 54.661309 -25.592311 
L 52.071782 -25.592311 
L 49.482255 -25.592311 
L 46.892727 -25.592311 
L 44.3032 -25.592311 
L 41.713673 -25.592311 
L 39.124145 -25.592311 
L 36.534618 -25.592311 
L 33.945091 -25.592311 
L 31.355564 -25.592311 
L 28.766036 -25.592311 
L 26.176509 -25.592311 
L 23.586982 -25.592311 
L 20.997455 -25.592311 
L 18.407927 -25.592311 
L 15.8184 -25.592311 
z
" style="stroke: #234c80; stroke-opacity: 0.4; stroke-width: 0.3"/>
    </defs>
    <g clip-path="url(#p8e37a6fff7)">
     <use xlink:href="#m4396a3b85f" x="0" y="432" style="fill: #234c80; fill-opacity: 0.4; stroke: #234c80; stroke-opacity: 0.4; stroke-width: 0.3"/>
    </g>
   </g>
   <g id="matplotlib.axis_3">
    <g id="xtick_11">
     <g id="line2d_15">
      <g>
       <use xlink:href="#m4bef00bb4c" x="41.45472" y="412.321635" style="stroke: #000000; stroke-width: 0.8"/>
      </g>
     </g>
     <g id="text_1">
      <!-- −4 -->
      <g transform="translate(34.083626 426.920073) scale(0.1 -0.1)">
       <defs>
        <path id="DejaVuSans-2212" d="M 678 2272 
L 4684 2272 
L 4684 1741 
L 678 1741 
L 678 2272 
z
" transform="scale(0.015625)"/>
        <path id="DejaVuSans-34" d="M 2419 4116 
L 825 1625 
L 2419 1625 
L 2419 4116 
z
M 2253 4666 
L 3047 4666 
L 3047 1625 
L 3713 1625 
L 3713 1100 
L 3047 1100 
L 3047 0 
L 2419 0 
L 2419 1100 
L 313 1100 
L 313 1709 
L 2253 4666 
z
" transform="scale(0.015625)"/>
       </defs>
       <use xlink:href="#DejaVuSans-2212"/>
       <use xlink:href="#DejaVuSans-34" transform="translate(83.789062 0)"/>
      </g>
     </g>
    </g>
    <g id="xtick_12">
     <g id="line2d_16">
      <g>
       <use xlink:href="#m4bef00bb4c" x="92.72736" y="412.321635" style="stroke: #000000; stroke-width: 0.8"/>
      </g>
     </g>
     <g id="text_2">
      <!-- −2 -->
      <g transform="translate(85.356266 426.920073) scale(0.1 -0.1)">
       <defs>
        <path id="DejaVuSans-32" d="M 1228 531 
L 3431 531 
L 3431 0 
L 469 0 
L 469 531 
Q 828 903 1448 1529 
Q 2069 2156 2228 2338 
Q 2531 2678 2651 2914 
Q 2772 3150 2772 3378 
Q 2772 3750 2511 3984 
Q 2250 4219 1831 4219 
Q 1534 4219 1204 4116 
Q 875 4013 500 3803 
L 500 4441 
Q 881 4594 1212 4672 
Q 1544 4750 1819 4750 
Q 2544 4750 2975 4387 
Q 3406 4025 3406 3419 
Q 3406 3131 3298 2873 
Q 3191 2616 2906 2266 
Q 2828 2175 2409 1742 
Q 1991 1309 1228 531 
z
" transform="scale(0.015625)"/>
       </defs>
       <use xlink:href="#DejaVuSans-2212"/>
       <use xlink:href="#DejaVuSans-32" transform="translate(83.789062 0)"/>
      </g>
     </g>
    </g>
    <g id="xtick_13">
     <g id="line2d_17">
      <g>
       <use xlink:href="#m4bef00bb4c" x="144" y="412.321635" style="stroke: #000000; stroke-width: 0.8"/>
      </g>
     </g>
     <g id="text_3">
      <!-- 0 -->
      <g transform="translate(140.81875 426.920073) scale(0.1 -0.1)">
       <defs>
        <path id="DejaVuSans-30" d="M 2034 4250 
Q 1547 4250 1301 3770 
Q 1056 3291 1056 2328 
Q 1056 1369 1301 889 
Q 1547 409 2034 409 
Q 2525 409 2770 889 
Q 3016 1369 3016 2328 
Q 3016 3291 2770 3770 
Q 2525 4250 2034 4250 
z
M 2034 4750 
Q 2819 4750 3233 4129 
Q 3647 3509 3647 2328 
Q 3647 1150 3233 529 
Q 2819 -91 2034 -91 
Q 1250 -91 836 529 
Q 422 1150 422 2328 
Q 422 3509 836 4129 
Q 1250 4750 2034 4750 
z
" transform="scale(0.015625)"/>
       </defs>
       <use xlink:href="#DejaVuSans-30"/>
      </g>
     </g>
    </g>
    <g id="xtick_14">
     <g id="line2d_18">
      <g>
       <use xlink:href="#m4bef00bb4c" x="195.27264" y="412.321635" style="stroke: #000000; stroke-width: 0.8"/>
      </g>
     </g>
     <g id="text_4">
      <!-- 2 -->
      <g transform="translate(192.09139 426.920073) scale(0.1 -0.1)">
       <use xlink:href="#DejaVuSans-32"/>
      </g>
     </g>
    </g>
    <g id="xtick_15">
     <g id="line2d_19">
      <g>
       <use xlink:href="#m4bef00bb4c" x="246.54528" y="412.321635" style="stroke: #000000; stroke-width: 0.8"/>
      </g>
     </g>
     <g id="text_5">
      <!-- 4 -->
      <g transform="translate(243.36403 426.920073) scale(0.1 -0.1)">
       <use xlink:href="#DejaVuSans-34"/>
      </g>
     </g>
    </g>
   </g>
   <g id="line2d_20">
    <path d="M 15.8184 406.407689 
L 18.407927 406.407689 
L 20.997455 406.407689 
L 23.586982 406.407689 
L 26.176509 406.407689 
L 28.766036 406.407689 
L 31.355564 406.407689 
L 33.945091 406.407689 
L 36.534618 406.407689 
L 39.124145 406.407689 
L 41.713673 406.407689 
L 44.3032 406.407689 
L 46.892727 406.407689 
L 49.482255 406.407689 
L 52.071782 406.407689 
L 54.661309 406.407689 
L 57.250836 406.407689 
L 59.840364 406.407689 
L 62.429891 406.407689 
L 65.019418 406.407689 
L 67.608945 406.407689 
L 70.198473 406.407689 
L 72.788 406.407689 
L 75.377527 406.407689 
L 77.967055 406.407689 
L 80.556582 406.407689 
L 83.146109 406.407689 
L 85.735636 406.407689 
L 88.325164 406.407689 
L 90.914691 406.407689 
L 93.504218 406.407689 
L 96.093745 406.407689 
L 98.683273 406.407689 
L 101.2728 406.407689 
L 103.862327 406.407689 
L 106.451855 406.407689 
L 109.041382 406.407689 
L 111.630909 406.407689 
L 114.220436 406.407689 
L 116.809964 406.407689 
L 119.399491 406.407689 
L 121.989018 406.407689 
L 124.578545 406.407689 
L 127.168073 406.407689 
L 129.7576 406.407688 
L 132.347127 406.407687 
L 134.936655 406.407685 
L 137.526182 406.407681 
L 140.115709 406.407671 
L 142.705236 406.407652 
L 145.294764 406.407614 
L 147.884291 406.407538 
L 150.473818 406.40739 
L 153.063345 406.407108 
L 155.652873 406.406582 
L 158.2424 406.405615 
L 160.831927 406.403874 
L 163.421455 406.400797 
L 166.010982 406.395463 
L 168.600509 406.386391 
L 171.190036 406.371255 
L 173.779564 406.346481 
L 176.369091 406.306711 
L 178.958618 406.244094 
L 181.548145 406.147412 
L 184.137673 406.001036 
L 186.7272 405.783762 
L 189.316727 405.467605 
L 191.906255 405.016706 
L 194.495782 404.386535 
L 197.085309 403.523661 
L 199.674836 402.366381 
L 202.264364 400.84651 
L 204.853891 398.892597 
L 207.443418 396.434727 
L 210.032945 393.410889 
L 212.622473 389.774666 
L 215.212 385.503739 
L 217.801527 380.608385 
L 220.391055 375.138972 
L 222.980582 369.19127 
L 225.570109 362.908461 
L 228.159636 356.478908 
L 230.749164 350.12915 
L 233.338691 344.112125 
L 235.928218 338.691288 
L 238.517745 334.121877 
L 241.107273 330.63116 
L 243.6968 328.399752 
L 246.286327 327.546136 
L 248.875855 328.116245 
L 251.465382 330.079365 
L 254.054909 333.330876 
L 256.644436 337.701491 
L 259.233964 342.971852 
L 261.823491 348.890734 
L 264.413018 355.194769 
L 267.002545 361.627529 
L 269.592073 367.95611 
L 272.1816 373.983795 
" clip-path="url(#p8e37a6fff7)" style="fill: none; stroke: #000000; stroke-width: 0.6; stroke-linecap: square"/>
   </g>
   <g id="line2d_21">
    <path d="M 15.8184 406.278296 
L 18.407927 406.224358 
L 20.997455 406.150574 
L 23.586982 406.050755 
L 26.176509 405.917214 
L 28.766036 405.740551 
L 31.355564 405.509469 
L 33.945091 405.210621 
L 36.534618 404.828537 
L 39.124145 404.345646 
L 41.713673 403.742423 
L 44.3032 402.997706 
L 46.892727 402.089191 
L 49.482255 400.994139 
L 52.071782 399.690301 
L 54.661309 398.15705 
L 57.250836 396.376703 
L 59.840364 394.335986 
L 62.429891 392.027576 
L 65.019418 389.451628 
L 67.608945 386.617201 
L 70.198473 383.543442 
L 72.788 380.260429 
L 75.377527 376.809554 
L 77.967055 373.243347 
L 80.556582 369.624677 
L 83.146109 366.025293 
L 85.735636 362.523736 
L 88.325164 359.202659 
L 90.914691 356.145697 
L 93.504218 353.434028 
L 96.093745 351.142819 
L 98.683273 349.337779 
L 101.2728 348.07203 
L 103.862327 347.383517 
L 106.451855 347.293114 
L 109.041382 347.803574 
L 111.630909 348.899388 
L 114.220436 350.547573 
L 116.809964 352.699315 
L 119.399491 355.292373 
L 121.989018 358.254065 
L 124.578545 361.504646 
L 127.168073 364.960847 
L 129.7576 368.539372 
L 132.347127 372.160146 
L 134.936655 375.749131 
L 137.526182 379.240612 
L 140.115709 382.578846 
L 142.705236 385.719051 
L 145.294764 388.627773 
L 147.884291 391.282654 
L 150.473818 393.671722 
L 153.063345 395.792289 
L 155.652873 397.649593 
L 158.2424 399.255288 
L 160.831927 400.625891 
L 163.421455 401.781292 
L 166.010982 402.743384 
L 168.600509 403.534863 
L 171.190036 404.178248 
L 173.779564 404.695107 
L 176.369091 405.105495 
L 178.958618 405.427592 
L 181.548145 405.677507 
L 184.137673 405.869219 
L 186.7272 406.014626 
L 189.316727 406.123681 
L 191.906255 406.204562 
L 194.495782 406.263884 
L 197.085309 406.306915 
L 199.674836 406.337786 
L 202.264364 406.359693 
L 204.853891 406.375069 
L 207.443418 406.385744 
L 210.032945 406.393075 
L 212.622473 406.398056 
L 215.212 406.401404 
L 217.801527 406.40363 
L 220.391055 406.405094 
L 222.980582 406.406047 
L 225.570109 406.40666 
L 228.159636 406.407051 
L 230.749164 406.407298 
L 233.338691 406.407451 
L 235.928218 406.407546 
L 238.517745 406.407604 
L 241.107273 406.407639 
L 243.6968 406.40766 
L 246.286327 406.407672 
L 248.875855 406.407679 
L 251.465382 406.407684 
L 254.054909 406.407686 
L 256.644436 406.407687 
L 259.233964 406.407688 
L 261.823491 406.407689 
L 264.413018 406.407689 
L 267.002545 406.407689 
L 269.592073 406.407689 
L 272.1816 406.407689 
" clip-path="url(#p8e37a6fff7)" style="fill: none; stroke: #000000; stroke-width: 0.6; stroke-linecap: square"/>
   </g>
   <g id="patch_7">
    <path d="M 3.00024 412.321635 
L 284.99976 412.321635 
" style="fill: none; stroke: #000000; stroke-width: 0.8; stroke-linejoin: miter; stroke-linecap: square"/>
   </g>
  </g>
 </g>
 <defs>
  <clipPath id="pa48882b734">
   <rect x="3.00024" y="3.00024" width="281.99952" height="130.106812"/>
  </clipPath>
  <clipPath id="p0a76b60efc">
   <rect x="3.00024" y="142.607532" width="281.99952" height="130.106812"/>
  </clipPath>
  <clipPath id="p8e37a6fff7">
   <rect x="3.00024" y="282.214823" width="281.99952" height="130.106812"/>
  </clipPath>
 </defs>
</svg>
