<?xml version="1.0" encoding="utf-8" standalone="no"?>
<!DOCTYPE svg PUBLIC "-//W3C//DTD SVG 1.1//EN"
  "http://www.w3.org/Graphics/SVG/1.1/DTD/svg11.dtd">
<svg xmlns:xlink="http://www.w3.org/1999/xlink" width="216pt" height="360pt" viewBox="0 0 216 360" xmlns="http://www.w3.org/2000/svg" version="1.1">
 <metadata>
  <rdf:RDF xmlns:dc="http://purl.org/dc/elements/1.1/" xmlns:cc="http://creativecommons.org/ns#" xmlns:rdf="http://www.w3.org/1999/02/22-rdf-syntax-ns#">
   <cc:Work>
    <dc:type rdf:resource="http://purl.org/dc/dcmitype/StillImage"/>
    <dc:date>2025-08-04T10:34:07.118452</dc:date>
    <dc:format>image/svg+xml</dc:format>
    <dc:creator>
     <cc:Agent>
      <dc:title>Matplotlib v3.10.3, https://matplotlib.org/</dc:title>
     </cc:Agent>
    </dc:creator>
   </cc:Work>
  </rdf:RDF>
 </metadata>
 <defs>
  <style type="text/css">*{stroke-linejoin: round; stroke-linecap: butt}</style>
 </defs>
 <g id="figure_1">
  <g id="patch_1">
   <path d="M 0 360 
L 216 360 
L 216 0 
L 0 0 
z
" style="fill: #ffffff"/>
  </g>
  <g id="axes_1">
   <g id="patch_2">
    <path d="M 3.00024 109.107052 
L 212.99976 109.107052 
L 212.99976 3.00024 
L 3.00024 3.00024 
z
" style="fill: #ffffff"/>
   </g>
   <g id="FillBetweenPolyCollection_1">
    <defs>
     <path id="m02ec7924e4" d="M 12.545673 -255.715985 
L 12.545673 -255.715985 
L 14.435857 -255.715985 
L 16.326042 -255.715985 
L 18.216227 -255.715985 
L 20.106412 -255.715985 
L 21.996596 -255.715985 
L 23.886781 -255.715985 
L 25.776966 -255.715985 
L 27.66715 -255.715985 
L 29.557335 -255.715985 
L 31.44752 -255.715985 
L 33.337704 -255.715985 
L 35.227889 -255.715985 
L 37.118074 -255.715985 
L 39.008259 -255.715985 
L 40.898443 -255.715985 
L 42.788628 -255.715985 
L 44.678813 -255.715985 
L 46.568997 -255.715985 
L 48.459182 -255.715985 
L 50.349367 -255.715985 
L 52.239551 -255.715985 
L 54.129736 -255.715985 
L 56.019921 -255.715985 
L 57.910105 -255.715985 
L 59.80029 -255.715985 
L 61.690475 -255.715985 
L 63.58066 -255.715985 
L 65.470844 -255.715985 
L 67.361029 -255.715985 
L 69.251214 -255.715985 
L 71.141398 -255.715985 
L 73.031583 -255.715985 
L 74.921768 -255.715985 
L 76.811952 -255.715985 
L 78.702137 -255.715985 
L 80.592322 -255.715985 
L 82.482507 -255.715985 
L 84.372691 -255.715985 
L 86.262876 -255.715985 
L 88.153061 -255.715985 
L 90.043245 -255.715985 
L 91.93343 -255.715985 
L 93.823615 -255.715985 
L 95.713799 -255.715985 
L 97.603984 -255.715985 
L 99.494169 -255.715985 
L 101.384354 -255.715985 
L 103.274538 -255.715985 
L 105.164723 -255.715985 
L 107.054908 -255.715985 
L 108.945092 -255.715985 
L 110.835277 -255.715985 
L 112.725462 -255.715985 
L 114.615646 -255.715985 
L 116.505831 -255.715985 
L 118.396016 -255.715985 
L 120.286201 -255.715985 
L 122.176385 -255.715986 
L 124.06657 -255.715987 
L 125.956755 -255.715992 
L 127.846939 -255.716011 
L 129.737124 -255.716076 
L 131.627309 -255.716295 
L 133.517493 -255.716981 
L 135.407678 -255.719008 
L 137.297863 -255.724658 
L 139.188048 -255.739502 
L 141.078232 -255.776253 
L 142.968417 -255.861957 
L 144.858602 -256.050127 
L 146.748786 -256.438873 
L 148.638971 -257.194033 
L 150.529156 -258.572154 
L 152.41934 -260.932216 
L 154.309525 -264.719399 
L 156.19971 -270.403057 
L 158.089895 -278.359339 
L 159.980079 -288.709139 
L 161.870264 -301.150348 
L 163.760449 -314.847988 
L 165.650633 -328.45012 
L 167.540818 -340.269469 
L 169.431003 -348.61311 
L 171.321187 -352.176723 
L 173.211372 -350.378149 
L 175.101557 -343.513013 
L 176.991741 -332.675219 
L 178.881926 -319.471712 
L 180.772111 -305.633759 
L 182.662296 -292.653592 
L 184.55248 -281.548092 
L 186.442665 -272.789717 
L 188.33285 -266.381323 
L 190.223034 -262.012472 
L 192.113219 -259.229158 
L 194.003404 -257.568571 
L 195.893588 -256.639268 
L 197.783773 -256.150864 
L 199.673958 -255.909574 
L 201.564143 -255.797431 
L 203.454327 -255.74837 
L 203.454327 -255.715985 
L 203.454327 -255.715985 
L 201.564143 -255.715985 
L 199.673958 -255.715985 
L 197.783773 -255.715985 
L 195.893588 -255.715985 
L 194.003404 -255.715985 
L 192.113219 -255.715985 
L 190.223034 -255.715985 
L 188.33285 -255.715985 
L 186.442665 -255.715985 
L 184.55248 -255.715985 
L 182.662296 -255.715985 
L 180.772111 -255.715985 
L 178.881926 -255.715985 
L 176.991741 -255.715985 
L 175.101557 -255.715985 
L 173.211372 -255.715985 
L 171.321187 -255.715985 
L 169.431003 -255.715985 
L 167.540818 -255.715985 
L 165.650633 -255.715985 
L 163.760449 -255.715985 
L 161.870264 -255.715985 
L 159.980079 -255.715985 
L 158.089895 -255.715985 
L 156.19971 -255.715985 
L 154.309525 -255.715985 
L 152.41934 -255.715985 
L 150.529156 -255.715985 
L 148.638971 -255.715985 
L 146.748786 -255.715985 
L 144.858602 -255.715985 
L 142.968417 -255.715985 
L 141.078232 -255.715985 
L 139.188048 -255.715985 
L 137.297863 -255.715985 
L 135.407678 -255.715985 
L 133.517493 -255.715985 
L 131.627309 -255.715985 
L 129.737124 -255.715985 
L 127.846939 -255.715985 
L 125.956755 -255.715985 
L 124.06657 -255.715985 
L 122.176385 -255.715985 
L 120.286201 -255.715985 
L 118.396016 -255.715985 
L 116.505831 -255.715985 
L 114.615646 -255.715985 
L 112.725462 -255.715985 
L 110.835277 -255.715985 
L 108.945092 -255.715985 
L 107.054908 -255.715985 
L 105.164723 -255.715985 
L 103.274538 -255.715985 
L 101.384354 -255.715985 
L 99.494169 -255.715985 
L 97.603984 -255.715985 
L 95.713799 -255.715985 
L 93.823615 -255.715985 
L 91.93343 -255.715985 
L 90.043245 -255.715985 
L 88.153061 -255.715985 
L 86.262876 -255.715985 
L 84.372691 -255.715985 
L 82.482507 -255.715985 
L 80.592322 -255.715985 
L 78.702137 -255.715985 
L 76.811952 -255.715985 
L 74.921768 -255.715985 
L 73.031583 -255.715985 
L 71.141398 -255.715985 
L 69.251214 -255.715985 
L 67.361029 -255.715985 
L 65.470844 -255.715985 
L 63.58066 -255.715985 
L 61.690475 -255.715985 
L 59.80029 -255.715985 
L 57.910105 -255.715985 
L 56.019921 -255.715985 
L 54.129736 -255.715985 
L 52.239551 -255.715985 
L 50.349367 -255.715985 
L 48.459182 -255.715985 
L 46.568997 -255.715985 
L 44.678813 -255.715985 
L 42.788628 -255.715985 
L 40.898443 -255.715985 
L 39.008259 -255.715985 
L 37.118074 -255.715985 
L 35.227889 -255.715985 
L 33.337704 -255.715985 
L 31.44752 -255.715985 
L 29.557335 -255.715985 
L 27.66715 -255.715985 
L 25.776966 -255.715985 
L 23.886781 -255.715985 
L 21.996596 -255.715985 
L 20.106412 -255.715985 
L 18.216227 -255.715985 
L 16.326042 -255.715985 
L 14.435857 -255.715985 
L 12.545673 -255.715985 
z
"/>
    </defs>
    <g clip-path="url(#p6a312305cf)">
     <use xlink:href="#m02ec7924e4" x="0" y="360" style="fill: #761e58; fill-opacity: 0.4"/>
    </g>
   </g>
   <g id="FillBetweenPolyCollection_2">
    <defs>
     <path id="mccc9ad8c47" d="M 12.545673 -255.715985 
L 12.545673 -255.715985 
L 14.435857 -255.715985 
L 16.326042 -255.715985 
L 18.216227 -255.715985 
L 20.106412 -255.715985 
L 21.996596 -255.715985 
L 23.886781 -255.715985 
L 25.776966 -255.715985 
L 27.66715 -255.715985 
L 29.557335 -255.715985 
L 31.44752 -255.715985 
L 33.337704 -255.715985 
L 35.227889 -255.715985 
L 37.118074 -255.715985 
L 39.008259 -255.715985 
L 40.898443 -255.715985 
L 42.788628 -255.715985 
L 44.678813 -255.715985 
L 46.568997 -255.715985 
L 48.459182 -255.715985 
L 50.349367 -255.715985 
L 52.239551 -255.715985 
L 54.129736 -255.715985 
L 56.019921 -255.715985 
L 57.910105 -255.715986 
L 59.80029 -255.715986 
L 61.690475 -255.715986 
L 63.58066 -255.715988 
L 65.470844 -255.71599 
L 67.361029 -255.715995 
L 69.251214 -255.716004 
L 71.141398 -255.71602 
L 73.031583 -255.716051 
L 74.921768 -255.716106 
L 76.811952 -255.716204 
L 78.702137 -255.716377 
L 80.592322 -255.716678 
L 82.482507 -255.71719 
L 84.372691 -255.718053 
L 86.262876 -255.719483 
L 88.153061 -255.72182 
L 90.043245 -255.725582 
L 91.93343 -255.731548 
L 93.823615 -255.74087 
L 95.713799 -255.755217 
L 97.603984 -255.77697 
L 99.494169 -255.809455 
L 101.384354 -255.857237 
L 103.274538 -255.926452 
L 105.164723 -256.025187 
L 107.054908 -256.163875 
L 108.945092 -256.355674 
L 110.835277 -256.616801 
L 112.725462 -256.966742 
L 114.615646 -257.428282 
L 116.505831 -258.027276 
L 118.396016 -258.792079 
L 120.286201 -259.752569 
L 122.176385 -260.938717 
L 124.06657 -262.378694 
L 125.956755 -264.09655 
L 127.846939 -266.109566 
L 129.737124 -268.425426 
L 131.627309 -271.039455 
L 133.517493 -273.932158 
L 135.407678 -277.067396 
L 137.297863 -280.391452 
L 139.188048 -283.833282 
L 141.078232 -287.306095 
L 142.968417 -290.710349 
L 144.858602 -293.938076 
L 146.748786 -296.878336 
L 148.638971 -299.423417 
L 150.529156 -301.475329 
L 152.41934 -302.952046 
L 154.309525 -303.792939 
L 156.19971 -303.962905 
L 158.089895 -303.4548 
L 159.980079 -302.289933 
L 161.870264 -300.516589 
L 163.760449 -298.206702 
L 165.650633 -295.451023 
L 167.540818 -292.353212 
L 169.431003 -289.023401 
L 171.321187 -285.571783 
L 173.211372 -282.102729 
L 175.101557 -278.709867 
L 176.991741 -275.472402 
L 178.881926 -272.452825 
L 180.772111 -269.696015 
L 182.662296 -267.229612 
L 184.55248 -265.065425 
L 186.442665 -263.201616 
L 188.33285 -261.625347 
L 190.223034 -260.315607 
L 192.113219 -259.245972 
L 194.003404 -258.387106 
L 195.893588 -257.708875 
L 197.783773 -257.182013 
L 199.673958 -256.779322 
L 201.564143 -256.476432 
L 203.454327 -256.252197 
L 203.454327 -255.715985 
L 203.454327 -255.715985 
L 201.564143 -255.715985 
L 199.673958 -255.715985 
L 197.783773 -255.715985 
L 195.893588 -255.715985 
L 194.003404 -255.715985 
L 192.113219 -255.715985 
L 190.223034 -255.715985 
L 188.33285 -255.715985 
L 186.442665 -255.715985 
L 184.55248 -255.715985 
L 182.662296 -255.715985 
L 180.772111 -255.715985 
L 178.881926 -255.715985 
L 176.991741 -255.715985 
L 175.101557 -255.715985 
L 173.211372 -255.715985 
L 171.321187 -255.715985 
L 169.431003 -255.715985 
L 167.540818 -255.715985 
L 165.650633 -255.715985 
L 163.760449 -255.715985 
L 161.870264 -255.715985 
L 159.980079 -255.715985 
L 158.089895 -255.715985 
L 156.19971 -255.715985 
L 154.309525 -255.715985 
L 152.41934 -255.715985 
L 150.529156 -255.715985 
L 148.638971 -255.715985 
L 146.748786 -255.715985 
L 144.858602 -255.715985 
L 142.968417 -255.715985 
L 141.078232 -255.715985 
L 139.188048 -255.715985 
L 137.297863 -255.715985 
L 135.407678 -255.715985 
L 133.517493 -255.715985 
L 131.627309 -255.715985 
L 129.737124 -255.715985 
L 127.846939 -255.715985 
L 125.956755 -255.715985 
L 124.06657 -255.715985 
L 122.176385 -255.715985 
L 120.286201 -255.715985 
L 118.396016 -255.715985 
L 116.505831 -255.715985 
L 114.615646 -255.715985 
L 112.725462 -255.715985 
L 110.835277 -255.715985 
L 108.945092 -255.715985 
L 107.054908 -255.715985 
L 105.164723 -255.715985 
L 103.274538 -255.715985 
L 101.384354 -255.715985 
L 99.494169 -255.715985 
L 97.603984 -255.715985 
L 95.713799 -255.715985 
L 93.823615 -255.715985 
L 91.93343 -255.715985 
L 90.043245 -255.715985 
L 88.153061 -255.715985 
L 86.262876 -255.715985 
L 84.372691 -255.715985 
L 82.482507 -255.715985 
L 80.592322 -255.715985 
L 78.702137 -255.715985 
L 76.811952 -255.715985 
L 74.921768 -255.715985 
L 73.031583 -255.715985 
L 71.141398 -255.715985 
L 69.251214 -255.715985 
L 67.361029 -255.715985 
L 65.470844 -255.715985 
L 63.58066 -255.715985 
L 61.690475 -255.715985 
L 59.80029 -255.715985 
L 57.910105 -255.715985 
L 56.019921 -255.715985 
L 54.129736 -255.715985 
L 52.239551 -255.715985 
L 50.349367 -255.715985 
L 48.459182 -255.715985 
L 46.568997 -255.715985 
L 44.678813 -255.715985 
L 42.788628 -255.715985 
L 40.898443 -255.715985 
L 39.008259 -255.715985 
L 37.118074 -255.715985 
L 35.227889 -255.715985 
L 33.337704 -255.715985 
L 31.44752 -255.715985 
L 29.557335 -255.715985 
L 27.66715 -255.715985 
L 25.776966 -255.715985 
L 23.886781 -255.715985 
L 21.996596 -255.715985 
L 20.106412 -255.715985 
L 18.216227 -255.715985 
L 16.326042 -255.715985 
L 14.435857 -255.715985 
L 12.545673 -255.715985 
z
" style="stroke: #234c80; stroke-opacity: 0.4; stroke-width: 0.3"/>
    </defs>
    <g clip-path="url(#p6a312305cf)">
     <use xlink:href="#mccc9ad8c47" x="0" y="360" style="fill: #234c80; fill-opacity: 0.4; stroke: #234c80; stroke-opacity: 0.4; stroke-width: 0.3"/>
    </g>
   </g>
   <g id="matplotlib.axis_1">
    <g id="xtick_1">
     <g id="line2d_1">
      <defs>
       <path id="m62e7f10b5e" d="M 0 0 
L 0 3.5 
" style="stroke: #000000; stroke-width: 0.8"/>
      </defs>
      <g>
       <use xlink:href="#m62e7f10b5e" x="28.454727" y="109.107052" style="stroke: #000000; stroke-width: 0.8"/>
      </g>
     </g>
    </g>
    <g id="xtick_2">
     <g id="line2d_2">
      <g>
       <use xlink:href="#m62e7f10b5e" x="68.227364" y="109.107052" style="stroke: #000000; stroke-width: 0.8"/>
      </g>
     </g>
    </g>
    <g id="xtick_3">
     <g id="line2d_3">
      <g>
       <use xlink:href="#m62e7f10b5e" x="108" y="109.107052" style="stroke: #000000; stroke-width: 0.8"/>
      </g>
     </g>
    </g>
    <g id="xtick_4">
     <g id="line2d_4">
      <g>
       <use xlink:href="#m62e7f10b5e" x="147.772636" y="109.107052" style="stroke: #000000; stroke-width: 0.8"/>
      </g>
     </g>
    </g>
    <g id="xtick_5">
     <g id="line2d_5">
      <g>
       <use xlink:href="#m62e7f10b5e" x="187.545273" y="109.107052" style="stroke: #000000; stroke-width: 0.8"/>
      </g>
     </g>
    </g>
   </g>
   <g id="line2d_6">
    <path d="M 12.545673 104.284015 
L 14.435857 104.284015 
L 16.326042 104.284015 
L 18.216227 104.284015 
L 20.106412 104.284015 
L 21.996596 104.284015 
L 23.886781 104.284015 
L 25.776966 104.284015 
L 27.66715 104.284015 
L 29.557335 104.284015 
L 31.44752 104.284015 
L 33.337704 104.284015 
L 35.227889 104.284015 
L 37.118074 104.284015 
L 39.008259 104.284015 
L 40.898443 104.284015 
L 42.788628 104.284015 
L 44.678813 104.284015 
L 46.568997 104.284015 
L 48.459182 104.284015 
L 50.349367 104.284015 
L 52.239551 104.284015 
L 54.129736 104.284015 
L 56.019921 104.284015 
L 57.910105 104.284015 
L 59.80029 104.284015 
L 61.690475 104.284015 
L 63.58066 104.284015 
L 65.470844 104.284015 
L 67.361029 104.284015 
L 69.251214 104.284015 
L 71.141398 104.284015 
L 73.031583 104.284015 
L 74.921768 104.284015 
L 76.811952 104.284015 
L 78.702137 104.284015 
L 80.592322 104.284015 
L 82.482507 104.284015 
L 84.372691 104.284015 
L 86.262876 104.284015 
L 88.153061 104.284015 
L 90.043245 104.284015 
L 91.93343 104.284015 
L 93.823615 104.284015 
L 95.713799 104.284015 
L 97.603984 104.284015 
L 99.494169 104.284015 
L 101.384354 104.284015 
L 103.274538 104.284015 
L 105.164723 104.284015 
L 107.054908 104.284015 
L 108.945092 104.284015 
L 110.835277 104.284015 
L 112.725462 104.284015 
L 114.615646 104.284015 
L 116.505831 104.284015 
L 118.396016 104.284015 
L 120.286201 104.284015 
L 122.176385 104.284014 
L 124.06657 104.284013 
L 125.956755 104.284008 
L 127.846939 104.283989 
L 129.737124 104.283924 
L 131.627309 104.283705 
L 133.517493 104.283019 
L 135.407678 104.280992 
L 137.297863 104.275342 
L 139.188048 104.260498 
L 141.078232 104.223747 
L 142.968417 104.138043 
L 144.858602 103.949873 
L 146.748786 103.561127 
L 148.638971 102.805967 
L 150.529156 101.427846 
L 152.41934 99.067784 
L 154.309525 95.280601 
L 156.19971 89.596943 
L 158.089895 81.640661 
L 159.980079 71.290861 
L 161.870264 58.849652 
L 163.760449 45.152012 
L 165.650633 31.54988 
L 167.540818 19.730531 
L 169.431003 11.38689 
L 171.321187 7.823277 
L 173.211372 9.621851 
L 175.101557 16.486987 
L 176.991741 27.324781 
L 178.881926 40.528288 
L 180.772111 54.366241 
L 182.662296 67.346408 
L 184.55248 78.451908 
L 186.442665 87.210283 
L 188.33285 93.618677 
L 190.223034 97.987528 
L 192.113219 100.770842 
L 194.003404 102.431429 
L 195.893588 103.360732 
L 197.783773 103.849136 
L 199.673958 104.090426 
L 201.564143 104.202569 
L 203.454327 104.25163 
" clip-path="url(#p6a312305cf)" style="fill: none; stroke: #000000; stroke-width: 0.6; stroke-linecap: square"/>
   </g>
   <g id="line2d_7">
    <path d="M 12.545673 104.284015 
L 14.435857 104.284015 
L 16.326042 104.284015 
L 18.216227 104.284015 
L 20.106412 104.284015 
L 21.996596 104.284015 
L 23.886781 104.284015 
L 25.776966 104.284015 
L 27.66715 104.284015 
L 29.557335 104.284015 
L 31.44752 104.284015 
L 33.337704 104.284015 
L 35.227889 104.284015 
L 37.118074 104.284015 
L 39.008259 104.284015 
L 40.898443 104.284015 
L 42.788628 104.284015 
L 44.678813 104.284015 
L 46.568997 104.284015 
L 48.459182 104.284015 
L 50.349367 104.284015 
L 52.239551 104.284015 
L 54.129736 104.284015 
L 56.019921 104.284015 
L 57.910105 104.284014 
L 59.80029 104.284014 
L 61.690475 104.284014 
L 63.58066 104.284012 
L 65.470844 104.28401 
L 67.361029 104.284005 
L 69.251214 104.283996 
L 71.141398 104.28398 
L 73.031583 104.283949 
L 74.921768 104.283894 
L 76.811952 104.283796 
L 78.702137 104.283623 
L 80.592322 104.283322 
L 82.482507 104.28281 
L 84.372691 104.281947 
L 86.262876 104.280517 
L 88.153061 104.27818 
L 90.043245 104.274418 
L 91.93343 104.268452 
L 93.823615 104.25913 
L 95.713799 104.244783 
L 97.603984 104.22303 
L 99.494169 104.190545 
L 101.384354 104.142763 
L 103.274538 104.073548 
L 105.164723 103.974813 
L 107.054908 103.836125 
L 108.945092 103.644326 
L 110.835277 103.383199 
L 112.725462 103.033258 
L 114.615646 102.571718 
L 116.505831 101.972724 
L 118.396016 101.207921 
L 120.286201 100.247431 
L 122.176385 99.061283 
L 124.06657 97.621306 
L 125.956755 95.90345 
L 127.846939 93.890434 
L 129.737124 91.574574 
L 131.627309 88.960545 
L 133.517493 86.067842 
L 135.407678 82.932604 
L 137.297863 79.608548 
L 139.188048 76.166718 
L 141.078232 72.693905 
L 142.968417 69.289651 
L 144.858602 66.061924 
L 146.748786 63.121664 
L 148.638971 60.576583 
L 150.529156 58.524671 
L 152.41934 57.047954 
L 154.309525 56.207061 
L 156.19971 56.037095 
L 158.089895 56.5452 
L 159.980079 57.710067 
L 161.870264 59.483411 
L 163.760449 61.793298 
L 165.650633 64.548977 
L 167.540818 67.646788 
L 169.431003 70.976599 
L 171.321187 74.428217 
L 173.211372 77.897271 
L 175.101557 81.290133 
L 176.991741 84.527598 
L 178.881926 87.547175 
L 180.772111 90.303985 
L 182.662296 92.770388 
L 184.55248 94.934575 
L 186.442665 96.798384 
L 188.33285 98.374653 
L 190.223034 99.684393 
L 192.113219 100.754028 
L 194.003404 101.612894 
L 195.893588 102.291125 
L 197.783773 102.817987 
L 199.673958 103.220678 
L 201.564143 103.523568 
L 203.454327 103.747803 
" clip-path="url(#p6a312305cf)" style="fill: none; stroke: #000000; stroke-width: 0.6; stroke-linecap: square"/>
   </g>
   <g id="patch_3">
    <path d="M 3.00024 109.107052 
L 212.99976 109.107052 
" style="fill: none; stroke: #000000; stroke-width: 0.8; stroke-linejoin: miter; stroke-linecap: square"/>
   </g>
  </g>
  <g id="axes_2">
   <g id="patch_4">
    <path d="M 3.00024 224.714343 
L 212.99976 224.714343 
L 212.99976 118.607532 
L 3.00024 118.607532 
z
" style="fill: #ffffff"/>
   </g>
   <g id="FillBetweenPolyCollection_3">
    <defs>
     <path id="mf29a530db9" d="M 12.545673 -140.108694 
L 12.545673 -140.376799 
L 14.435857 -140.428538 
L 16.326042 -140.488917 
L 18.216227 -140.559102 
L 20.106412 -140.640362 
L 21.996596 -140.734072 
L 23.886781 -140.841708 
L 25.776966 -140.964842 
L 27.66715 -141.105138 
L 29.557335 -141.264339 
L 31.44752 -141.444254 
L 33.337704 -141.646741 
L 35.227889 -141.873687 
L 37.118074 -142.126985 
L 39.008259 -142.408505 
L 40.898443 -142.720059 
L 42.788628 -143.063374 
L 44.678813 -143.440048 
L 46.568997 -143.851509 
L 48.459182 -144.298976 
L 50.349367 -144.783413 
L 52.239551 -145.305484 
L 54.129736 -145.865507 
L 56.019921 -146.463414 
L 57.910105 -147.098709 
L 59.80029 -147.770428 
L 61.690475 -148.477113 
L 63.58066 -149.21678 
L 65.470844 -149.986902 
L 67.361029 -150.784399 
L 69.251214 -151.605634 
L 71.141398 -152.446427 
L 73.031583 -153.302065 
L 74.921768 -154.167342 
L 76.811952 -155.036592 
L 78.702137 -155.903749 
L 80.592322 -156.762402 
L 82.482507 -157.605875 
L 84.372691 -158.427307 
L 86.262876 -159.219739 
L 88.153061 -159.976213 
L 90.043245 -160.689869 
L 91.93343 -161.354052 
L 93.823615 -161.962409 
L 95.713799 -162.508995 
L 97.603984 -162.988365 
L 99.494169 -163.395668 
L 101.384354 -163.726724 
L 103.274538 -163.978101 
L 105.164723 -164.14717 
L 107.054908 -164.232153 
L 108.945092 -164.232153 
L 110.835277 -164.14717 
L 112.725462 -163.978101 
L 114.615646 -163.726724 
L 116.505831 -163.395668 
L 118.396016 -162.988365 
L 120.286201 -162.508995 
L 122.176385 -161.962409 
L 124.06657 -161.354052 
L 125.956755 -160.689869 
L 127.846939 -159.976213 
L 129.737124 -159.219739 
L 131.627309 -158.427307 
L 133.517493 -157.605875 
L 135.407678 -156.762402 
L 137.297863 -155.903749 
L 139.188048 -155.036592 
L 141.078232 -154.167342 
L 142.968417 -153.302065 
L 144.858602 -152.446427 
L 146.748786 -151.605634 
L 148.638971 -150.784399 
L 150.529156 -149.986902 
L 152.41934 -149.21678 
L 154.309525 -148.477113 
L 156.19971 -147.770428 
L 158.089895 -147.098709 
L 159.980079 -146.463414 
L 161.870264 -145.865507 
L 163.760449 -145.305484 
L 165.650633 -144.783413 
L 167.540818 -144.298976 
L 169.431003 -143.851509 
L 171.321187 -143.440048 
L 173.211372 -143.063374 
L 175.101557 -142.720059 
L 176.991741 -142.408505 
L 178.881926 -142.126985 
L 180.772111 -141.873687 
L 182.662296 -141.646741 
L 184.55248 -141.444254 
L 186.442665 -141.264339 
L 188.33285 -141.105138 
L 190.223034 -140.964842 
L 192.113219 -140.841708 
L 194.003404 -140.734072 
L 195.893588 -140.640362 
L 197.783773 -140.559102 
L 199.673958 -140.488917 
L 201.564143 -140.428538 
L 203.454327 -140.376799 
L 203.454327 -140.108694 
L 203.454327 -140.108694 
L 201.564143 -140.108694 
L 199.673958 -140.108694 
L 197.783773 -140.108694 
L 195.893588 -140.108694 
L 194.003404 -140.108694 
L 192.113219 -140.108694 
L 190.223034 -140.108694 
L 188.33285 -140.108694 
L 186.442665 -140.108694 
L 184.55248 -140.108694 
L 182.662296 -140.108694 
L 180.772111 -140.108694 
L 178.881926 -140.108694 
L 176.991741 -140.108694 
L 175.101557 -140.108694 
L 173.211372 -140.108694 
L 171.321187 -140.108694 
L 169.431003 -140.108694 
L 167.540818 -140.108694 
L 165.650633 -140.108694 
L 163.760449 -140.108694 
L 161.870264 -140.108694 
L 159.980079 -140.108694 
L 158.089895 -140.108694 
L 156.19971 -140.108694 
L 154.309525 -140.108694 
L 152.41934 -140.108694 
L 150.529156 -140.108694 
L 148.638971 -140.108694 
L 146.748786 -140.108694 
L 144.858602 -140.108694 
L 142.968417 -140.108694 
L 141.078232 -140.108694 
L 139.188048 -140.108694 
L 137.297863 -140.108694 
L 135.407678 -140.108694 
L 133.517493 -140.108694 
L 131.627309 -140.108694 
L 129.737124 -140.108694 
L 127.846939 -140.108694 
L 125.956755 -140.108694 
L 124.06657 -140.108694 
L 122.176385 -140.108694 
L 120.286201 -140.108694 
L 118.396016 -140.108694 
L 116.505831 -140.108694 
L 114.615646 -140.108694 
L 112.725462 -140.108694 
L 110.835277 -140.108694 
L 108.945092 -140.108694 
L 107.054908 -140.108694 
L 105.164723 -140.108694 
L 103.274538 -140.108694 
L 101.384354 -140.108694 
L 99.494169 -140.108694 
L 97.603984 -140.108694 
L 95.713799 -140.108694 
L 93.823615 -140.108694 
L 91.93343 -140.108694 
L 90.043245 -140.108694 
L 88.153061 -140.108694 
L 86.262876 -140.108694 
L 84.372691 -140.108694 
L 82.482507 -140.108694 
L 80.592322 -140.108694 
L 78.702137 -140.108694 
L 76.811952 -140.108694 
L 74.921768 -140.108694 
L 73.031583 -140.108694 
L 71.141398 -140.108694 
L 69.251214 -140.108694 
L 67.361029 -140.108694 
L 65.470844 -140.108694 
L 63.58066 -140.108694 
L 61.690475 -140.108694 
L 59.80029 -140.108694 
L 57.910105 -140.108694 
L 56.019921 -140.108694 
L 54.129736 -140.108694 
L 52.239551 -140.108694 
L 50.349367 -140.108694 
L 48.459182 -140.108694 
L 46.568997 -140.108694 
L 44.678813 -140.108694 
L 42.788628 -140.108694 
L 40.898443 -140.108694 
L 39.008259 -140.108694 
L 37.118074 -140.108694 
L 35.227889 -140.108694 
L 33.337704 -140.108694 
L 31.44752 -140.108694 
L 29.557335 -140.108694 
L 27.66715 -140.108694 
L 25.776966 -140.108694 
L 23.886781 -140.108694 
L 21.996596 -140.108694 
L 20.106412 -140.108694 
L 18.216227 -140.108694 
L 16.326042 -140.108694 
L 14.435857 -140.108694 
L 12.545673 -140.108694 
z
"/>
    </defs>
    <g clip-path="url(#p5bdaefbfd8)">
     <use xlink:href="#mf29a530db9" x="0" y="360" style="fill: #761e58; fill-opacity: 0.4"/>
    </g>
   </g>
   <g id="FillBetweenPolyCollection_4">
    <defs>
     <path id="me7ac9ce4ef" d="M 12.545673 -140.108694 
L 12.545673 -140.108694 
L 14.435857 -140.108694 
L 16.326042 -140.108694 
L 18.216227 -140.108694 
L 20.106412 -140.108694 
L 21.996596 -140.108695 
L 23.886781 -140.108696 
L 25.776966 -140.108699 
L 27.66715 -140.108703 
L 29.557335 -140.108713 
L 31.44752 -140.10873 
L 33.337704 -140.108761 
L 35.227889 -140.108817 
L 37.118074 -140.108918 
L 39.008259 -140.109095 
L 40.898443 -140.109402 
L 42.788628 -140.109926 
L 44.678813 -140.110807 
L 46.568997 -140.112268 
L 48.459182 -140.114652 
L 50.349367 -140.118488 
L 52.239551 -140.124568 
L 54.129736 -140.134062 
L 56.019921 -140.148665 
L 57.910105 -140.170791 
L 59.80029 -140.203812 
L 61.690475 -140.252352 
L 63.58066 -140.322621 
L 65.470844 -140.422795 
L 67.361029 -140.563412 
L 69.251214 -140.757755 
L 71.141398 -141.02217 
L 73.031583 -141.376284 
L 74.921768 -141.843015 
L 76.811952 -142.448338 
L 78.702137 -143.220691 
L 80.592322 -144.189991 
L 82.482507 -145.386172 
L 84.372691 -146.837285 
L 86.262876 -148.567152 
L 88.153061 -150.592709 
L 90.043245 -152.921181 
L 91.93343 -155.547321 
L 93.823615 -158.450972 
L 95.713799 -161.595271 
L 97.603984 -164.92577 
L 99.494169 -168.370724 
L 101.384354 -171.842743 
L 103.274538 -175.241837 
L 105.164723 -178.459801 
L 107.054908 -181.385701 
L 108.945092 -183.912099 
L 110.835277 -185.941551 
L 112.725462 -187.39282 
L 114.615646 -188.206271 
L 116.505831 -188.347928 
L 118.396016 -187.811838 
L 120.286201 -186.620476 
L 122.176385 -184.823191 
L 124.06657 -182.492807 
L 125.956755 -179.720736 
L 127.846939 -176.611038 
L 129.737124 -173.273973 
L 131.627309 -169.819604 
L 133.517493 -166.351944 
L 135.407678 -162.964086 
L 137.297863 -159.734573 
L 139.188048 -156.725171 
L 141.078232 -153.980026 
L 142.968417 -151.526082 
L 144.858602 -149.374533 
L 146.748786 -147.523027 
L 148.638971 -145.95833 
L 150.529156 -144.659151 
L 152.41934 -143.598895 
L 154.309525 -142.748156 
L 156.19971 -142.076805 
L 158.089895 -141.555643 
L 159.980079 -141.157575 
L 161.870264 -140.858361 
L 163.760449 -140.636994 
L 165.650633 -140.475775 
L 167.540818 -140.360179 
L 169.431003 -140.27857 
L 171.321187 -140.221835 
L 173.211372 -140.182992 
L 175.101557 -140.156801 
L 176.991741 -140.139405 
L 178.881926 -140.128025 
L 180.772111 -140.120692 
L 182.662296 -140.116036 
L 184.55248 -140.113123 
L 186.442665 -140.111329 
L 188.33285 -140.110239 
L 190.223034 -140.109588 
L 192.113219 -140.109203 
L 194.003404 -140.10898 
L 195.893588 -140.108852 
L 197.783773 -140.10878 
L 199.673958 -140.10874 
L 201.564143 -140.108718 
L 203.454327 -140.108707 
L 203.454327 -140.108694 
L 203.454327 -140.108694 
L 201.564143 -140.108694 
L 199.673958 -140.108694 
L 197.783773 -140.108694 
L 195.893588 -140.108694 
L 194.003404 -140.108694 
L 192.113219 -140.108694 
L 190.223034 -140.108694 
L 188.33285 -140.108694 
L 186.442665 -140.108694 
L 184.55248 -140.108694 
L 182.662296 -140.108694 
L 180.772111 -140.108694 
L 178.881926 -140.108694 
L 176.991741 -140.108694 
L 175.101557 -140.108694 
L 173.211372 -140.108694 
L 171.321187 -140.108694 
L 169.431003 -140.108694 
L 167.540818 -140.108694 
L 165.650633 -140.108694 
L 163.760449 -140.108694 
L 161.870264 -140.108694 
L 159.980079 -140.108694 
L 158.089895 -140.108694 
L 156.19971 -140.108694 
L 154.309525 -140.108694 
L 152.41934 -140.108694 
L 150.529156 -140.108694 
L 148.638971 -140.108694 
L 146.748786 -140.108694 
L 144.858602 -140.108694 
L 142.968417 -140.108694 
L 141.078232 -140.108694 
L 139.188048 -140.108694 
L 137.297863 -140.108694 
L 135.407678 -140.108694 
L 133.517493 -140.108694 
L 131.627309 -140.108694 
L 129.737124 -140.108694 
L 127.846939 -140.108694 
L 125.956755 -140.108694 
L 124.06657 -140.108694 
L 122.176385 -140.108694 
L 120.286201 -140.108694 
L 118.396016 -140.108694 
L 116.505831 -140.108694 
L 114.615646 -140.108694 
L 112.725462 -140.108694 
L 110.835277 -140.108694 
L 108.945092 -140.108694 
L 107.054908 -140.108694 
L 105.164723 -140.108694 
L 103.274538 -140.108694 
L 101.384354 -140.108694 
L 99.494169 -140.108694 
L 97.603984 -140.108694 
L 95.713799 -140.108694 
L 93.823615 -140.108694 
L 91.93343 -140.108694 
L 90.043245 -140.108694 
L 88.153061 -140.108694 
L 86.262876 -140.108694 
L 84.372691 -140.108694 
L 82.482507 -140.108694 
L 80.592322 -140.108694 
L 78.702137 -140.108694 
L 76.811952 -140.108694 
L 74.921768 -140.108694 
L 73.031583 -140.108694 
L 71.141398 -140.108694 
L 69.251214 -140.108694 
L 67.361029 -140.108694 
L 65.470844 -140.108694 
L 63.58066 -140.108694 
L 61.690475 -140.108694 
L 59.80029 -140.108694 
L 57.910105 -140.108694 
L 56.019921 -140.108694 
L 54.129736 -140.108694 
L 52.239551 -140.108694 
L 50.349367 -140.108694 
L 48.459182 -140.108694 
L 46.568997 -140.108694 
L 44.678813 -140.108694 
L 42.788628 -140.108694 
L 40.898443 -140.108694 
L 39.008259 -140.108694 
L 37.118074 -140.108694 
L 35.227889 -140.108694 
L 33.337704 -140.108694 
L 31.44752 -140.108694 
L 29.557335 -140.108694 
L 27.66715 -140.108694 
L 25.776966 -140.108694 
L 23.886781 -140.108694 
L 21.996596 -140.108694 
L 20.106412 -140.108694 
L 18.216227 -140.108694 
L 16.326042 -140.108694 
L 14.435857 -140.108694 
L 12.545673 -140.108694 
z
" style="stroke: #234c80; stroke-opacity: 0.4; stroke-width: 0.3"/>
    </defs>
    <g clip-path="url(#p5bdaefbfd8)">
     <use xlink:href="#me7ac9ce4ef" x="0" y="360" style="fill: #234c80; fill-opacity: 0.4; stroke: #234c80; stroke-opacity: 0.4; stroke-width: 0.3"/>
    </g>
   </g>
   <g id="matplotlib.axis_2">
    <g id="xtick_6">
     <g id="line2d_8">
      <g>
       <use xlink:href="#m62e7f10b5e" x="28.454727" y="224.714343" style="stroke: #000000; stroke-width: 0.8"/>
      </g>
     </g>
    </g>
    <g id="xtick_7">
     <g id="line2d_9">
      <g>
       <use xlink:href="#m62e7f10b5e" x="68.227364" y="224.714343" style="stroke: #000000; stroke-width: 0.8"/>
      </g>
     </g>
    </g>
    <g id="xtick_8">
     <g id="line2d_10">
      <g>
       <use xlink:href="#m62e7f10b5e" x="108" y="224.714343" style="stroke: #000000; stroke-width: 0.8"/>
      </g>
     </g>
    </g>
    <g id="xtick_9">
     <g id="line2d_11">
      <g>
       <use xlink:href="#m62e7f10b5e" x="147.772636" y="224.714343" style="stroke: #000000; stroke-width: 0.8"/>
      </g>
     </g>
    </g>
    <g id="xtick_10">
     <g id="line2d_12">
      <g>
       <use xlink:href="#m62e7f10b5e" x="187.545273" y="224.714343" style="stroke: #000000; stroke-width: 0.8"/>
      </g>
     </g>
    </g>
   </g>
   <g id="line2d_13">
    <path d="M 12.545673 219.623201 
L 14.435857 219.571462 
L 16.326042 219.511083 
L 18.216227 219.440898 
L 20.106412 219.359638 
L 21.996596 219.265928 
L 23.886781 219.158292 
L 25.776966 219.035158 
L 27.66715 218.894862 
L 29.557335 218.735661 
L 31.44752 218.555746 
L 33.337704 218.353259 
L 35.227889 218.126313 
L 37.118074 217.873015 
L 39.008259 217.591495 
L 40.898443 217.279941 
L 42.788628 216.936626 
L 44.678813 216.559952 
L 46.568997 216.148491 
L 48.459182 215.701024 
L 50.349367 215.216587 
L 52.239551 214.694516 
L 54.129736 214.134493 
L 56.019921 213.536586 
L 57.910105 212.901291 
L 59.80029 212.229572 
L 61.690475 211.522887 
L 63.58066 210.78322 
L 65.470844 210.013098 
L 67.361029 209.215601 
L 69.251214 208.394366 
L 71.141398 207.553573 
L 73.031583 206.697935 
L 74.921768 205.832658 
L 76.811952 204.963408 
L 78.702137 204.096251 
L 80.592322 203.237598 
L 82.482507 202.394125 
L 84.372691 201.572693 
L 86.262876 200.780261 
L 88.153061 200.023787 
L 90.043245 199.310131 
L 91.93343 198.645948 
L 93.823615 198.037591 
L 95.713799 197.491005 
L 97.603984 197.011635 
L 99.494169 196.604332 
L 101.384354 196.273276 
L 103.274538 196.021899 
L 105.164723 195.85283 
L 107.054908 195.767847 
L 108.945092 195.767847 
L 110.835277 195.85283 
L 112.725462 196.021899 
L 114.615646 196.273276 
L 116.505831 196.604332 
L 118.396016 197.011635 
L 120.286201 197.491005 
L 122.176385 198.037591 
L 124.06657 198.645948 
L 125.956755 199.310131 
L 127.846939 200.023787 
L 129.737124 200.780261 
L 131.627309 201.572693 
L 133.517493 202.394125 
L 135.407678 203.237598 
L 137.297863 204.096251 
L 139.188048 204.963408 
L 141.078232 205.832658 
L 142.968417 206.697935 
L 144.858602 207.553573 
L 146.748786 208.394366 
L 148.638971 209.215601 
L 150.529156 210.013098 
L 152.41934 210.78322 
L 154.309525 211.522887 
L 156.19971 212.229572 
L 158.089895 212.901291 
L 159.980079 213.536586 
L 161.870264 214.134493 
L 163.760449 214.694516 
L 165.650633 215.216587 
L 167.540818 215.701024 
L 169.431003 216.148491 
L 171.321187 216.559952 
L 173.211372 216.936626 
L 175.101557 217.279941 
L 176.991741 217.591495 
L 178.881926 217.873015 
L 180.772111 218.126313 
L 182.662296 218.353259 
L 184.55248 218.555746 
L 186.442665 218.735661 
L 188.33285 218.894862 
L 190.223034 219.035158 
L 192.113219 219.158292 
L 194.003404 219.265928 
L 195.893588 219.359638 
L 197.783773 219.440898 
L 199.673958 219.511083 
L 201.564143 219.571462 
L 203.454327 219.623201 
" clip-path="url(#p5bdaefbfd8)" style="fill: none; stroke: #000000; stroke-width: 0.6; stroke-linecap: square"/>
   </g>
   <g id="line2d_14">
    <path d="M 12.545673 219.891306 
L 14.435857 219.891306 
L 16.326042 219.891306 
L 18.216227 219.891306 
L 20.106412 219.891306 
L 21.996596 219.891305 
L 23.886781 219.891304 
L 25.776966 219.891301 
L 27.66715 219.891297 
L 29.557335 219.891287 
L 31.44752 219.89127 
L 33.337704 219.891239 
L 35.227889 219.891183 
L 37.118074 219.891082 
L 39.008259 219.890905 
L 40.898443 219.890598 
L 42.788628 219.890074 
L 44.678813 219.889193 
L 46.568997 219.887732 
L 48.459182 219.885348 
L 50.349367 219.881512 
L 52.239551 219.875432 
L 54.129736 219.865938 
L 56.019921 219.851335 
L 57.910105 219.829209 
L 59.80029 219.796188 
L 61.690475 219.747648 
L 63.58066 219.677379 
L 65.470844 219.577205 
L 67.361029 219.436588 
L 69.251214 219.242245 
L 71.141398 218.97783 
L 73.031583 218.623716 
L 74.921768 218.156985 
L 76.811952 217.551662 
L 78.702137 216.779309 
L 80.592322 215.810009 
L 82.482507 214.613828 
L 84.372691 213.162715 
L 86.262876 211.432848 
L 88.153061 209.407291 
L 90.043245 207.078819 
L 91.93343 204.452679 
L 93.823615 201.549028 
L 95.713799 198.404729 
L 97.603984 195.07423 
L 99.494169 191.629276 
L 101.384354 188.157257 
L 103.274538 184.758163 
L 105.164723 181.540199 
L 107.054908 178.614299 
L 108.945092 176.087901 
L 110.835277 174.058449 
L 112.725462 172.60718 
L 114.615646 171.793729 
L 116.505831 171.652072 
L 118.396016 172.188162 
L 120.286201 173.379524 
L 122.176385 175.176809 
L 124.06657 177.507193 
L 125.956755 180.279264 
L 127.846939 183.388962 
L 129.737124 186.726027 
L 131.627309 190.180396 
L 133.517493 193.648056 
L 135.407678 197.035914 
L 137.297863 200.265427 
L 139.188048 203.274829 
L 141.078232 206.019974 
L 142.968417 208.473918 
L 144.858602 210.625467 
L 146.748786 212.476973 
L 148.638971 214.04167 
L 150.529156 215.340849 
L 152.41934 216.401105 
L 154.309525 217.251844 
L 156.19971 217.923195 
L 158.089895 218.444357 
L 159.980079 218.842425 
L 161.870264 219.141639 
L 163.760449 219.363006 
L 165.650633 219.524225 
L 167.540818 219.639821 
L 169.431003 219.72143 
L 171.321187 219.778165 
L 173.211372 219.817008 
L 175.101557 219.843199 
L 176.991741 219.860595 
L 178.881926 219.871975 
L 180.772111 219.879308 
L 182.662296 219.883964 
L 184.55248 219.886877 
L 186.442665 219.888671 
L 188.33285 219.889761 
L 190.223034 219.890412 
L 192.113219 219.890797 
L 194.003404 219.89102 
L 195.893588 219.891148 
L 197.783773 219.89122 
L 199.673958 219.89126 
L 201.564143 219.891282 
L 203.454327 219.891293 
" clip-path="url(#p5bdaefbfd8)" style="fill: none; stroke: #000000; stroke-width: 0.6; stroke-linecap: square"/>
   </g>
   <g id="patch_5">
    <path d="M 3.00024 224.714343 
L 212.99976 224.714343 
" style="fill: none; stroke: #000000; stroke-width: 0.8; stroke-linejoin: miter; stroke-linecap: square"/>
   </g>
  </g>
  <g id="axes_3">
   <g id="patch_6">
    <path d="M 3.00024 340.321635 
L 212.99976 340.321635 
L 212.99976 234.214823 
L 3.00024 234.214823 
z
" style="fill: #ffffff"/>
   </g>
   <g id="FillBetweenPolyCollection_5">
    <defs>
     <path id="m53fa90d196" d="M 12.545673 -24.501402 
L 12.545673 -24.501402 
L 14.435857 -24.501402 
L 16.326042 -24.501402 
L 18.216227 -24.501402 
L 20.106412 -24.501402 
L 21.996596 -24.501402 
L 23.886781 -24.501402 
L 25.776966 -24.501402 
L 27.66715 -24.501402 
L 29.557335 -24.501402 
L 31.44752 -24.501402 
L 33.337704 -24.501402 
L 35.227889 -24.501402 
L 37.118074 -24.501402 
L 39.008259 -24.501402 
L 40.898443 -24.501402 
L 42.788628 -24.501402 
L 44.678813 -24.501402 
L 46.568997 -24.501402 
L 48.459182 -24.501402 
L 50.349367 -24.501402 
L 52.239551 -24.501402 
L 54.129736 -24.501402 
L 56.019921 -24.501402 
L 57.910105 -24.501402 
L 59.80029 -24.501402 
L 61.690475 -24.501402 
L 63.58066 -24.501402 
L 65.470844 -24.501402 
L 67.361029 -24.501402 
L 69.251214 -24.501402 
L 71.141398 -24.501402 
L 73.031583 -24.501402 
L 74.921768 -24.501402 
L 76.811952 -24.501402 
L 78.702137 -24.501402 
L 80.592322 -24.501402 
L 82.482507 -24.501402 
L 84.372691 -24.501402 
L 86.262876 -24.501402 
L 88.153061 -24.501402 
L 90.043245 -24.501402 
L 91.93343 -24.501402 
L 93.823615 -24.501402 
L 95.713799 -24.501402 
L 97.603984 -24.501402 
L 99.494169 -24.501403 
L 101.384354 -24.501404 
L 103.274538 -24.501407 
L 105.164723 -24.501414 
L 107.054908 -24.50143 
L 108.945092 -24.501467 
L 110.835277 -24.50155 
L 112.725462 -24.501729 
L 114.615646 -24.502109 
L 116.505831 -24.502891 
L 118.396016 -24.504458 
L 120.286201 -24.507522 
L 122.176385 -24.513353 
L 124.06657 -24.52416 
L 125.956755 -24.543667 
L 127.846939 -24.577947 
L 129.737124 -24.636596 
L 131.627309 -24.734265 
L 133.517493 -24.892553 
L 135.407678 -25.142153 
L 137.297863 -25.525012 
L 139.188048 -26.096111 
L 141.078232 -26.924268 
L 142.968417 -28.091269 
L 144.858602 -29.688547 
L 146.748786 -31.810767 
L 148.638971 -34.545988 
L 150.529156 -37.962657 
L 152.41934 -42.094413 
L 154.309525 -46.924517 
L 156.19971 -52.372419 
L 158.089895 -58.285384 
L 159.980079 -64.4379 
L 161.870264 -70.540865 
L 163.760449 -76.26109 
L 165.650633 -81.249875 
L 167.540818 -85.177527 
L 169.431003 -87.769186 
L 171.321187 -88.836584 
L 173.211372 -88.300653 
L 175.101557 -86.201201 
L 176.991741 -82.692031 
L 178.881926 -78.022311 
L 180.772111 -72.507348 
L 182.662296 -66.493514 
L 184.55248 -60.322718 
L 186.442665 -54.301417 
L 188.33285 -48.677853 
L 190.223034 -43.62941 
L 192.113219 -39.260101 
L 194.003404 -35.606631 
L 195.893588 -32.650473 
L 197.783773 -30.33303 
L 199.673958 -28.571198 
L 201.564143 -27.271254 
L 203.454327 -26.339809 
L 203.454327 -24.501402 
L 203.454327 -24.501402 
L 201.564143 -24.501402 
L 199.673958 -24.501402 
L 197.783773 -24.501402 
L 195.893588 -24.501402 
L 194.003404 -24.501402 
L 192.113219 -24.501402 
L 190.223034 -24.501402 
L 188.33285 -24.501402 
L 186.442665 -24.501402 
L 184.55248 -24.501402 
L 182.662296 -24.501402 
L 180.772111 -24.501402 
L 178.881926 -24.501402 
L 176.991741 -24.501402 
L 175.101557 -24.501402 
L 173.211372 -24.501402 
L 171.321187 -24.501402 
L 169.431003 -24.501402 
L 167.540818 -24.501402 
L 165.650633 -24.501402 
L 163.760449 -24.501402 
L 161.870264 -24.501402 
L 159.980079 -24.501402 
L 158.089895 -24.501402 
L 156.19971 -24.501402 
L 154.309525 -24.501402 
L 152.41934 -24.501402 
L 150.529156 -24.501402 
L 148.638971 -24.501402 
L 146.748786 -24.501402 
L 144.858602 -24.501402 
L 142.968417 -24.501402 
L 141.078232 -24.501402 
L 139.188048 -24.501402 
L 137.297863 -24.501402 
L 135.407678 -24.501402 
L 133.517493 -24.501402 
L 131.627309 -24.501402 
L 129.737124 -24.501402 
L 127.846939 -24.501402 
L 125.956755 -24.501402 
L 124.06657 -24.501402 
L 122.176385 -24.501402 
L 120.286201 -24.501402 
L 118.396016 -24.501402 
L 116.505831 -24.501402 
L 114.615646 -24.501402 
L 112.725462 -24.501402 
L 110.835277 -24.501402 
L 108.945092 -24.501402 
L 107.054908 -24.501402 
L 105.164723 -24.501402 
L 103.274538 -24.501402 
L 101.384354 -24.501402 
L 99.494169 -24.501402 
L 97.603984 -24.501402 
L 95.713799 -24.501402 
L 93.823615 -24.501402 
L 91.93343 -24.501402 
L 90.043245 -24.501402 
L 88.153061 -24.501402 
L 86.262876 -24.501402 
L 84.372691 -24.501402 
L 82.482507 -24.501402 
L 80.592322 -24.501402 
L 78.702137 -24.501402 
L 76.811952 -24.501402 
L 74.921768 -24.501402 
L 73.031583 -24.501402 
L 71.141398 -24.501402 
L 69.251214 -24.501402 
L 67.361029 -24.501402 
L 65.470844 -24.501402 
L 63.58066 -24.501402 
L 61.690475 -24.501402 
L 59.80029 -24.501402 
L 57.910105 -24.501402 
L 56.019921 -24.501402 
L 54.129736 -24.501402 
L 52.239551 -24.501402 
L 50.349367 -24.501402 
L 48.459182 -24.501402 
L 46.568997 -24.501402 
L 44.678813 -24.501402 
L 42.788628 -24.501402 
L 40.898443 -24.501402 
L 39.008259 -24.501402 
L 37.118074 -24.501402 
L 35.227889 -24.501402 
L 33.337704 -24.501402 
L 31.44752 -24.501402 
L 29.557335 -24.501402 
L 27.66715 -24.501402 
L 25.776966 -24.501402 
L 23.886781 -24.501402 
L 21.996596 -24.501402 
L 20.106412 -24.501402 
L 18.216227 -24.501402 
L 16.326042 -24.501402 
L 14.435857 -24.501402 
L 12.545673 -24.501402 
z
"/>
    </defs>
    <g clip-path="url(#p94a9932c5d)">
     <use xlink:href="#m53fa90d196" x="0" y="360" style="fill: #761e58; fill-opacity: 0.4"/>
    </g>
   </g>
   <g id="FillBetweenPolyCollection_6">
    <defs>
     <path id="m99cf61a028" d="M 12.545673 -24.501402 
L 12.545673 -24.503336 
L 14.435857 -24.50468 
L 16.326042 -24.506879 
L 18.216227 -24.510427 
L 20.106412 -24.516063 
L 21.996596 -24.524886 
L 23.886781 -24.538492 
L 25.776966 -24.559159 
L 27.66715 -24.590082 
L 29.557335 -24.635652 
L 31.44752 -24.701789 
L 33.337704 -24.796316 
L 35.227889 -24.929349 
L 37.118074 -25.113688 
L 39.008259 -25.365152 
L 40.898443 -25.702811 
L 42.788628 -26.149047 
L 44.678813 -26.729352 
L 46.568997 -27.471815 
L 48.459182 -28.40619 
L 50.349367 -29.562532 
L 52.239551 -30.969356 
L 54.129736 -32.651367 
L 56.019921 -34.626844 
L 57.910105 -36.904825 
L 59.80029 -39.482324 
L 61.690475 -42.341815 
L 63.58066 -45.44931 
L 65.470844 -48.753303 
L 67.361029 -52.184858 
L 69.251214 -55.659017 
L 71.141398 -59.07762 
L 73.031583 -62.333477 
L 74.921768 -65.31569 
L 76.811952 -67.915788 
L 78.702137 -70.034216 
L 80.592322 -71.586633 
L 82.482507 -72.509477 
L 84.372691 -72.764287 
L 86.262876 -72.340352 
L 88.153061 -71.255469 
L 90.043245 -69.554694 
L 91.93343 -67.307244 
L 93.823615 -64.601825 
L 95.713799 -61.540828 
L 97.603984 -58.233932 
L 99.494169 -54.79166 
L 101.384354 -51.319404 
L 103.274538 -47.912363 
L 105.164723 -44.651699 
L 107.054908 -41.602069 
L 108.945092 -38.810559 
L 110.835277 -36.306903 
L 112.725462 -34.104783 
L 114.615646 -32.20393 
L 116.505831 -30.592728 
L 118.396016 -29.251031 
L 120.286201 -28.15295 
L 122.176385 -27.269387 
L 124.06657 -26.570208 
L 125.956755 -26.025964 
L 127.846939 -25.609148 
L 129.737124 -25.295007 
L 131.627309 -25.061982 
L 133.517493 -24.89183 
L 135.407678 -24.769512 
L 137.297863 -24.682935 
L 139.188048 -24.622592 
L 141.078232 -24.581173 
L 142.968417 -24.553174 
L 144.858602 -24.534531 
L 146.748786 -24.522305 
L 148.638971 -24.514405 
L 150.529156 -24.509378 
L 152.41934 -24.506226 
L 154.309525 -24.504278 
L 156.19971 -24.503093 
L 158.089895 -24.502382 
L 159.980079 -24.501962 
L 161.870264 -24.501718 
L 163.760449 -24.501577 
L 165.650633 -24.501498 
L 167.540818 -24.501454 
L 169.431003 -24.50143 
L 171.321187 -24.501416 
L 173.211372 -24.501409 
L 175.101557 -24.501406 
L 176.991741 -24.501404 
L 178.881926 -24.501403 
L 180.772111 -24.501402 
L 182.662296 -24.501402 
L 184.55248 -24.501402 
L 186.442665 -24.501402 
L 188.33285 -24.501402 
L 190.223034 -24.501402 
L 192.113219 -24.501402 
L 194.003404 -24.501402 
L 195.893588 -24.501402 
L 197.783773 -24.501402 
L 199.673958 -24.501402 
L 201.564143 -24.501402 
L 203.454327 -24.501402 
L 203.454327 -24.501402 
L 203.454327 -24.501402 
L 201.564143 -24.501402 
L 199.673958 -24.501402 
L 197.783773 -24.501402 
L 195.893588 -24.501402 
L 194.003404 -24.501402 
L 192.113219 -24.501402 
L 190.223034 -24.501402 
L 188.33285 -24.501402 
L 186.442665 -24.501402 
L 184.55248 -24.501402 
L 182.662296 -24.501402 
L 180.772111 -24.501402 
L 178.881926 -24.501402 
L 176.991741 -24.501402 
L 175.101557 -24.501402 
L 173.211372 -24.501402 
L 171.321187 -24.501402 
L 169.431003 -24.501402 
L 167.540818 -24.501402 
L 165.650633 -24.501402 
L 163.760449 -24.501402 
L 161.870264 -24.501402 
L 159.980079 -24.501402 
L 158.089895 -24.501402 
L 156.19971 -24.501402 
L 154.309525 -24.501402 
L 152.41934 -24.501402 
L 150.529156 -24.501402 
L 148.638971 -24.501402 
L 146.748786 -24.501402 
L 144.858602 -24.501402 
L 142.968417 -24.501402 
L 141.078232 -24.501402 
L 139.188048 -24.501402 
L 137.297863 -24.501402 
L 135.407678 -24.501402 
L 133.517493 -24.501402 
L 131.627309 -24.501402 
L 129.737124 -24.501402 
L 127.846939 -24.501402 
L 125.956755 -24.501402 
L 124.06657 -24.501402 
L 122.176385 -24.501402 
L 120.286201 -24.501402 
L 118.396016 -24.501402 
L 116.505831 -24.501402 
L 114.615646 -24.501402 
L 112.725462 -24.501402 
L 110.835277 -24.501402 
L 108.945092 -24.501402 
L 107.054908 -24.501402 
L 105.164723 -24.501402 
L 103.274538 -24.501402 
L 101.384354 -24.501402 
L 99.494169 -24.501402 
L 97.603984 -24.501402 
L 95.713799 -24.501402 
L 93.823615 -24.501402 
L 91.93343 -24.501402 
L 90.043245 -24.501402 
L 88.153061 -24.501402 
L 86.262876 -24.501402 
L 84.372691 -24.501402 
L 82.482507 -24.501402 
L 80.592322 -24.501402 
L 78.702137 -24.501402 
L 76.811952 -24.501402 
L 74.921768 -24.501402 
L 73.031583 -24.501402 
L 71.141398 -24.501402 
L 69.251214 -24.501402 
L 67.361029 -24.501402 
L 65.470844 -24.501402 
L 63.58066 -24.501402 
L 61.690475 -24.501402 
L 59.80029 -24.501402 
L 57.910105 -24.501402 
L 56.019921 -24.501402 
L 54.129736 -24.501402 
L 52.239551 -24.501402 
L 50.349367 -24.501402 
L 48.459182 -24.501402 
L 46.568997 -24.501402 
L 44.678813 -24.501402 
L 42.788628 -24.501402 
L 40.898443 -24.501402 
L 39.008259 -24.501402 
L 37.118074 -24.501402 
L 35.227889 -24.501402 
L 33.337704 -24.501402 
L 31.44752 -24.501402 
L 29.557335 -24.501402 
L 27.66715 -24.501402 
L 25.776966 -24.501402 
L 23.886781 -24.501402 
L 21.996596 -24.501402 
L 20.106412 -24.501402 
L 18.216227 -24.501402 
L 16.326042 -24.501402 
L 14.435857 -24.501402 
L 12.545673 -24.501402 
z
" style="stroke: #234c80; stroke-opacity: 0.4; stroke-width: 0.3"/>
    </defs>
    <g clip-path="url(#p94a9932c5d)">
     <use xlink:href="#m99cf61a028" x="0" y="360" style="fill: #234c80; fill-opacity: 0.4; stroke: #234c80; stroke-opacity: 0.4; stroke-width: 0.3"/>
    </g>
   </g>
   <g id="matplotlib.axis_3">
    <g id="xtick_11">
     <g id="line2d_15">
      <g>
       <use xlink:href="#m62e7f10b5e" x="28.454727" y="340.321635" style="stroke: #000000; stroke-width: 0.8"/>
      </g>
     </g>
     <g id="text_1">
      <!-- −5.0 -->
      <g transform="translate(16.313321 354.920073) scale(0.1 -0.1)">
       <defs>
        <path id="DejaVuSans-2212" d="M 678 2272 
L 4684 2272 
L 4684 1741 
L 678 1741 
L 678 2272 
z
" transform="scale(0.015625)"/>
        <path id="DejaVuSans-35" d="M 691 4666 
L 3169 4666 
L 3169 4134 
L 1269 4134 
L 1269 2991 
Q 1406 3038 1543 3061 
Q 1681 3084 1819 3084 
Q 2600 3084 3056 2656 
Q 3513 2228 3513 1497 
Q 3513 744 3044 326 
Q 2575 -91 1722 -91 
Q 1428 -91 1123 -41 
Q 819 9 494 109 
L 494 744 
Q 775 591 1075 516 
Q 1375 441 1709 441 
Q 2250 441 2565 725 
Q 2881 1009 2881 1497 
Q 2881 1984 2565 2268 
Q 2250 2553 1709 2553 
Q 1456 2553 1204 2497 
Q 953 2441 691 2322 
L 691 4666 
z
" transform="scale(0.015625)"/>
        <path id="DejaVuSans-2e" d="M 684 794 
L 1344 794 
L 1344 0 
L 684 0 
L 684 794 
z
" transform="scale(0.015625)"/>
        <path id="DejaVuSans-30" d="M 2034 4250 
Q 1547 4250 1301 3770 
Q 1056 3291 1056 2328 
Q 1056 1369 1301 889 
Q 1547 409 2034 409 
Q 2525 409 2770 889 
Q 3016 1369 3016 2328 
Q 3016 3291 2770 3770 
Q 2525 4250 2034 4250 
z
M 2034 4750 
Q 2819 4750 3233 4129 
Q 3647 3509 3647 2328 
Q 3647 1150 3233 529 
Q 2819 -91 2034 -91 
Q 1250 -91 836 529 
Q 422 1150 422 2328 
Q 422 3509 836 4129 
Q 1250 4750 2034 4750 
z
" transform="scale(0.015625)"/>
       </defs>
       <use xlink:href="#DejaVuSans-2212"/>
       <use xlink:href="#DejaVuSans-35" transform="translate(83.789062 0)"/>
       <use xlink:href="#DejaVuSans-2e" transform="translate(147.412109 0)"/>
       <use xlink:href="#DejaVuSans-30" transform="translate(179.199219 0)"/>
      </g>
     </g>
    </g>
    <g id="xtick_12">
     <g id="line2d_16">
      <g>
       <use xlink:href="#m62e7f10b5e" x="68.227364" y="340.321635" style="stroke: #000000; stroke-width: 0.8"/>
      </g>
     </g>
     <g id="text_2">
      <!-- −2.5 -->
      <g transform="translate(56.085957 354.920073) scale(0.1 -0.1)">
       <defs>
        <path id="DejaVuSans-32" d="M 1228 531 
L 3431 531 
L 3431 0 
L 469 0 
L 469 531 
Q 828 903 1448 1529 
Q 2069 2156 2228 2338 
Q 2531 2678 2651 2914 
Q 2772 3150 2772 3378 
Q 2772 3750 2511 3984 
Q 2250 4219 1831 4219 
Q 1534 4219 1204 4116 
Q 875 4013 500 3803 
L 500 4441 
Q 881 4594 1212 4672 
Q 1544 4750 1819 4750 
Q 2544 4750 2975 4387 
Q 3406 4025 3406 3419 
Q 3406 3131 3298 2873 
Q 3191 2616 2906 2266 
Q 2828 2175 2409 1742 
Q 1991 1309 1228 531 
z
" transform="scale(0.015625)"/>
       </defs>
       <use xlink:href="#DejaVuSans-2212"/>
       <use xlink:href="#DejaVuSans-32" transform="translate(83.789062 0)"/>
       <use xlink:href="#DejaVuSans-2e" transform="translate(147.412109 0)"/>
       <use xlink:href="#DejaVuSans-35" transform="translate(179.199219 0)"/>
      </g>
     </g>
    </g>
    <g id="xtick_13">
     <g id="line2d_17">
      <g>
       <use xlink:href="#m62e7f10b5e" x="108" y="340.321635" style="stroke: #000000; stroke-width: 0.8"/>
      </g>
     </g>
     <g id="text_3">
      <!-- 0.0 -->
      <g transform="translate(100.048438 354.920073) scale(0.1 -0.1)">
       <use xlink:href="#DejaVuSans-30"/>
       <use xlink:href="#DejaVuSans-2e" transform="translate(63.623047 0)"/>
       <use xlink:href="#DejaVuSans-30" transform="translate(95.410156 0)"/>
      </g>
     </g>
    </g>
    <g id="xtick_14">
     <g id="line2d_18">
      <g>
       <use xlink:href="#m62e7f10b5e" x="147.772636" y="340.321635" style="stroke: #000000; stroke-width: 0.8"/>
      </g>
     </g>
     <g id="text_4">
      <!-- 2.5 -->
      <g transform="translate(139.821074 354.920073) scale(0.1 -0.1)">
       <use xlink:href="#DejaVuSans-32"/>
       <use xlink:href="#DejaVuSans-2e" transform="translate(63.623047 0)"/>
       <use xlink:href="#DejaVuSans-35" transform="translate(95.410156 0)"/>
      </g>
     </g>
    </g>
    <g id="xtick_15">
     <g id="line2d_19">
      <g>
       <use xlink:href="#m62e7f10b5e" x="187.545273" y="340.321635" style="stroke: #000000; stroke-width: 0.8"/>
      </g>
     </g>
     <g id="text_5">
      <!-- 5.0 -->
      <g transform="translate(179.59371 354.920073) scale(0.1 -0.1)">
       <use xlink:href="#DejaVuSans-35"/>
       <use xlink:href="#DejaVuSans-2e" transform="translate(63.623047 0)"/>
       <use xlink:href="#DejaVuSans-30" transform="translate(95.410156 0)"/>
      </g>
     </g>
    </g>
   </g>
   <g id="line2d_20">
    <path d="M 12.545673 335.498598 
L 14.435857 335.498598 
L 16.326042 335.498598 
L 18.216227 335.498598 
L 20.106412 335.498598 
L 21.996596 335.498598 
L 23.886781 335.498598 
L 25.776966 335.498598 
L 27.66715 335.498598 
L 29.557335 335.498598 
L 31.44752 335.498598 
L 33.337704 335.498598 
L 35.227889 335.498598 
L 37.118074 335.498598 
L 39.008259 335.498598 
L 40.898443 335.498598 
L 42.788628 335.498598 
L 44.678813 335.498598 
L 46.568997 335.498598 
L 48.459182 335.498598 
L 50.349367 335.498598 
L 52.239551 335.498598 
L 54.129736 335.498598 
L 56.019921 335.498598 
L 57.910105 335.498598 
L 59.80029 335.498598 
L 61.690475 335.498598 
L 63.58066 335.498598 
L 65.470844 335.498598 
L 67.361029 335.498598 
L 69.251214 335.498598 
L 71.141398 335.498598 
L 73.031583 335.498598 
L 74.921768 335.498598 
L 76.811952 335.498598 
L 78.702137 335.498598 
L 80.592322 335.498598 
L 82.482507 335.498598 
L 84.372691 335.498598 
L 86.262876 335.498598 
L 88.153061 335.498598 
L 90.043245 335.498598 
L 91.93343 335.498598 
L 93.823615 335.498598 
L 95.713799 335.498598 
L 97.603984 335.498598 
L 99.494169 335.498597 
L 101.384354 335.498596 
L 103.274538 335.498593 
L 105.164723 335.498586 
L 107.054908 335.49857 
L 108.945092 335.498533 
L 110.835277 335.49845 
L 112.725462 335.498271 
L 114.615646 335.497891 
L 116.505831 335.497109 
L 118.396016 335.495542 
L 120.286201 335.492478 
L 122.176385 335.486647 
L 124.06657 335.47584 
L 125.956755 335.456333 
L 127.846939 335.422053 
L 129.737124 335.363404 
L 131.627309 335.265735 
L 133.517493 335.107447 
L 135.407678 334.857847 
L 137.297863 334.474988 
L 139.188048 333.903889 
L 141.078232 333.075732 
L 142.968417 331.908731 
L 144.858602 330.311453 
L 146.748786 328.189233 
L 148.638971 325.454012 
L 150.529156 322.037343 
L 152.41934 317.905587 
L 154.309525 313.075483 
L 156.19971 307.627581 
L 158.089895 301.714616 
L 159.980079 295.5621 
L 161.870264 289.459135 
L 163.760449 283.73891 
L 165.650633 278.750125 
L 167.540818 274.822473 
L 169.431003 272.230814 
L 171.321187 271.163416 
L 173.211372 271.699347 
L 175.101557 273.798799 
L 176.991741 277.307969 
L 178.881926 281.977689 
L 180.772111 287.492652 
L 182.662296 293.506486 
L 184.55248 299.677282 
L 186.442665 305.698583 
L 188.33285 311.322147 
L 190.223034 316.37059 
L 192.113219 320.739899 
L 194.003404 324.393369 
L 195.893588 327.349527 
L 197.783773 329.66697 
L 199.673958 331.428802 
L 201.564143 332.728746 
L 203.454327 333.660191 
" clip-path="url(#p94a9932c5d)" style="fill: none; stroke: #000000; stroke-width: 0.6; stroke-linecap: square"/>
   </g>
   <g id="line2d_21">
    <path d="M 12.545673 335.496664 
L 14.435857 335.49532 
L 16.326042 335.493121 
L 18.216227 335.489573 
L 20.106412 335.483937 
L 21.996596 335.475114 
L 23.886781 335.461508 
L 25.776966 335.440841 
L 27.66715 335.409918 
L 29.557335 335.364348 
L 31.44752 335.298211 
L 33.337704 335.203684 
L 35.227889 335.070651 
L 37.118074 334.886312 
L 39.008259 334.634848 
L 40.898443 334.297189 
L 42.788628 333.850953 
L 44.678813 333.270648 
L 46.568997 332.528185 
L 48.459182 331.59381 
L 50.349367 330.437468 
L 52.239551 329.030644 
L 54.129736 327.348633 
L 56.019921 325.373156 
L 57.910105 323.095175 
L 59.80029 320.517676 
L 61.690475 317.658185 
L 63.58066 314.55069 
L 65.470844 311.246697 
L 67.361029 307.815142 
L 69.251214 304.340983 
L 71.141398 300.92238 
L 73.031583 297.666523 
L 74.921768 294.68431 
L 76.811952 292.084212 
L 78.702137 289.965784 
L 80.592322 288.413367 
L 82.482507 287.490523 
L 84.372691 287.235713 
L 86.262876 287.659648 
L 88.153061 288.744531 
L 90.043245 290.445306 
L 91.93343 292.692756 
L 93.823615 295.398175 
L 95.713799 298.459172 
L 97.603984 301.766068 
L 99.494169 305.20834 
L 101.384354 308.680596 
L 103.274538 312.087637 
L 105.164723 315.348301 
L 107.054908 318.397931 
L 108.945092 321.189441 
L 110.835277 323.693097 
L 112.725462 325.895217 
L 114.615646 327.79607 
L 116.505831 329.407272 
L 118.396016 330.748969 
L 120.286201 331.84705 
L 122.176385 332.730613 
L 124.06657 333.429792 
L 125.956755 333.974036 
L 127.846939 334.390852 
L 129.737124 334.704993 
L 131.627309 334.938018 
L 133.517493 335.10817 
L 135.407678 335.230488 
L 137.297863 335.317065 
L 139.188048 335.377408 
L 141.078232 335.418827 
L 142.968417 335.446826 
L 144.858602 335.465469 
L 146.748786 335.477695 
L 148.638971 335.485595 
L 150.529156 335.490622 
L 152.41934 335.493774 
L 154.309525 335.495722 
L 156.19971 335.496907 
L 158.089895 335.497618 
L 159.980079 335.498038 
L 161.870264 335.498282 
L 163.760449 335.498423 
L 165.650633 335.498502 
L 167.540818 335.498546 
L 169.431003 335.49857 
L 171.321187 335.498584 
L 173.211372 335.498591 
L 175.101557 335.498594 
L 176.991741 335.498596 
L 178.881926 335.498597 
L 180.772111 335.498598 
L 182.662296 335.498598 
L 184.55248 335.498598 
L 186.442665 335.498598 
L 188.33285 335.498598 
L 190.223034 335.498598 
L 192.113219 335.498598 
L 194.003404 335.498598 
L 195.893588 335.498598 
L 197.783773 335.498598 
L 199.673958 335.498598 
L 201.564143 335.498598 
L 203.454327 335.498598 
" clip-path="url(#p94a9932c5d)" style="fill: none; stroke: #000000; stroke-width: 0.6; stroke-linecap: square"/>
   </g>
   <g id="patch_7">
    <path d="M 3.00024 340.321635 
L 212.99976 340.321635 
" style="fill: none; stroke: #000000; stroke-width: 0.8; stroke-linejoin: miter; stroke-linecap: square"/>
   </g>
  </g>
 </g>
 <defs>
  <clipPath id="p6a312305cf">
   <rect x="3.00024" y="3.00024" width="209.99952" height="106.106812"/>
  </clipPath>
  <clipPath id="p5bdaefbfd8">
   <rect x="3.00024" y="118.607532" width="209.99952" height="106.106812"/>
  </clipPath>
  <clipPath id="p94a9932c5d">
   <rect x="3.00024" y="234.214823" width="209.99952" height="106.106812"/>
  </clipPath>
 </defs>
</svg>
