<?xml version="1.0" encoding="utf-8" standalone="no"?>
<!DOCTYPE svg PUBLIC "-//W3C//DTD SVG 1.1//EN"
  "http://www.w3.org/Graphics/SVG/1.1/DTD/svg11.dtd">
<svg xmlns:xlink="http://www.w3.org/1999/xlink" width="216pt" height="360pt" viewBox="0 0 216 360" xmlns="http://www.w3.org/2000/svg" version="1.1">
 <metadata>
  <rdf:RDF xmlns:dc="http://purl.org/dc/elements/1.1/" xmlns:cc="http://creativecommons.org/ns#" xmlns:rdf="http://www.w3.org/1999/02/22-rdf-syntax-ns#">
   <cc:Work>
    <dc:type rdf:resource="http://purl.org/dc/dcmitype/StillImage"/>
    <dc:date>2025-10-03T12:03:58.762128</dc:date>
    <dc:format>image/svg+xml</dc:format>
    <dc:creator>
     <cc:Agent>
      <dc:title>Matplotlib v3.10.3, https://matplotlib.org/</dc:title>
     </cc:Agent>
    </dc:creator>
   </cc:Work>
  </rdf:RDF>
 </metadata>
 <defs>
  <style type="text/css">*{stroke-linejoin: round; stroke-linecap: butt}</style>
 </defs>
 <g id="figure_1">
  <g id="patch_1">
   <path d="M 0 360 
L 216 360 
L 216 0 
L 0 0 
z
" style="fill: #ffffff"/>
  </g>
  <g id="axes_1">
   <g id="patch_2">
    <path d="M 3.00024 109.107052 
L 212.99976 109.107052 
L 212.99976 3.00024 
L 3.00024 3.00024 
z
" style="fill: #ffffff"/>
   </g>
   <g id="FillBetweenPolyCollection_1">
    <defs>
     <path id="m6df81fafe1" d="M 12.545673 -255.715985 
L 12.545673 -255.715985 
L 14.435857 -255.715985 
L 16.326042 -255.715985 
L 18.216227 -255.715985 
L 20.106412 -255.715985 
L 21.996596 -255.715985 
L 23.886781 -255.715985 
L 25.776966 -255.715985 
L 27.66715 -255.715985 
L 29.557335 -255.715985 
L 31.44752 -255.715985 
L 33.337704 -255.715985 
L 35.227889 -255.715985 
L 37.118074 -255.715985 
L 39.008259 -255.715985 
L 40.898443 -255.715985 
L 42.788628 -255.715985 
L 44.678813 -255.715985 
L 46.568997 -255.715985 
L 48.459182 -255.715985 
L 50.349367 -255.715985 
L 52.239551 -255.715985 
L 54.129736 -255.715985 
L 56.019921 -255.715985 
L 57.910105 -255.715985 
L 59.80029 -255.715985 
L 61.690475 -255.715985 
L 63.58066 -255.715985 
L 65.470844 -255.715985 
L 67.361029 -255.715985 
L 69.251214 -255.715985 
L 71.141398 -255.715985 
L 73.031583 -255.715985 
L 74.921768 -255.715985 
L 76.811952 -255.715985 
L 78.702137 -255.715985 
L 80.592322 -255.715985 
L 82.482507 -255.715985 
L 84.372691 -255.715985 
L 86.262876 -255.715985 
L 88.153061 -255.715985 
L 90.043245 -255.715985 
L 91.93343 -255.715985 
L 93.823615 -255.715985 
L 95.713799 -255.715985 
L 97.603984 -255.715985 
L 99.494169 -255.715985 
L 101.384354 -255.715985 
L 103.274538 -255.715985 
L 105.164723 -255.715985 
L 107.054908 -255.715985 
L 108.945092 -255.715985 
L 110.835277 -255.715985 
L 112.725462 -255.715985 
L 114.615646 -255.715985 
L 116.505831 -255.715985 
L 118.396016 -255.715985 
L 120.286201 -255.715985 
L 122.176385 -255.715986 
L 124.06657 -255.715987 
L 125.956755 -255.715992 
L 127.846939 -255.716011 
L 129.737124 -255.716076 
L 131.627309 -255.716295 
L 133.517493 -255.716981 
L 135.407678 -255.719008 
L 137.297863 -255.724658 
L 139.188048 -255.739502 
L 141.078232 -255.776253 
L 142.968417 -255.861957 
L 144.858602 -256.050127 
L 146.748786 -256.438873 
L 148.638971 -257.194033 
L 150.529156 -258.572154 
L 152.41934 -260.932216 
L 154.309525 -264.719399 
L 156.19971 -270.403057 
L 158.089895 -278.359339 
L 159.980079 -288.709139 
L 161.870264 -301.150348 
L 163.760449 -314.847988 
L 165.650633 -328.45012 
L 167.540818 -340.269469 
L 169.431003 -348.61311 
L 171.321187 -352.176723 
L 173.211372 -350.378149 
L 175.101557 -343.513013 
L 176.991741 -332.675219 
L 178.881926 -319.471712 
L 180.772111 -305.633759 
L 182.662296 -292.653592 
L 184.55248 -281.548092 
L 186.442665 -272.789717 
L 188.33285 -266.381323 
L 190.223034 -262.012472 
L 192.113219 -259.229158 
L 194.003404 -257.568571 
L 195.893588 -256.639268 
L 197.783773 -256.150864 
L 199.673958 -255.909574 
L 201.564143 -255.797431 
L 203.454327 -255.74837 
L 203.454327 -255.715985 
L 203.454327 -255.715985 
L 201.564143 -255.715985 
L 199.673958 -255.715985 
L 197.783773 -255.715985 
L 195.893588 -255.715985 
L 194.003404 -255.715985 
L 192.113219 -255.715985 
L 190.223034 -255.715985 
L 188.33285 -255.715985 
L 186.442665 -255.715985 
L 184.55248 -255.715985 
L 182.662296 -255.715985 
L 180.772111 -255.715985 
L 178.881926 -255.715985 
L 176.991741 -255.715985 
L 175.101557 -255.715985 
L 173.211372 -255.715985 
L 171.321187 -255.715985 
L 169.431003 -255.715985 
L 167.540818 -255.715985 
L 165.650633 -255.715985 
L 163.760449 -255.715985 
L 161.870264 -255.715985 
L 159.980079 -255.715985 
L 158.089895 -255.715985 
L 156.19971 -255.715985 
L 154.309525 -255.715985 
L 152.41934 -255.715985 
L 150.529156 -255.715985 
L 148.638971 -255.715985 
L 146.748786 -255.715985 
L 144.858602 -255.715985 
L 142.968417 -255.715985 
L 141.078232 -255.715985 
L 139.188048 -255.715985 
L 137.297863 -255.715985 
L 135.407678 -255.715985 
L 133.517493 -255.715985 
L 131.627309 -255.715985 
L 129.737124 -255.715985 
L 127.846939 -255.715985 
L 125.956755 -255.715985 
L 124.06657 -255.715985 
L 122.176385 -255.715985 
L 120.286201 -255.715985 
L 118.396016 -255.715985 
L 116.505831 -255.715985 
L 114.615646 -255.715985 
L 112.725462 -255.715985 
L 110.835277 -255.715985 
L 108.945092 -255.715985 
L 107.054908 -255.715985 
L 105.164723 -255.715985 
L 103.274538 -255.715985 
L 101.384354 -255.715985 
L 99.494169 -255.715985 
L 97.603984 -255.715985 
L 95.713799 -255.715985 
L 93.823615 -255.715985 
L 91.93343 -255.715985 
L 90.043245 -255.715985 
L 88.153061 -255.715985 
L 86.262876 -255.715985 
L 84.372691 -255.715985 
L 82.482507 -255.715985 
L 80.592322 -255.715985 
L 78.702137 -255.715985 
L 76.811952 -255.715985 
L 74.921768 -255.715985 
L 73.031583 -255.715985 
L 71.141398 -255.715985 
L 69.251214 -255.715985 
L 67.361029 -255.715985 
L 65.470844 -255.715985 
L 63.58066 -255.715985 
L 61.690475 -255.715985 
L 59.80029 -255.715985 
L 57.910105 -255.715985 
L 56.019921 -255.715985 
L 54.129736 -255.715985 
L 52.239551 -255.715985 
L 50.349367 -255.715985 
L 48.459182 -255.715985 
L 46.568997 -255.715985 
L 44.678813 -255.715985 
L 42.788628 -255.715985 
L 40.898443 -255.715985 
L 39.008259 -255.715985 
L 37.118074 -255.715985 
L 35.227889 -255.715985 
L 33.337704 -255.715985 
L 31.44752 -255.715985 
L 29.557335 -255.715985 
L 27.66715 -255.715985 
L 25.776966 -255.715985 
L 23.886781 -255.715985 
L 21.996596 -255.715985 
L 20.106412 -255.715985 
L 18.216227 -255.715985 
L 16.326042 -255.715985 
L 14.435857 -255.715985 
L 12.545673 -255.715985 
z
"/>
    </defs>
    <g clip-path="url(#p682de43e9b)">
     <use xlink:href="#m6df81fafe1" x="0" y="360" style="fill: #761e58; fill-opacity: 0.4"/>
    </g>
   </g>
   <g id="FillBetweenPolyCollection_2">
    <defs>
     <path id="m2fd7d466c1" d="M 12.545673 -255.715985 
L 12.545673 -255.715985 
L 14.435857 -255.715985 
L 16.326042 -255.715985 
L 18.216227 -255.715985 
L 20.106412 -255.715985 
L 21.996596 -255.715985 
L 23.886781 -255.715985 
L 25.776966 -255.715985 
L 27.66715 -255.715985 
L 29.557335 -255.715985 
L 31.44752 -255.715985 
L 33.337704 -255.715985 
L 35.227889 -255.715985 
L 37.118074 -255.715985 
L 39.008259 -255.715985 
L 40.898443 -255.715985 
L 42.788628 -255.715985 
L 44.678813 -255.715985 
L 46.568997 -255.715985 
L 48.459182 -255.715985 
L 50.349367 -255.715985 
L 52.239551 -255.715985 
L 54.129736 -255.715985 
L 56.019921 -255.715985 
L 57.910105 -255.715985 
L 59.80029 -255.715985 
L 61.690475 -255.715985 
L 63.58066 -255.715985 
L 65.470844 -255.715985 
L 67.361029 -255.715985 
L 69.251214 -255.715985 
L 71.141398 -255.715985 
L 73.031583 -255.715985 
L 74.921768 -255.715986 
L 76.811952 -255.715986 
L 78.702137 -255.715987 
L 80.592322 -255.715989 
L 82.482507 -255.715993 
L 84.372691 -255.715999 
L 86.262876 -255.716012 
L 88.153061 -255.716036 
L 90.043245 -255.716079 
L 91.93343 -255.716156 
L 93.823615 -255.716293 
L 95.713799 -255.716533 
L 97.603984 -255.716943 
L 99.494169 -255.717639 
L 101.384354 -255.718799 
L 103.274538 -255.720708 
L 105.164723 -255.723798 
L 107.054908 -255.72873 
L 108.945092 -255.736484 
L 110.835277 -255.748494 
L 112.725462 -255.766818 
L 114.615646 -255.794355 
L 116.505831 -255.835115 
L 118.396016 -255.894537 
L 120.286201 -255.979849 
L 122.176385 -256.100455 
L 124.06657 -256.268335 
L 125.956755 -256.498399 
L 127.846939 -256.808752 
L 129.737124 -257.220818 
L 131.627309 -257.75922 
L 133.517493 -258.451365 
L 135.407678 -259.326643 
L 137.297863 -260.415192 
L 139.188048 -261.74619 
L 141.078232 -263.345712 
L 142.968417 -265.234195 
L 144.858602 -267.423669 
L 146.748786 -269.914929 
L 148.638971 -272.694922 
L 150.529156 -275.734615 
L 152.41934 -278.987657 
L 154.309525 -282.390111 
L 156.19971 -285.861464 
L 158.089895 -289.307035 
L 159.980079 -292.621761 
L 161.870264 -295.695221 
L 163.760449 -298.417573 
L 165.650633 -300.685992 
L 167.540818 -302.41108 
L 169.431003 -303.522705 
L 171.321187 -303.974731 
L 173.211372 -303.748186 
L 175.101557 -302.852594 
L 176.991741 -301.325302 
L 178.881926 -299.228901 
L 180.772111 -296.646969 
L 182.662296 -293.678552 
L 184.55248 -290.431878 
L 186.442665 -287.01787 
L 188.33285 -283.543988 
L 190.223034 -280.108859 
L 192.113219 -276.798056 
L 194.003404 -273.681223 
L 195.893588 -270.8106 
L 197.783773 -268.220893 
L 199.673958 -265.930279 
L 201.564143 -263.942305 
L 203.454327 -262.248377 
L 203.454327 -255.715985 
L 203.454327 -255.715985 
L 201.564143 -255.715985 
L 199.673958 -255.715985 
L 197.783773 -255.715985 
L 195.893588 -255.715985 
L 194.003404 -255.715985 
L 192.113219 -255.715985 
L 190.223034 -255.715985 
L 188.33285 -255.715985 
L 186.442665 -255.715985 
L 184.55248 -255.715985 
L 182.662296 -255.715985 
L 180.772111 -255.715985 
L 178.881926 -255.715985 
L 176.991741 -255.715985 
L 175.101557 -255.715985 
L 173.211372 -255.715985 
L 171.321187 -255.715985 
L 169.431003 -255.715985 
L 167.540818 -255.715985 
L 165.650633 -255.715985 
L 163.760449 -255.715985 
L 161.870264 -255.715985 
L 159.980079 -255.715985 
L 158.089895 -255.715985 
L 156.19971 -255.715985 
L 154.309525 -255.715985 
L 152.41934 -255.715985 
L 150.529156 -255.715985 
L 148.638971 -255.715985 
L 146.748786 -255.715985 
L 144.858602 -255.715985 
L 142.968417 -255.715985 
L 141.078232 -255.715985 
L 139.188048 -255.715985 
L 137.297863 -255.715985 
L 135.407678 -255.715985 
L 133.517493 -255.715985 
L 131.627309 -255.715985 
L 129.737124 -255.715985 
L 127.846939 -255.715985 
L 125.956755 -255.715985 
L 124.06657 -255.715985 
L 122.176385 -255.715985 
L 120.286201 -255.715985 
L 118.396016 -255.715985 
L 116.505831 -255.715985 
L 114.615646 -255.715985 
L 112.725462 -255.715985 
L 110.835277 -255.715985 
L 108.945092 -255.715985 
L 107.054908 -255.715985 
L 105.164723 -255.715985 
L 103.274538 -255.715985 
L 101.384354 -255.715985 
L 99.494169 -255.715985 
L 97.603984 -255.715985 
L 95.713799 -255.715985 
L 93.823615 -255.715985 
L 91.93343 -255.715985 
L 90.043245 -255.715985 
L 88.153061 -255.715985 
L 86.262876 -255.715985 
L 84.372691 -255.715985 
L 82.482507 -255.715985 
L 80.592322 -255.715985 
L 78.702137 -255.715985 
L 76.811952 -255.715985 
L 74.921768 -255.715985 
L 73.031583 -255.715985 
L 71.141398 -255.715985 
L 69.251214 -255.715985 
L 67.361029 -255.715985 
L 65.470844 -255.715985 
L 63.58066 -255.715985 
L 61.690475 -255.715985 
L 59.80029 -255.715985 
L 57.910105 -255.715985 
L 56.019921 -255.715985 
L 54.129736 -255.715985 
L 52.239551 -255.715985 
L 50.349367 -255.715985 
L 48.459182 -255.715985 
L 46.568997 -255.715985 
L 44.678813 -255.715985 
L 42.788628 -255.715985 
L 40.898443 -255.715985 
L 39.008259 -255.715985 
L 37.118074 -255.715985 
L 35.227889 -255.715985 
L 33.337704 -255.715985 
L 31.44752 -255.715985 
L 29.557335 -255.715985 
L 27.66715 -255.715985 
L 25.776966 -255.715985 
L 23.886781 -255.715985 
L 21.996596 -255.715985 
L 20.106412 -255.715985 
L 18.216227 -255.715985 
L 16.326042 -255.715985 
L 14.435857 -255.715985 
L 12.545673 -255.715985 
z
" style="stroke: #55a868; stroke-opacity: 0.4; stroke-width: 0.3"/>
    </defs>
    <g clip-path="url(#p682de43e9b)">
     <use xlink:href="#m2fd7d466c1" x="0" y="360" style="fill: #55a868; fill-opacity: 0.4; stroke: #55a868; stroke-opacity: 0.4; stroke-width: 0.3"/>
    </g>
   </g>
   <g id="matplotlib.axis_1">
    <g id="xtick_1">
     <g id="line2d_1">
      <defs>
       <path id="m58902f2bb5" d="M 0 0 
L 0 3.5 
" style="stroke: #000000; stroke-width: 0.8"/>
      </defs>
      <g>
       <use xlink:href="#m58902f2bb5" x="28.454727" y="109.107052" style="stroke: #000000; stroke-width: 0.8"/>
      </g>
     </g>
    </g>
    <g id="xtick_2">
     <g id="line2d_2">
      <g>
       <use xlink:href="#m58902f2bb5" x="68.227364" y="109.107052" style="stroke: #000000; stroke-width: 0.8"/>
      </g>
     </g>
    </g>
    <g id="xtick_3">
     <g id="line2d_3">
      <g>
       <use xlink:href="#m58902f2bb5" x="108" y="109.107052" style="stroke: #000000; stroke-width: 0.8"/>
      </g>
     </g>
    </g>
    <g id="xtick_4">
     <g id="line2d_4">
      <g>
       <use xlink:href="#m58902f2bb5" x="147.772636" y="109.107052" style="stroke: #000000; stroke-width: 0.8"/>
      </g>
     </g>
    </g>
    <g id="xtick_5">
     <g id="line2d_5">
      <g>
       <use xlink:href="#m58902f2bb5" x="187.545273" y="109.107052" style="stroke: #000000; stroke-width: 0.8"/>
      </g>
     </g>
    </g>
   </g>
   <g id="line2d_6">
    <path d="M 12.545673 104.284015 
L 14.435857 104.284015 
L 16.326042 104.284015 
L 18.216227 104.284015 
L 20.106412 104.284015 
L 21.996596 104.284015 
L 23.886781 104.284015 
L 25.776966 104.284015 
L 27.66715 104.284015 
L 29.557335 104.284015 
L 31.44752 104.284015 
L 33.337704 104.284015 
L 35.227889 104.284015 
L 37.118074 104.284015 
L 39.008259 104.284015 
L 40.898443 104.284015 
L 42.788628 104.284015 
L 44.678813 104.284015 
L 46.568997 104.284015 
L 48.459182 104.284015 
L 50.349367 104.284015 
L 52.239551 104.284015 
L 54.129736 104.284015 
L 56.019921 104.284015 
L 57.910105 104.284015 
L 59.80029 104.284015 
L 61.690475 104.284015 
L 63.58066 104.284015 
L 65.470844 104.284015 
L 67.361029 104.284015 
L 69.251214 104.284015 
L 71.141398 104.284015 
L 73.031583 104.284015 
L 74.921768 104.284015 
L 76.811952 104.284015 
L 78.702137 104.284015 
L 80.592322 104.284015 
L 82.482507 104.284015 
L 84.372691 104.284015 
L 86.262876 104.284015 
L 88.153061 104.284015 
L 90.043245 104.284015 
L 91.93343 104.284015 
L 93.823615 104.284015 
L 95.713799 104.284015 
L 97.603984 104.284015 
L 99.494169 104.284015 
L 101.384354 104.284015 
L 103.274538 104.284015 
L 105.164723 104.284015 
L 107.054908 104.284015 
L 108.945092 104.284015 
L 110.835277 104.284015 
L 112.725462 104.284015 
L 114.615646 104.284015 
L 116.505831 104.284015 
L 118.396016 104.284015 
L 120.286201 104.284015 
L 122.176385 104.284014 
L 124.06657 104.284013 
L 125.956755 104.284008 
L 127.846939 104.283989 
L 129.737124 104.283924 
L 131.627309 104.283705 
L 133.517493 104.283019 
L 135.407678 104.280992 
L 137.297863 104.275342 
L 139.188048 104.260498 
L 141.078232 104.223747 
L 142.968417 104.138043 
L 144.858602 103.949873 
L 146.748786 103.561127 
L 148.638971 102.805967 
L 150.529156 101.427846 
L 152.41934 99.067784 
L 154.309525 95.280601 
L 156.19971 89.596943 
L 158.089895 81.640661 
L 159.980079 71.290861 
L 161.870264 58.849652 
L 163.760449 45.152012 
L 165.650633 31.54988 
L 167.540818 19.730531 
L 169.431003 11.38689 
L 171.321187 7.823277 
L 173.211372 9.621851 
L 175.101557 16.486987 
L 176.991741 27.324781 
L 178.881926 40.528288 
L 180.772111 54.366241 
L 182.662296 67.346408 
L 184.55248 78.451908 
L 186.442665 87.210283 
L 188.33285 93.618677 
L 190.223034 97.987528 
L 192.113219 100.770842 
L 194.003404 102.431429 
L 195.893588 103.360732 
L 197.783773 103.849136 
L 199.673958 104.090426 
L 201.564143 104.202569 
L 203.454327 104.25163 
" clip-path="url(#p682de43e9b)" style="fill: none; stroke: #000000; stroke-width: 0.6; stroke-linecap: square"/>
   </g>
   <g id="line2d_7">
    <path d="M 12.545673 104.284015 
L 14.435857 104.284015 
L 16.326042 104.284015 
L 18.216227 104.284015 
L 20.106412 104.284015 
L 21.996596 104.284015 
L 23.886781 104.284015 
L 25.776966 104.284015 
L 27.66715 104.284015 
L 29.557335 104.284015 
L 31.44752 104.284015 
L 33.337704 104.284015 
L 35.227889 104.284015 
L 37.118074 104.284015 
L 39.008259 104.284015 
L 40.898443 104.284015 
L 42.788628 104.284015 
L 44.678813 104.284015 
L 46.568997 104.284015 
L 48.459182 104.284015 
L 50.349367 104.284015 
L 52.239551 104.284015 
L 54.129736 104.284015 
L 56.019921 104.284015 
L 57.910105 104.284015 
L 59.80029 104.284015 
L 61.690475 104.284015 
L 63.58066 104.284015 
L 65.470844 104.284015 
L 67.361029 104.284015 
L 69.251214 104.284015 
L 71.141398 104.284015 
L 73.031583 104.284015 
L 74.921768 104.284014 
L 76.811952 104.284014 
L 78.702137 104.284013 
L 80.592322 104.284011 
L 82.482507 104.284007 
L 84.372691 104.284001 
L 86.262876 104.283988 
L 88.153061 104.283964 
L 90.043245 104.283921 
L 91.93343 104.283844 
L 93.823615 104.283707 
L 95.713799 104.283467 
L 97.603984 104.283057 
L 99.494169 104.282361 
L 101.384354 104.281201 
L 103.274538 104.279292 
L 105.164723 104.276202 
L 107.054908 104.27127 
L 108.945092 104.263516 
L 110.835277 104.251506 
L 112.725462 104.233182 
L 114.615646 104.205645 
L 116.505831 104.164885 
L 118.396016 104.105463 
L 120.286201 104.020151 
L 122.176385 103.899545 
L 124.06657 103.731665 
L 125.956755 103.501601 
L 127.846939 103.191248 
L 129.737124 102.779182 
L 131.627309 102.24078 
L 133.517493 101.548635 
L 135.407678 100.673357 
L 137.297863 99.584808 
L 139.188048 98.25381 
L 141.078232 96.654288 
L 142.968417 94.765805 
L 144.858602 92.576331 
L 146.748786 90.085071 
L 148.638971 87.305078 
L 150.529156 84.265385 
L 152.41934 81.012343 
L 154.309525 77.609889 
L 156.19971 74.138536 
L 158.089895 70.692965 
L 159.980079 67.378239 
L 161.870264 64.304779 
L 163.760449 61.582427 
L 165.650633 59.314008 
L 167.540818 57.58892 
L 169.431003 56.477295 
L 171.321187 56.025269 
L 173.211372 56.251814 
L 175.101557 57.147406 
L 176.991741 58.674698 
L 178.881926 60.771099 
L 180.772111 63.353031 
L 182.662296 66.321448 
L 184.55248 69.568122 
L 186.442665 72.98213 
L 188.33285 76.456012 
L 190.223034 79.891141 
L 192.113219 83.201944 
L 194.003404 86.318777 
L 195.893588 89.1894 
L 197.783773 91.779107 
L 199.673958 94.069721 
L 201.564143 96.057695 
L 203.454327 97.751623 
" clip-path="url(#p682de43e9b)" style="fill: none; stroke: #000000; stroke-width: 0.6; stroke-linecap: square"/>
   </g>
   <g id="patch_3">
    <path d="M 3.00024 109.107052 
L 212.99976 109.107052 
" style="fill: none; stroke: #000000; stroke-width: 0.8; stroke-linejoin: miter; stroke-linecap: square"/>
   </g>
  </g>
  <g id="axes_2">
   <g id="patch_4">
    <path d="M 3.00024 224.714343 
L 212.99976 224.714343 
L 212.99976 118.607532 
L 3.00024 118.607532 
z
" style="fill: #ffffff"/>
   </g>
   <g id="FillBetweenPolyCollection_3">
    <defs>
     <path id="m8a28161dd7" d="M 12.545673 -140.108694 
L 12.545673 -140.376799 
L 14.435857 -140.428538 
L 16.326042 -140.488917 
L 18.216227 -140.559102 
L 20.106412 -140.640362 
L 21.996596 -140.734072 
L 23.886781 -140.841708 
L 25.776966 -140.964842 
L 27.66715 -141.105138 
L 29.557335 -141.264339 
L 31.44752 -141.444254 
L 33.337704 -141.646741 
L 35.227889 -141.873687 
L 37.118074 -142.126985 
L 39.008259 -142.408505 
L 40.898443 -142.720059 
L 42.788628 -143.063374 
L 44.678813 -143.440048 
L 46.568997 -143.851509 
L 48.459182 -144.298976 
L 50.349367 -144.783413 
L 52.239551 -145.305484 
L 54.129736 -145.865507 
L 56.019921 -146.463414 
L 57.910105 -147.098709 
L 59.80029 -147.770428 
L 61.690475 -148.477113 
L 63.58066 -149.21678 
L 65.470844 -149.986902 
L 67.361029 -150.784399 
L 69.251214 -151.605634 
L 71.141398 -152.446427 
L 73.031583 -153.302065 
L 74.921768 -154.167342 
L 76.811952 -155.036592 
L 78.702137 -155.903749 
L 80.592322 -156.762402 
L 82.482507 -157.605875 
L 84.372691 -158.427307 
L 86.262876 -159.219739 
L 88.153061 -159.976213 
L 90.043245 -160.689869 
L 91.93343 -161.354052 
L 93.823615 -161.962409 
L 95.713799 -162.508995 
L 97.603984 -162.988365 
L 99.494169 -163.395668 
L 101.384354 -163.726724 
L 103.274538 -163.978101 
L 105.164723 -164.14717 
L 107.054908 -164.232153 
L 108.945092 -164.232153 
L 110.835277 -164.14717 
L 112.725462 -163.978101 
L 114.615646 -163.726724 
L 116.505831 -163.395668 
L 118.396016 -162.988365 
L 120.286201 -162.508995 
L 122.176385 -161.962409 
L 124.06657 -161.354052 
L 125.956755 -160.689869 
L 127.846939 -159.976213 
L 129.737124 -159.219739 
L 131.627309 -158.427307 
L 133.517493 -157.605875 
L 135.407678 -156.762402 
L 137.297863 -155.903749 
L 139.188048 -155.036592 
L 141.078232 -154.167342 
L 142.968417 -153.302065 
L 144.858602 -152.446427 
L 146.748786 -151.605634 
L 148.638971 -150.784399 
L 150.529156 -149.986902 
L 152.41934 -149.21678 
L 154.309525 -148.477113 
L 156.19971 -147.770428 
L 158.089895 -147.098709 
L 159.980079 -146.463414 
L 161.870264 -145.865507 
L 163.760449 -145.305484 
L 165.650633 -144.783413 
L 167.540818 -144.298976 
L 169.431003 -143.851509 
L 171.321187 -143.440048 
L 173.211372 -143.063374 
L 175.101557 -142.720059 
L 176.991741 -142.408505 
L 178.881926 -142.126985 
L 180.772111 -141.873687 
L 182.662296 -141.646741 
L 184.55248 -141.444254 
L 186.442665 -141.264339 
L 188.33285 -141.105138 
L 190.223034 -140.964842 
L 192.113219 -140.841708 
L 194.003404 -140.734072 
L 195.893588 -140.640362 
L 197.783773 -140.559102 
L 199.673958 -140.488917 
L 201.564143 -140.428538 
L 203.454327 -140.376799 
L 203.454327 -140.108694 
L 203.454327 -140.108694 
L 201.564143 -140.108694 
L 199.673958 -140.108694 
L 197.783773 -140.108694 
L 195.893588 -140.108694 
L 194.003404 -140.108694 
L 192.113219 -140.108694 
L 190.223034 -140.108694 
L 188.33285 -140.108694 
L 186.442665 -140.108694 
L 184.55248 -140.108694 
L 182.662296 -140.108694 
L 180.772111 -140.108694 
L 178.881926 -140.108694 
L 176.991741 -140.108694 
L 175.101557 -140.108694 
L 173.211372 -140.108694 
L 171.321187 -140.108694 
L 169.431003 -140.108694 
L 167.540818 -140.108694 
L 165.650633 -140.108694 
L 163.760449 -140.108694 
L 161.870264 -140.108694 
L 159.980079 -140.108694 
L 158.089895 -140.108694 
L 156.19971 -140.108694 
L 154.309525 -140.108694 
L 152.41934 -140.108694 
L 150.529156 -140.108694 
L 148.638971 -140.108694 
L 146.748786 -140.108694 
L 144.858602 -140.108694 
L 142.968417 -140.108694 
L 141.078232 -140.108694 
L 139.188048 -140.108694 
L 137.297863 -140.108694 
L 135.407678 -140.108694 
L 133.517493 -140.108694 
L 131.627309 -140.108694 
L 129.737124 -140.108694 
L 127.846939 -140.108694 
L 125.956755 -140.108694 
L 124.06657 -140.108694 
L 122.176385 -140.108694 
L 120.286201 -140.108694 
L 118.396016 -140.108694 
L 116.505831 -140.108694 
L 114.615646 -140.108694 
L 112.725462 -140.108694 
L 110.835277 -140.108694 
L 108.945092 -140.108694 
L 107.054908 -140.108694 
L 105.164723 -140.108694 
L 103.274538 -140.108694 
L 101.384354 -140.108694 
L 99.494169 -140.108694 
L 97.603984 -140.108694 
L 95.713799 -140.108694 
L 93.823615 -140.108694 
L 91.93343 -140.108694 
L 90.043245 -140.108694 
L 88.153061 -140.108694 
L 86.262876 -140.108694 
L 84.372691 -140.108694 
L 82.482507 -140.108694 
L 80.592322 -140.108694 
L 78.702137 -140.108694 
L 76.811952 -140.108694 
L 74.921768 -140.108694 
L 73.031583 -140.108694 
L 71.141398 -140.108694 
L 69.251214 -140.108694 
L 67.361029 -140.108694 
L 65.470844 -140.108694 
L 63.58066 -140.108694 
L 61.690475 -140.108694 
L 59.80029 -140.108694 
L 57.910105 -140.108694 
L 56.019921 -140.108694 
L 54.129736 -140.108694 
L 52.239551 -140.108694 
L 50.349367 -140.108694 
L 48.459182 -140.108694 
L 46.568997 -140.108694 
L 44.678813 -140.108694 
L 42.788628 -140.108694 
L 40.898443 -140.108694 
L 39.008259 -140.108694 
L 37.118074 -140.108694 
L 35.227889 -140.108694 
L 33.337704 -140.108694 
L 31.44752 -140.108694 
L 29.557335 -140.108694 
L 27.66715 -140.108694 
L 25.776966 -140.108694 
L 23.886781 -140.108694 
L 21.996596 -140.108694 
L 20.106412 -140.108694 
L 18.216227 -140.108694 
L 16.326042 -140.108694 
L 14.435857 -140.108694 
L 12.545673 -140.108694 
z
"/>
    </defs>
    <g clip-path="url(#p4f98ab057c)">
     <use xlink:href="#m8a28161dd7" x="0" y="360" style="fill: #761e58; fill-opacity: 0.4"/>
    </g>
   </g>
   <g id="FillBetweenPolyCollection_4">
    <defs>
     <path id="mbf79d12b66" d="M 12.545673 -140.108694 
L 12.545673 -140.111385 
L 14.435857 -140.112476 
L 16.326042 -140.113974 
L 18.216227 -140.116021 
L 20.106412 -140.118797 
L 21.996596 -140.122539 
L 23.886781 -140.127546 
L 25.776966 -140.134204 
L 27.66715 -140.142998 
L 29.557335 -140.154535 
L 31.44752 -140.169569 
L 33.337704 -140.189027 
L 35.227889 -140.214041 
L 37.118074 -140.245981 
L 39.008259 -140.286485 
L 40.898443 -140.3375 
L 42.788628 -140.401311 
L 44.678813 -140.480577 
L 46.568997 -140.578359 
L 48.459182 -140.698143 
L 50.349367 -140.843849 
L 52.239551 -141.019838 
L 54.129736 -141.230894 
L 56.019921 -141.482195 
L 57.910105 -141.779257 
L 59.80029 -142.127861 
L 61.690475 -142.533945 
L 63.58066 -143.00348 
L 65.470844 -143.542308 
L 67.361029 -144.15596 
L 69.251214 -144.849448 
L 71.141398 -145.627032 
L 73.031583 -146.491982 
L 74.921768 -147.446325 
L 76.811952 -148.490597 
L 78.702137 -149.623602 
L 80.592322 -150.842208 
L 82.482507 -152.141155 
L 84.372691 -153.512938 
L 86.262876 -154.947723 
L 88.153061 -156.433344 
L 90.043245 -157.95538 
L 91.93343 -159.497299 
L 93.823615 -161.040699 
L 95.713799 -162.565624 
L 97.603984 -164.050958 
L 99.494169 -165.474889 
L 101.384354 -166.815424 
L 103.274538 -168.050945 
L 105.164723 -169.160782 
L 107.054908 -170.125784 
L 108.945092 -170.92887 
L 110.835277 -171.555527 
L 112.725462 -171.99425 
L 114.615646 -172.236892 
L 116.505831 -172.278913 
L 118.396016 -172.119525 
L 120.286201 -171.761715 
L 122.176385 -171.212151 
L 124.06657 -170.480977 
L 125.956755 -169.581501 
L 127.846939 -168.529791 
L 129.737124 -167.344201 
L 131.627309 -166.044835 
L 133.517493 -164.652989 
L 135.407678 -163.190566 
L 137.297863 -161.67952 
L 139.188048 -160.141317 
L 141.078232 -158.596447 
L 142.968417 -157.064004 
L 144.858602 -155.561331 
L 146.748786 -154.103754 
L 148.638971 -152.704391 
L 150.529156 -151.374051 
L 152.41934 -150.121204 
L 154.309525 -148.952032 
L 156.19971 -147.870536 
L 158.089895 -146.878694 
L 159.980079 -145.976663 
L 161.870264 -145.163008 
L 163.760449 -144.434947 
L 165.650633 -143.788601 
L 167.540818 -143.219244 
L 169.431003 -142.721533 
L 171.321187 -142.289733 
L 173.211372 -141.917907 
L 175.101557 -141.600083 
L 176.991741 -141.330403 
L 178.881926 -141.103228 
L 180.772111 -140.913232 
L 182.662296 -140.755463 
L 184.55248 -140.62538 
L 186.442665 -140.518879 
L 188.33285 -140.432294 
L 190.223034 -140.362389 
L 192.113219 -140.306341 
L 194.003404 -140.261713 
L 195.893588 -140.22642 
L 197.783773 -140.198701 
L 199.673958 -140.177078 
L 201.564143 -140.160325 
L 203.454327 -140.147432 
L 203.454327 -140.108694 
L 203.454327 -140.108694 
L 201.564143 -140.108694 
L 199.673958 -140.108694 
L 197.783773 -140.108694 
L 195.893588 -140.108694 
L 194.003404 -140.108694 
L 192.113219 -140.108694 
L 190.223034 -140.108694 
L 188.33285 -140.108694 
L 186.442665 -140.108694 
L 184.55248 -140.108694 
L 182.662296 -140.108694 
L 180.772111 -140.108694 
L 178.881926 -140.108694 
L 176.991741 -140.108694 
L 175.101557 -140.108694 
L 173.211372 -140.108694 
L 171.321187 -140.108694 
L 169.431003 -140.108694 
L 167.540818 -140.108694 
L 165.650633 -140.108694 
L 163.760449 -140.108694 
L 161.870264 -140.108694 
L 159.980079 -140.108694 
L 158.089895 -140.108694 
L 156.19971 -140.108694 
L 154.309525 -140.108694 
L 152.41934 -140.108694 
L 150.529156 -140.108694 
L 148.638971 -140.108694 
L 146.748786 -140.108694 
L 144.858602 -140.108694 
L 142.968417 -140.108694 
L 141.078232 -140.108694 
L 139.188048 -140.108694 
L 137.297863 -140.108694 
L 135.407678 -140.108694 
L 133.517493 -140.108694 
L 131.627309 -140.108694 
L 129.737124 -140.108694 
L 127.846939 -140.108694 
L 125.956755 -140.108694 
L 124.06657 -140.108694 
L 122.176385 -140.108694 
L 120.286201 -140.108694 
L 118.396016 -140.108694 
L 116.505831 -140.108694 
L 114.615646 -140.108694 
L 112.725462 -140.108694 
L 110.835277 -140.108694 
L 108.945092 -140.108694 
L 107.054908 -140.108694 
L 105.164723 -140.108694 
L 103.274538 -140.108694 
L 101.384354 -140.108694 
L 99.494169 -140.108694 
L 97.603984 -140.108694 
L 95.713799 -140.108694 
L 93.823615 -140.108694 
L 91.93343 -140.108694 
L 90.043245 -140.108694 
L 88.153061 -140.108694 
L 86.262876 -140.108694 
L 84.372691 -140.108694 
L 82.482507 -140.108694 
L 80.592322 -140.108694 
L 78.702137 -140.108694 
L 76.811952 -140.108694 
L 74.921768 -140.108694 
L 73.031583 -140.108694 
L 71.141398 -140.108694 
L 69.251214 -140.108694 
L 67.361029 -140.108694 
L 65.470844 -140.108694 
L 63.58066 -140.108694 
L 61.690475 -140.108694 
L 59.80029 -140.108694 
L 57.910105 -140.108694 
L 56.019921 -140.108694 
L 54.129736 -140.108694 
L 52.239551 -140.108694 
L 50.349367 -140.108694 
L 48.459182 -140.108694 
L 46.568997 -140.108694 
L 44.678813 -140.108694 
L 42.788628 -140.108694 
L 40.898443 -140.108694 
L 39.008259 -140.108694 
L 37.118074 -140.108694 
L 35.227889 -140.108694 
L 33.337704 -140.108694 
L 31.44752 -140.108694 
L 29.557335 -140.108694 
L 27.66715 -140.108694 
L 25.776966 -140.108694 
L 23.886781 -140.108694 
L 21.996596 -140.108694 
L 20.106412 -140.108694 
L 18.216227 -140.108694 
L 16.326042 -140.108694 
L 14.435857 -140.108694 
L 12.545673 -140.108694 
z
" style="stroke: #55a868; stroke-opacity: 0.4; stroke-width: 0.3"/>
    </defs>
    <g clip-path="url(#p4f98ab057c)">
     <use xlink:href="#mbf79d12b66" x="0" y="360" style="fill: #55a868; fill-opacity: 0.4; stroke: #55a868; stroke-opacity: 0.4; stroke-width: 0.3"/>
    </g>
   </g>
   <g id="matplotlib.axis_2">
    <g id="xtick_6">
     <g id="line2d_8">
      <g>
       <use xlink:href="#m58902f2bb5" x="28.454727" y="224.714343" style="stroke: #000000; stroke-width: 0.8"/>
      </g>
     </g>
    </g>
    <g id="xtick_7">
     <g id="line2d_9">
      <g>
       <use xlink:href="#m58902f2bb5" x="68.227364" y="224.714343" style="stroke: #000000; stroke-width: 0.8"/>
      </g>
     </g>
    </g>
    <g id="xtick_8">
     <g id="line2d_10">
      <g>
       <use xlink:href="#m58902f2bb5" x="108" y="224.714343" style="stroke: #000000; stroke-width: 0.8"/>
      </g>
     </g>
    </g>
    <g id="xtick_9">
     <g id="line2d_11">
      <g>
       <use xlink:href="#m58902f2bb5" x="147.772636" y="224.714343" style="stroke: #000000; stroke-width: 0.8"/>
      </g>
     </g>
    </g>
    <g id="xtick_10">
     <g id="line2d_12">
      <g>
       <use xlink:href="#m58902f2bb5" x="187.545273" y="224.714343" style="stroke: #000000; stroke-width: 0.8"/>
      </g>
     </g>
    </g>
   </g>
   <g id="line2d_13">
    <path d="M 12.545673 219.623201 
L 14.435857 219.571462 
L 16.326042 219.511083 
L 18.216227 219.440898 
L 20.106412 219.359638 
L 21.996596 219.265928 
L 23.886781 219.158292 
L 25.776966 219.035158 
L 27.66715 218.894862 
L 29.557335 218.735661 
L 31.44752 218.555746 
L 33.337704 218.353259 
L 35.227889 218.126313 
L 37.118074 217.873015 
L 39.008259 217.591495 
L 40.898443 217.279941 
L 42.788628 216.936626 
L 44.678813 216.559952 
L 46.568997 216.148491 
L 48.459182 215.701024 
L 50.349367 215.216587 
L 52.239551 214.694516 
L 54.129736 214.134493 
L 56.019921 213.536586 
L 57.910105 212.901291 
L 59.80029 212.229572 
L 61.690475 211.522887 
L 63.58066 210.78322 
L 65.470844 210.013098 
L 67.361029 209.215601 
L 69.251214 208.394366 
L 71.141398 207.553573 
L 73.031583 206.697935 
L 74.921768 205.832658 
L 76.811952 204.963408 
L 78.702137 204.096251 
L 80.592322 203.237598 
L 82.482507 202.394125 
L 84.372691 201.572693 
L 86.262876 200.780261 
L 88.153061 200.023787 
L 90.043245 199.310131 
L 91.93343 198.645948 
L 93.823615 198.037591 
L 95.713799 197.491005 
L 97.603984 197.011635 
L 99.494169 196.604332 
L 101.384354 196.273276 
L 103.274538 196.021899 
L 105.164723 195.85283 
L 107.054908 195.767847 
L 108.945092 195.767847 
L 110.835277 195.85283 
L 112.725462 196.021899 
L 114.615646 196.273276 
L 116.505831 196.604332 
L 118.396016 197.011635 
L 120.286201 197.491005 
L 122.176385 198.037591 
L 124.06657 198.645948 
L 125.956755 199.310131 
L 127.846939 200.023787 
L 129.737124 200.780261 
L 131.627309 201.572693 
L 133.517493 202.394125 
L 135.407678 203.237598 
L 137.297863 204.096251 
L 139.188048 204.963408 
L 141.078232 205.832658 
L 142.968417 206.697935 
L 144.858602 207.553573 
L 146.748786 208.394366 
L 148.638971 209.215601 
L 150.529156 210.013098 
L 152.41934 210.78322 
L 154.309525 211.522887 
L 156.19971 212.229572 
L 158.089895 212.901291 
L 159.980079 213.536586 
L 161.870264 214.134493 
L 163.760449 214.694516 
L 165.650633 215.216587 
L 167.540818 215.701024 
L 169.431003 216.148491 
L 171.321187 216.559952 
L 173.211372 216.936626 
L 175.101557 217.279941 
L 176.991741 217.591495 
L 178.881926 217.873015 
L 180.772111 218.126313 
L 182.662296 218.353259 
L 184.55248 218.555746 
L 186.442665 218.735661 
L 188.33285 218.894862 
L 190.223034 219.035158 
L 192.113219 219.158292 
L 194.003404 219.265928 
L 195.893588 219.359638 
L 197.783773 219.440898 
L 199.673958 219.511083 
L 201.564143 219.571462 
L 203.454327 219.623201 
" clip-path="url(#p4f98ab057c)" style="fill: none; stroke: #000000; stroke-width: 0.6; stroke-linecap: square"/>
   </g>
   <g id="line2d_14">
    <path d="M 12.545673 219.888615 
L 14.435857 219.887524 
L 16.326042 219.886026 
L 18.216227 219.883979 
L 20.106412 219.881203 
L 21.996596 219.877461 
L 23.886781 219.872454 
L 25.776966 219.865796 
L 27.66715 219.857002 
L 29.557335 219.845465 
L 31.44752 219.830431 
L 33.337704 219.810973 
L 35.227889 219.785959 
L 37.118074 219.754019 
L 39.008259 219.713515 
L 40.898443 219.6625 
L 42.788628 219.598689 
L 44.678813 219.519423 
L 46.568997 219.421641 
L 48.459182 219.301857 
L 50.349367 219.156151 
L 52.239551 218.980162 
L 54.129736 218.769106 
L 56.019921 218.517805 
L 57.910105 218.220743 
L 59.80029 217.872139 
L 61.690475 217.466055 
L 63.58066 216.99652 
L 65.470844 216.457692 
L 67.361029 215.84404 
L 69.251214 215.150552 
L 71.141398 214.372968 
L 73.031583 213.508018 
L 74.921768 212.553675 
L 76.811952 211.509403 
L 78.702137 210.376398 
L 80.592322 209.157792 
L 82.482507 207.858845 
L 84.372691 206.487062 
L 86.262876 205.052277 
L 88.153061 203.566656 
L 90.043245 202.04462 
L 91.93343 200.502701 
L 93.823615 198.959301 
L 95.713799 197.434376 
L 97.603984 195.949042 
L 99.494169 194.525111 
L 101.384354 193.184576 
L 103.274538 191.949055 
L 105.164723 190.839218 
L 107.054908 189.874216 
L 108.945092 189.07113 
L 110.835277 188.444473 
L 112.725462 188.00575 
L 114.615646 187.763108 
L 116.505831 187.721087 
L 118.396016 187.880475 
L 120.286201 188.238285 
L 122.176385 188.787849 
L 124.06657 189.519023 
L 125.956755 190.418499 
L 127.846939 191.470209 
L 129.737124 192.655799 
L 131.627309 193.955165 
L 133.517493 195.347011 
L 135.407678 196.809434 
L 137.297863 198.32048 
L 139.188048 199.858683 
L 141.078232 201.403553 
L 142.968417 202.935996 
L 144.858602 204.438669 
L 146.748786 205.896246 
L 148.638971 207.295609 
L 150.529156 208.625949 
L 152.41934 209.878796 
L 154.309525 211.047968 
L 156.19971 212.129464 
L 158.089895 213.121306 
L 159.980079 214.023337 
L 161.870264 214.836992 
L 163.760449 215.565053 
L 165.650633 216.211399 
L 167.540818 216.780756 
L 169.431003 217.278467 
L 171.321187 217.710267 
L 173.211372 218.082093 
L 175.101557 218.399917 
L 176.991741 218.669597 
L 178.881926 218.896772 
L 180.772111 219.086768 
L 182.662296 219.244537 
L 184.55248 219.37462 
L 186.442665 219.481121 
L 188.33285 219.567706 
L 190.223034 219.637611 
L 192.113219 219.693659 
L 194.003404 219.738287 
L 195.893588 219.77358 
L 197.783773 219.801299 
L 199.673958 219.822922 
L 201.564143 219.839675 
L 203.454327 219.852568 
" clip-path="url(#p4f98ab057c)" style="fill: none; stroke: #000000; stroke-width: 0.6; stroke-linecap: square"/>
   </g>
   <g id="patch_5">
    <path d="M 3.00024 224.714343 
L 212.99976 224.714343 
" style="fill: none; stroke: #000000; stroke-width: 0.8; stroke-linejoin: miter; stroke-linecap: square"/>
   </g>
  </g>
  <g id="axes_3">
   <g id="patch_6">
    <path d="M 3.00024 340.321635 
L 212.99976 340.321635 
L 212.99976 234.214823 
L 3.00024 234.214823 
z
" style="fill: #ffffff"/>
   </g>
   <g id="FillBetweenPolyCollection_5">
    <defs>
     <path id="m451069c117" d="M 12.545673 -24.501402 
L 12.545673 -24.501402 
L 14.435857 -24.501402 
L 16.326042 -24.501402 
L 18.216227 -24.501402 
L 20.106412 -24.501402 
L 21.996596 -24.501402 
L 23.886781 -24.501402 
L 25.776966 -24.501402 
L 27.66715 -24.501402 
L 29.557335 -24.501402 
L 31.44752 -24.501402 
L 33.337704 -24.501402 
L 35.227889 -24.501402 
L 37.118074 -24.501402 
L 39.008259 -24.501402 
L 40.898443 -24.501402 
L 42.788628 -24.501402 
L 44.678813 -24.501402 
L 46.568997 -24.501402 
L 48.459182 -24.501402 
L 50.349367 -24.501402 
L 52.239551 -24.501402 
L 54.129736 -24.501402 
L 56.019921 -24.501402 
L 57.910105 -24.501402 
L 59.80029 -24.501402 
L 61.690475 -24.501402 
L 63.58066 -24.501402 
L 65.470844 -24.501402 
L 67.361029 -24.501402 
L 69.251214 -24.501402 
L 71.141398 -24.501402 
L 73.031583 -24.501402 
L 74.921768 -24.501402 
L 76.811952 -24.501402 
L 78.702137 -24.501402 
L 80.592322 -24.501402 
L 82.482507 -24.501402 
L 84.372691 -24.501402 
L 86.262876 -24.501402 
L 88.153061 -24.501402 
L 90.043245 -24.501402 
L 91.93343 -24.501402 
L 93.823615 -24.501402 
L 95.713799 -24.501402 
L 97.603984 -24.501402 
L 99.494169 -24.501403 
L 101.384354 -24.501404 
L 103.274538 -24.501407 
L 105.164723 -24.501414 
L 107.054908 -24.50143 
L 108.945092 -24.501467 
L 110.835277 -24.50155 
L 112.725462 -24.501729 
L 114.615646 -24.502109 
L 116.505831 -24.502891 
L 118.396016 -24.504458 
L 120.286201 -24.507522 
L 122.176385 -24.513353 
L 124.06657 -24.52416 
L 125.956755 -24.543667 
L 127.846939 -24.577947 
L 129.737124 -24.636596 
L 131.627309 -24.734265 
L 133.517493 -24.892553 
L 135.407678 -25.142153 
L 137.297863 -25.525012 
L 139.188048 -26.096111 
L 141.078232 -26.924268 
L 142.968417 -28.091269 
L 144.858602 -29.688547 
L 146.748786 -31.810767 
L 148.638971 -34.545988 
L 150.529156 -37.962657 
L 152.41934 -42.094413 
L 154.309525 -46.924517 
L 156.19971 -52.372419 
L 158.089895 -58.285384 
L 159.980079 -64.4379 
L 161.870264 -70.540865 
L 163.760449 -76.26109 
L 165.650633 -81.249875 
L 167.540818 -85.177527 
L 169.431003 -87.769186 
L 171.321187 -88.836584 
L 173.211372 -88.300653 
L 175.101557 -86.201201 
L 176.991741 -82.692031 
L 178.881926 -78.022311 
L 180.772111 -72.507348 
L 182.662296 -66.493514 
L 184.55248 -60.322718 
L 186.442665 -54.301417 
L 188.33285 -48.677853 
L 190.223034 -43.62941 
L 192.113219 -39.260101 
L 194.003404 -35.606631 
L 195.893588 -32.650473 
L 197.783773 -30.33303 
L 199.673958 -28.571198 
L 201.564143 -27.271254 
L 203.454327 -26.339809 
L 203.454327 -24.501402 
L 203.454327 -24.501402 
L 201.564143 -24.501402 
L 199.673958 -24.501402 
L 197.783773 -24.501402 
L 195.893588 -24.501402 
L 194.003404 -24.501402 
L 192.113219 -24.501402 
L 190.223034 -24.501402 
L 188.33285 -24.501402 
L 186.442665 -24.501402 
L 184.55248 -24.501402 
L 182.662296 -24.501402 
L 180.772111 -24.501402 
L 178.881926 -24.501402 
L 176.991741 -24.501402 
L 175.101557 -24.501402 
L 173.211372 -24.501402 
L 171.321187 -24.501402 
L 169.431003 -24.501402 
L 167.540818 -24.501402 
L 165.650633 -24.501402 
L 163.760449 -24.501402 
L 161.870264 -24.501402 
L 159.980079 -24.501402 
L 158.089895 -24.501402 
L 156.19971 -24.501402 
L 154.309525 -24.501402 
L 152.41934 -24.501402 
L 150.529156 -24.501402 
L 148.638971 -24.501402 
L 146.748786 -24.501402 
L 144.858602 -24.501402 
L 142.968417 -24.501402 
L 141.078232 -24.501402 
L 139.188048 -24.501402 
L 137.297863 -24.501402 
L 135.407678 -24.501402 
L 133.517493 -24.501402 
L 131.627309 -24.501402 
L 129.737124 -24.501402 
L 127.846939 -24.501402 
L 125.956755 -24.501402 
L 124.06657 -24.501402 
L 122.176385 -24.501402 
L 120.286201 -24.501402 
L 118.396016 -24.501402 
L 116.505831 -24.501402 
L 114.615646 -24.501402 
L 112.725462 -24.501402 
L 110.835277 -24.501402 
L 108.945092 -24.501402 
L 107.054908 -24.501402 
L 105.164723 -24.501402 
L 103.274538 -24.501402 
L 101.384354 -24.501402 
L 99.494169 -24.501402 
L 97.603984 -24.501402 
L 95.713799 -24.501402 
L 93.823615 -24.501402 
L 91.93343 -24.501402 
L 90.043245 -24.501402 
L 88.153061 -24.501402 
L 86.262876 -24.501402 
L 84.372691 -24.501402 
L 82.482507 -24.501402 
L 80.592322 -24.501402 
L 78.702137 -24.501402 
L 76.811952 -24.501402 
L 74.921768 -24.501402 
L 73.031583 -24.501402 
L 71.141398 -24.501402 
L 69.251214 -24.501402 
L 67.361029 -24.501402 
L 65.470844 -24.501402 
L 63.58066 -24.501402 
L 61.690475 -24.501402 
L 59.80029 -24.501402 
L 57.910105 -24.501402 
L 56.019921 -24.501402 
L 54.129736 -24.501402 
L 52.239551 -24.501402 
L 50.349367 -24.501402 
L 48.459182 -24.501402 
L 46.568997 -24.501402 
L 44.678813 -24.501402 
L 42.788628 -24.501402 
L 40.898443 -24.501402 
L 39.008259 -24.501402 
L 37.118074 -24.501402 
L 35.227889 -24.501402 
L 33.337704 -24.501402 
L 31.44752 -24.501402 
L 29.557335 -24.501402 
L 27.66715 -24.501402 
L 25.776966 -24.501402 
L 23.886781 -24.501402 
L 21.996596 -24.501402 
L 20.106412 -24.501402 
L 18.216227 -24.501402 
L 16.326042 -24.501402 
L 14.435857 -24.501402 
L 12.545673 -24.501402 
z
"/>
    </defs>
    <g clip-path="url(#pf74e024d54)">
     <use xlink:href="#m451069c117" x="0" y="360" style="fill: #761e58; fill-opacity: 0.4"/>
    </g>
   </g>
   <g id="FillBetweenPolyCollection_6">
    <defs>
     <path id="m9cb3f7e0f5" d="M 12.545673 -24.501402 
L 12.545673 -24.501402 
L 14.435857 -24.501402 
L 16.326042 -24.501402 
L 18.216227 -24.501402 
L 20.106412 -24.501402 
L 21.996596 -24.501402 
L 23.886781 -24.501402 
L 25.776966 -24.501402 
L 27.66715 -24.501402 
L 29.557335 -24.501402 
L 31.44752 -24.501402 
L 33.337704 -24.501402 
L 35.227889 -24.501402 
L 37.118074 -24.501402 
L 39.008259 -24.501402 
L 40.898443 -24.501402 
L 42.788628 -24.501402 
L 44.678813 -24.501402 
L 46.568997 -24.501402 
L 48.459182 -24.501402 
L 50.349367 -24.501402 
L 52.239551 -24.501402 
L 54.129736 -24.501402 
L 56.019921 -24.501402 
L 57.910105 -24.501402 
L 59.80029 -24.501402 
L 61.690475 -24.501402 
L 63.58066 -24.501402 
L 65.470844 -24.501402 
L 67.361029 -24.501402 
L 69.251214 -24.501403 
L 71.141398 -24.501404 
L 73.031583 -24.501406 
L 74.921768 -24.50141 
L 76.811952 -24.501418 
L 78.702137 -24.501433 
L 80.592322 -24.501459 
L 82.482507 -24.501508 
L 84.372691 -24.501596 
L 86.262876 -24.50175 
L 88.153061 -24.502018 
L 90.043245 -24.502477 
L 91.93343 -24.503251 
L 93.823615 -24.50454 
L 95.713799 -24.506653 
L 97.603984 -24.510063 
L 99.494169 -24.51549 
L 101.384354 -24.523994 
L 103.274538 -24.537125 
L 105.164723 -24.557097 
L 107.054908 -24.587015 
L 108.945092 -24.631162 
L 110.835277 -24.695315 
L 112.725462 -24.787124 
L 114.615646 -24.916499 
L 116.505831 -25.096002 
L 118.396016 -25.341189 
L 120.286201 -25.670856 
L 122.176385 -26.10711 
L 124.06657 -26.675201 
L 125.956755 -27.403029 
L 127.846939 -28.320257 
L 129.737124 -29.456978 
L 131.627309 -30.841916 
L 133.517493 -32.50019 
L 135.407678 -34.450719 
L 137.297863 -36.703423 
L 139.188048 -39.256416 
L 141.078232 -42.093469 
L 142.968417 -45.182019 
L 144.858602 -48.472036 
L 146.748786 -51.895999 
L 148.638971 -55.370199 
L 150.529156 -58.797434 
L 152.41934 -62.071076 
L 154.309525 -65.080312 
L 156.19971 -67.716221 
L 158.089895 -69.878259 
L 159.980079 -71.48059 
L 161.870264 -72.457737 
L 163.760449 -72.769018 
L 165.650633 -72.401357 
L 167.540818 -71.370191 
L 169.431003 -69.718403 
L 171.321187 -67.513355 
L 173.211372 -64.842336 
L 175.101557 -61.806838 
L 176.991741 -58.516183 
L 178.881926 -55.08106 
L 180.772111 -51.607497 
L 182.662296 -48.191708 
L 184.55248 -44.916138 
L 186.442665 -41.846879 
L 188.33285 -39.032489 
L 190.223034 -36.504114 
L 192.113219 -34.2767 
L 194.003404 -32.351047 
L 195.893588 -30.716378 
L 197.783773 -29.35315 
L 199.673958 -28.23585 
L 201.564143 -27.335559 
L 203.454327 -26.622159 
L 203.454327 -24.501402 
L 203.454327 -24.501402 
L 201.564143 -24.501402 
L 199.673958 -24.501402 
L 197.783773 -24.501402 
L 195.893588 -24.501402 
L 194.003404 -24.501402 
L 192.113219 -24.501402 
L 190.223034 -24.501402 
L 188.33285 -24.501402 
L 186.442665 -24.501402 
L 184.55248 -24.501402 
L 182.662296 -24.501402 
L 180.772111 -24.501402 
L 178.881926 -24.501402 
L 176.991741 -24.501402 
L 175.101557 -24.501402 
L 173.211372 -24.501402 
L 171.321187 -24.501402 
L 169.431003 -24.501402 
L 167.540818 -24.501402 
L 165.650633 -24.501402 
L 163.760449 -24.501402 
L 161.870264 -24.501402 
L 159.980079 -24.501402 
L 158.089895 -24.501402 
L 156.19971 -24.501402 
L 154.309525 -24.501402 
L 152.41934 -24.501402 
L 150.529156 -24.501402 
L 148.638971 -24.501402 
L 146.748786 -24.501402 
L 144.858602 -24.501402 
L 142.968417 -24.501402 
L 141.078232 -24.501402 
L 139.188048 -24.501402 
L 137.297863 -24.501402 
L 135.407678 -24.501402 
L 133.517493 -24.501402 
L 131.627309 -24.501402 
L 129.737124 -24.501402 
L 127.846939 -24.501402 
L 125.956755 -24.501402 
L 124.06657 -24.501402 
L 122.176385 -24.501402 
L 120.286201 -24.501402 
L 118.396016 -24.501402 
L 116.505831 -24.501402 
L 114.615646 -24.501402 
L 112.725462 -24.501402 
L 110.835277 -24.501402 
L 108.945092 -24.501402 
L 107.054908 -24.501402 
L 105.164723 -24.501402 
L 103.274538 -24.501402 
L 101.384354 -24.501402 
L 99.494169 -24.501402 
L 97.603984 -24.501402 
L 95.713799 -24.501402 
L 93.823615 -24.501402 
L 91.93343 -24.501402 
L 90.043245 -24.501402 
L 88.153061 -24.501402 
L 86.262876 -24.501402 
L 84.372691 -24.501402 
L 82.482507 -24.501402 
L 80.592322 -24.501402 
L 78.702137 -24.501402 
L 76.811952 -24.501402 
L 74.921768 -24.501402 
L 73.031583 -24.501402 
L 71.141398 -24.501402 
L 69.251214 -24.501402 
L 67.361029 -24.501402 
L 65.470844 -24.501402 
L 63.58066 -24.501402 
L 61.690475 -24.501402 
L 59.80029 -24.501402 
L 57.910105 -24.501402 
L 56.019921 -24.501402 
L 54.129736 -24.501402 
L 52.239551 -24.501402 
L 50.349367 -24.501402 
L 48.459182 -24.501402 
L 46.568997 -24.501402 
L 44.678813 -24.501402 
L 42.788628 -24.501402 
L 40.898443 -24.501402 
L 39.008259 -24.501402 
L 37.118074 -24.501402 
L 35.227889 -24.501402 
L 33.337704 -24.501402 
L 31.44752 -24.501402 
L 29.557335 -24.501402 
L 27.66715 -24.501402 
L 25.776966 -24.501402 
L 23.886781 -24.501402 
L 21.996596 -24.501402 
L 20.106412 -24.501402 
L 18.216227 -24.501402 
L 16.326042 -24.501402 
L 14.435857 -24.501402 
L 12.545673 -24.501402 
z
" style="stroke: #55a868; stroke-opacity: 0.4; stroke-width: 0.3"/>
    </defs>
    <g clip-path="url(#pf74e024d54)">
     <use xlink:href="#m9cb3f7e0f5" x="0" y="360" style="fill: #55a868; fill-opacity: 0.4; stroke: #55a868; stroke-opacity: 0.4; stroke-width: 0.3"/>
    </g>
   </g>
   <g id="matplotlib.axis_3">
    <g id="xtick_11">
     <g id="line2d_15">
      <g>
       <use xlink:href="#m58902f2bb5" x="28.454727" y="340.321635" style="stroke: #000000; stroke-width: 0.8"/>
      </g>
     </g>
     <g id="text_1">
      <!-- −5.0 -->
      <g transform="translate(16.313321 354.920073) scale(0.1 -0.1)">
       <defs>
        <path id="DejaVuSans-2212" d="M 678 2272 
L 4684 2272 
L 4684 1741 
L 678 1741 
L 678 2272 
z
" transform="scale(0.015625)"/>
        <path id="DejaVuSans-35" d="M 691 4666 
L 3169 4666 
L 3169 4134 
L 1269 4134 
L 1269 2991 
Q 1406 3038 1543 3061 
Q 1681 3084 1819 3084 
Q 2600 3084 3056 2656 
Q 3513 2228 3513 1497 
Q 3513 744 3044 326 
Q 2575 -91 1722 -91 
Q 1428 -91 1123 -41 
Q 819 9 494 109 
L 494 744 
Q 775 591 1075 516 
Q 1375 441 1709 441 
Q 2250 441 2565 725 
Q 2881 1009 2881 1497 
Q 2881 1984 2565 2268 
Q 2250 2553 1709 2553 
Q 1456 2553 1204 2497 
Q 953 2441 691 2322 
L 691 4666 
z
" transform="scale(0.015625)"/>
        <path id="DejaVuSans-2e" d="M 684 794 
L 1344 794 
L 1344 0 
L 684 0 
L 684 794 
z
" transform="scale(0.015625)"/>
        <path id="DejaVuSans-30" d="M 2034 4250 
Q 1547 4250 1301 3770 
Q 1056 3291 1056 2328 
Q 1056 1369 1301 889 
Q 1547 409 2034 409 
Q 2525 409 2770 889 
Q 3016 1369 3016 2328 
Q 3016 3291 2770 3770 
Q 2525 4250 2034 4250 
z
M 2034 4750 
Q 2819 4750 3233 4129 
Q 3647 3509 3647 2328 
Q 3647 1150 3233 529 
Q 2819 -91 2034 -91 
Q 1250 -91 836 529 
Q 422 1150 422 2328 
Q 422 3509 836 4129 
Q 1250 4750 2034 4750 
z
" transform="scale(0.015625)"/>
       </defs>
       <use xlink:href="#DejaVuSans-2212"/>
       <use xlink:href="#DejaVuSans-35" transform="translate(83.789062 0)"/>
       <use xlink:href="#DejaVuSans-2e" transform="translate(147.412109 0)"/>
       <use xlink:href="#DejaVuSans-30" transform="translate(179.199219 0)"/>
      </g>
     </g>
    </g>
    <g id="xtick_12">
     <g id="line2d_16">
      <g>
       <use xlink:href="#m58902f2bb5" x="68.227364" y="340.321635" style="stroke: #000000; stroke-width: 0.8"/>
      </g>
     </g>
     <g id="text_2">
      <!-- −2.5 -->
      <g transform="translate(56.085957 354.920073) scale(0.1 -0.1)">
       <defs>
        <path id="DejaVuSans-32" d="M 1228 531 
L 3431 531 
L 3431 0 
L 469 0 
L 469 531 
Q 828 903 1448 1529 
Q 2069 2156 2228 2338 
Q 2531 2678 2651 2914 
Q 2772 3150 2772 3378 
Q 2772 3750 2511 3984 
Q 2250 4219 1831 4219 
Q 1534 4219 1204 4116 
Q 875 4013 500 3803 
L 500 4441 
Q 881 4594 1212 4672 
Q 1544 4750 1819 4750 
Q 2544 4750 2975 4387 
Q 3406 4025 3406 3419 
Q 3406 3131 3298 2873 
Q 3191 2616 2906 2266 
Q 2828 2175 2409 1742 
Q 1991 1309 1228 531 
z
" transform="scale(0.015625)"/>
       </defs>
       <use xlink:href="#DejaVuSans-2212"/>
       <use xlink:href="#DejaVuSans-32" transform="translate(83.789062 0)"/>
       <use xlink:href="#DejaVuSans-2e" transform="translate(147.412109 0)"/>
       <use xlink:href="#DejaVuSans-35" transform="translate(179.199219 0)"/>
      </g>
     </g>
    </g>
    <g id="xtick_13">
     <g id="line2d_17">
      <g>
       <use xlink:href="#m58902f2bb5" x="108" y="340.321635" style="stroke: #000000; stroke-width: 0.8"/>
      </g>
     </g>
     <g id="text_3">
      <!-- 0.0 -->
      <g transform="translate(100.048438 354.920073) scale(0.1 -0.1)">
       <use xlink:href="#DejaVuSans-30"/>
       <use xlink:href="#DejaVuSans-2e" transform="translate(63.623047 0)"/>
       <use xlink:href="#DejaVuSans-30" transform="translate(95.410156 0)"/>
      </g>
     </g>
    </g>
    <g id="xtick_14">
     <g id="line2d_18">
      <g>
       <use xlink:href="#m58902f2bb5" x="147.772636" y="340.321635" style="stroke: #000000; stroke-width: 0.8"/>
      </g>
     </g>
     <g id="text_4">
      <!-- 2.5 -->
      <g transform="translate(139.821074 354.920073) scale(0.1 -0.1)">
       <use xlink:href="#DejaVuSans-32"/>
       <use xlink:href="#DejaVuSans-2e" transform="translate(63.623047 0)"/>
       <use xlink:href="#DejaVuSans-35" transform="translate(95.410156 0)"/>
      </g>
     </g>
    </g>
    <g id="xtick_15">
     <g id="line2d_19">
      <g>
       <use xlink:href="#m58902f2bb5" x="187.545273" y="340.321635" style="stroke: #000000; stroke-width: 0.8"/>
      </g>
     </g>
     <g id="text_5">
      <!-- 5.0 -->
      <g transform="translate(179.59371 354.920073) scale(0.1 -0.1)">
       <use xlink:href="#DejaVuSans-35"/>
       <use xlink:href="#DejaVuSans-2e" transform="translate(63.623047 0)"/>
       <use xlink:href="#DejaVuSans-30" transform="translate(95.410156 0)"/>
      </g>
     </g>
    </g>
   </g>
   <g id="line2d_20">
    <path d="M 12.545673 335.498598 
L 14.435857 335.498598 
L 16.326042 335.498598 
L 18.216227 335.498598 
L 20.106412 335.498598 
L 21.996596 335.498598 
L 23.886781 335.498598 
L 25.776966 335.498598 
L 27.66715 335.498598 
L 29.557335 335.498598 
L 31.44752 335.498598 
L 33.337704 335.498598 
L 35.227889 335.498598 
L 37.118074 335.498598 
L 39.008259 335.498598 
L 40.898443 335.498598 
L 42.788628 335.498598 
L 44.678813 335.498598 
L 46.568997 335.498598 
L 48.459182 335.498598 
L 50.349367 335.498598 
L 52.239551 335.498598 
L 54.129736 335.498598 
L 56.019921 335.498598 
L 57.910105 335.498598 
L 59.80029 335.498598 
L 61.690475 335.498598 
L 63.58066 335.498598 
L 65.470844 335.498598 
L 67.361029 335.498598 
L 69.251214 335.498598 
L 71.141398 335.498598 
L 73.031583 335.498598 
L 74.921768 335.498598 
L 76.811952 335.498598 
L 78.702137 335.498598 
L 80.592322 335.498598 
L 82.482507 335.498598 
L 84.372691 335.498598 
L 86.262876 335.498598 
L 88.153061 335.498598 
L 90.043245 335.498598 
L 91.93343 335.498598 
L 93.823615 335.498598 
L 95.713799 335.498598 
L 97.603984 335.498598 
L 99.494169 335.498597 
L 101.384354 335.498596 
L 103.274538 335.498593 
L 105.164723 335.498586 
L 107.054908 335.49857 
L 108.945092 335.498533 
L 110.835277 335.49845 
L 112.725462 335.498271 
L 114.615646 335.497891 
L 116.505831 335.497109 
L 118.396016 335.495542 
L 120.286201 335.492478 
L 122.176385 335.486647 
L 124.06657 335.47584 
L 125.956755 335.456333 
L 127.846939 335.422053 
L 129.737124 335.363404 
L 131.627309 335.265735 
L 133.517493 335.107447 
L 135.407678 334.857847 
L 137.297863 334.474988 
L 139.188048 333.903889 
L 141.078232 333.075732 
L 142.968417 331.908731 
L 144.858602 330.311453 
L 146.748786 328.189233 
L 148.638971 325.454012 
L 150.529156 322.037343 
L 152.41934 317.905587 
L 154.309525 313.075483 
L 156.19971 307.627581 
L 158.089895 301.714616 
L 159.980079 295.5621 
L 161.870264 289.459135 
L 163.760449 283.73891 
L 165.650633 278.750125 
L 167.540818 274.822473 
L 169.431003 272.230814 
L 171.321187 271.163416 
L 173.211372 271.699347 
L 175.101557 273.798799 
L 176.991741 277.307969 
L 178.881926 281.977689 
L 180.772111 287.492652 
L 182.662296 293.506486 
L 184.55248 299.677282 
L 186.442665 305.698583 
L 188.33285 311.322147 
L 190.223034 316.37059 
L 192.113219 320.739899 
L 194.003404 324.393369 
L 195.893588 327.349527 
L 197.783773 329.66697 
L 199.673958 331.428802 
L 201.564143 332.728746 
L 203.454327 333.660191 
" clip-path="url(#pf74e024d54)" style="fill: none; stroke: #000000; stroke-width: 0.6; stroke-linecap: square"/>
   </g>
   <g id="line2d_21">
    <path d="M 12.545673 335.498598 
L 14.435857 335.498598 
L 16.326042 335.498598 
L 18.216227 335.498598 
L 20.106412 335.498598 
L 21.996596 335.498598 
L 23.886781 335.498598 
L 25.776966 335.498598 
L 27.66715 335.498598 
L 29.557335 335.498598 
L 31.44752 335.498598 
L 33.337704 335.498598 
L 35.227889 335.498598 
L 37.118074 335.498598 
L 39.008259 335.498598 
L 40.898443 335.498598 
L 42.788628 335.498598 
L 44.678813 335.498598 
L 46.568997 335.498598 
L 48.459182 335.498598 
L 50.349367 335.498598 
L 52.239551 335.498598 
L 54.129736 335.498598 
L 56.019921 335.498598 
L 57.910105 335.498598 
L 59.80029 335.498598 
L 61.690475 335.498598 
L 63.58066 335.498598 
L 65.470844 335.498598 
L 67.361029 335.498598 
L 69.251214 335.498597 
L 71.141398 335.498596 
L 73.031583 335.498594 
L 74.921768 335.49859 
L 76.811952 335.498582 
L 78.702137 335.498567 
L 80.592322 335.498541 
L 82.482507 335.498492 
L 84.372691 335.498404 
L 86.262876 335.49825 
L 88.153061 335.497982 
L 90.043245 335.497523 
L 91.93343 335.496749 
L 93.823615 335.49546 
L 95.713799 335.493347 
L 97.603984 335.489937 
L 99.494169 335.48451 
L 101.384354 335.476006 
L 103.274538 335.462875 
L 105.164723 335.442903 
L 107.054908 335.412985 
L 108.945092 335.368838 
L 110.835277 335.304685 
L 112.725462 335.212876 
L 114.615646 335.083501 
L 116.505831 334.903998 
L 118.396016 334.658811 
L 120.286201 334.329144 
L 122.176385 333.89289 
L 124.06657 333.324799 
L 125.956755 332.596971 
L 127.846939 331.679743 
L 129.737124 330.543022 
L 131.627309 329.158084 
L 133.517493 327.49981 
L 135.407678 325.549281 
L 137.297863 323.296577 
L 139.188048 320.743584 
L 141.078232 317.906531 
L 142.968417 314.817981 
L 144.858602 311.527964 
L 146.748786 308.104001 
L 148.638971 304.629801 
L 150.529156 301.202566 
L 152.41934 297.928924 
L 154.309525 294.919688 
L 156.19971 292.283779 
L 158.089895 290.121741 
L 159.980079 288.51941 
L 161.870264 287.542263 
L 163.760449 287.230982 
L 165.650633 287.598643 
L 167.540818 288.629809 
L 169.431003 290.281597 
L 171.321187 292.486645 
L 173.211372 295.157664 
L 175.101557 298.193162 
L 176.991741 301.483817 
L 178.881926 304.91894 
L 180.772111 308.392503 
L 182.662296 311.808292 
L 184.55248 315.083862 
L 186.442665 318.153121 
L 188.33285 320.967511 
L 190.223034 323.495886 
L 192.113219 325.7233 
L 194.003404 327.648953 
L 195.893588 329.283622 
L 197.783773 330.64685 
L 199.673958 331.76415 
L 201.564143 332.664441 
L 203.454327 333.377841 
" clip-path="url(#pf74e024d54)" style="fill: none; stroke: #000000; stroke-width: 0.6; stroke-linecap: square"/>
   </g>
   <g id="patch_7">
    <path d="M 3.00024 340.321635 
L 212.99976 340.321635 
" style="fill: none; stroke: #000000; stroke-width: 0.8; stroke-linejoin: miter; stroke-linecap: square"/>
   </g>
  </g>
 </g>
 <defs>
  <clipPath id="p682de43e9b">
   <rect x="3.00024" y="3.00024" width="209.99952" height="106.106812"/>
  </clipPath>
  <clipPath id="p4f98ab057c">
   <rect x="3.00024" y="118.607532" width="209.99952" height="106.106812"/>
  </clipPath>
  <clipPath id="pf74e024d54">
   <rect x="3.00024" y="234.214823" width="209.99952" height="106.106812"/>
  </clipPath>
 </defs>
</svg>
